# Created by Kenney (www.kenney.nl)

mtllib driveway_long.mtl

g driveway_long

v -0.18 1.313589E-17 -0.2
v 0.18 1.313589E-17 -0.2
v -0.13 0.01 -0.2
v 0.13 0.01 -0.2
v 0.13 0.01 0.2
v -0.13 0.01 0.2
v 0.18 0 0.2
v -0.18 0 0.2

vn 0 0 -1
vn 0 1 0
vn 0 0 1
vn 0 -1 0
vn 0.1961161 0.9805807 0
vn -0.1961161 0.9805807 0

vt 7.086614 5.171609E-16
vt -7.086614 5.171609E-16
vt 5.11811 0.3937008
vt -5.11811 0.3937008
vt -5.11811 -7.874016
vt -5.11811 7.874016
vt 5.11811 -7.874016
vt 5.11811 7.874016
vt 7.086614 0
vt -7.086614 0
vt 7.086614 7.874016
vt 7.086614 -7.874016
vt -7.086614 7.874016
vt -7.086614 -7.874016
vt 7.874016 -6.948997
vt -7.874016 -6.948997
vt 7.874016 -4.941509
vt -7.874016 -4.941509

usemtl door

f 3/3/1 2/2/1 1/1/1
f 2/2/1 3/3/1 4/4/1
f 3/7/2 5/6/2 4/5/2
f 5/6/2 3/7/2 6/8/2
f 5/3/3 8/10/3 7/9/3
f 8/10/3 5/3/3 6/4/3
f 8/13/4 2/12/4 7/11/4
f 2/12/4 8/13/4 1/14/4

usemtl border

f 4/17/5 7/16/5 2/15/5
f 7/16/5 4/17/5 5/18/5
f 1/16/6 6/17/6 3/18/6
f 6/17/6 1/16/6 8/15/6

