# Created by Kenney (www.kenney.nl)

mtllib fence_rectangle.mtl

g fence_rectangle

v 0.6 0.265 0.37
v 0.6 1.198486E-17 0.37
v 0.6 0.265 0.4
v 0.6 1.409983E-18 0.4
v -0.585 0 -0.4
v -0.57 0 -0.4
v -0.585 0.25 -0.4
v -0.57 0.25 -0.4
v -0.57 0.265 0.37
v -0.57 0.265 0.4
v -0.6 0.265 0.37
v -0.6 0.265 0.4
v -0.6 1.198486E-17 0.37
v -0.6 1.409983E-18 0.4
v 0.57 1.198486E-17 0.385
v 0.57 0.25 0.385
v 0.57 1.198486E-17 0.4
v 0.57 0.265 0.4
v 0.57 0.265 0.37
v 0.57 0.25 0.37
v 0.57 1.409983E-18 0.37
v 0.57 0.25 -0.4
v 0.57 0 -0.4
v -0.57 0.25 0.385
v -0.57 0.25 0.37
v -0.585 0.25 0.37
v 0.585 0.25 0.37
v 0.585 0.25 -0.4
v -0.57 1.198486E-17 0.385
v -0.57 1.409983E-18 0.37
v 0.585 0 -0.4
v 0.585 1.198486E-17 0.37
v -0.57 1.198486E-17 0.4
v -0.585 1.198486E-17 0.37

vn 1 0 0
vn 0 0 -1
vn 0 1 0
vn -1 0 0
vn 0 -1 0
vn 0 0 1

vt -14.56693 10.43307
vt -14.56693 4.718448E-16
vt -15.74803 10.43307
vt -15.74803 5.551115E-17
vt 23.0315 0
vt 22.44094 0
vt 23.0315 9.84252
vt 22.44094 9.84252
vt 22.44094 14.56693
vt 22.44094 15.74803
vt 23.62205 14.56693
vt 23.62205 15.74803
vt 14.56693 4.718448E-16
vt 14.56693 10.43307
vt 15.74803 5.551115E-17
vt 15.74803 10.43307
vt 15.15748 5.649456E-15
vt 15.15748 9.84252
vt 15.74803 5.649456E-15
vt 14.56693 10.43307
vt 14.56693 9.84252
vt 14.56693 5.551118E-17
vt -15.74803 9.84252
vt -15.74803 3.189074E-23
vt -22.44094 15.15748
vt 22.44094 15.15748
vt -22.44094 14.56693
vt 23.0315 14.56693
vt 22.44094 -15.74803
vt 23.0315 -15.74803
vt -23.0315 14.56693
vt -23.0315 -15.74803
vt -22.44094 -15.74803
vt -23.62205 15.74803
vt -22.44094 15.74803
vt -23.62205 14.56693
vt -22.44094 0
vt -23.0315 0
vt -22.44094 9.84252
vt -23.0315 9.84252
vt 15.74803 9.84252
vt 15.74803 1.295008E-23
vt -14.56693 9.84252
vt -14.56693 5.551116E-17
vt -14.56693 10.43307
vt -15.15748 9.84252
vt -15.15748 1.981665E-15
vt -15.74803 1.981665E-15
vt -22.44094 10.43307
vt -23.62205 10.43307
vt -23.62205 1.451904E-15
vt -23.0315 1.451904E-15
vt -22.44094 5.551118E-17
vt 22.44094 5.551118E-17
vt 23.62205 10.43307
vt 23.0315 3.83275E-15
vt 23.62205 3.83275E-15
vt 22.44094 10.43307
vt -23.62205 5.551115E-17
vt -22.44094 4.718448E-16
vt -15.74803 2.010318E-23
vt 14.56693 9.84252
vt 23.62205 5.551115E-17
vt 22.44094 4.718448E-16
vt 15.74803 3.941852E-27
vt -14.56693 9.84252

usemtl wood

f 3/3/1 2/2/1 1/1/1
f 2/2/1 3/3/1 4/4/1
f 7/7/2 6/6/2 5/5/2
f 6/6/2 7/7/2 8/8/2
f 11/11/3 10/10/3 9/9/3
f 10/10/3 11/11/3 12/12/3
f 14/15/4 11/14/4 13/13/4
f 11/14/4 14/15/4 12/16/4
f 17/19/4 16/18/4 15/17/4
f 18/16/4 16/18/4 17/19/4
f 19/20/4 16/18/4 18/16/4
f 16/18/4 19/20/4 20/21/4
f 22/23/4 21/22/4 20/21/4
f 21/22/4 22/23/4 23/24/4
f 20/27/3 24/26/3 16/25/3
f 24/26/3 20/27/3 25/9/3
f 8/29/3 26/28/3 25/9/3
f 26/28/3 8/29/3 7/30/3
f 28/32/3 20/27/3 27/31/3
f 20/27/3 28/32/3 22/33/3
f 29/25/5 21/9/5 15/26/5
f 21/9/5 29/25/5 30/27/5
f 23/29/5 15/26/5 21/9/5
f 23/29/5 17/10/5 15/26/5
f 31/30/5 17/10/5 23/29/5
f 32/28/5 17/10/5 31/30/5
f 2/11/5 17/10/5 32/28/5
f 17/10/5 2/11/5 4/12/5
f 29/25/5 14/34/5 30/27/5
f 14/34/5 29/25/5 33/35/5
f 30/27/5 14/34/5 34/31/5
f 30/27/5 34/31/5 6/33/5
f 34/31/5 14/34/5 13/36/5
f 5/32/5 6/33/5 34/31/5
f 22/39/2 31/38/2 23/37/2
f 31/38/2 22/39/2 28/40/2
f 25/43/1 6/42/1 8/41/1
f 6/42/1 25/43/1 30/44/1
f 10/3/1 25/43/1 9/45/1
f 25/43/1 10/3/1 24/46/1
f 24/46/1 10/3/1 29/47/1
f 29/47/1 10/3/1 33/48/1
f 19/49/2 27/40/2 20/39/2
f 1/50/2 27/40/2 19/49/2
f 2/51/2 27/40/2 1/50/2
f 27/40/2 2/51/2 32/52/2
f 21/53/2 25/8/2 20/39/2
f 25/8/2 21/53/2 30/54/2
f 26/7/2 11/55/2 25/8/2
f 34/56/2 11/55/2 26/7/2
f 11/55/2 34/56/2 13/57/2
f 25/8/2 11/55/2 9/58/2
f 33/60/6 12/50/6 14/59/6
f 12/50/6 33/60/6 10/49/6
f 34/13/4 7/23/4 5/61/4
f 7/23/4 34/13/4 26/62/4
f 1/36/3 18/35/3 3/34/3
f 18/35/3 1/36/3 19/27/3
f 3/55/6 17/64/6 4/63/6
f 17/64/6 3/55/6 18/58/6
f 27/66/1 31/65/1 28/41/1
f 31/65/1 27/66/1 32/2/1
f 16/8/6 29/60/6 15/64/6
f 29/60/6 16/8/6 24/39/6

