# Created by Kenney (www.kenney.nl)

mtllib fence_small.mtl

g fence_small

v 0.37 0 -0.2
v 0.385 0 -0.2
v 0.37 0.25 -0.2
v 0.385 0.25 -0.2
v -0.4 1.057487E-17 0.17
v -0.385 1.057487E-17 0.17
v -0.4 0.265 0.17
v -0.385 0.25 0.17
v -0.37 0.25 0.17
v -0.37 0.265 0.17
v -0.37 0 0.17
v 0.37 0 0.17
v 0.37 0.25 0.17
v 0.385 0.25 0.17
v 0.37 0.265 0.17
v 0.4 0.265 0.17
v 0.4 1.057487E-17 0.17
v 0.385 1.057487E-17 0.17
v 0.37 1.057487E-17 0.185
v -0.37 1.057487E-17 0.185
v 0.37 0.25 0.185
v -0.37 0.25 0.185
v 0.37 0.265 0.2
v 0.37 1.057487E-17 0.2
v -0.385 0 -0.2
v -0.385 0.25 -0.2
v 0.4 0.265 0.2
v 0.4 0 0.2
v -0.37 0.265 0.2
v -0.4 0.265 0.2
v -0.37 1.057487E-17 0.2
v -0.4 0 0.2
v -0.37 0 -0.2
v -0.37 0.25 -0.2

vn 0 0 -1
vn 0 0 1
vn -1 0 0
vn 1 0 0
vn 0 1 0
vn 0 -1 0

vt -14.56693 0
vt -15.15748 0
vt -14.56693 9.84252
vt -15.15748 9.84252
vt 15.74803 1.960533E-15
vt 15.15748 1.960533E-15
vt 15.74803 10.43307
vt 15.15748 9.84252
vt 14.56693 9.84252
vt 14.56693 10.43307
vt 14.56693 1.977491E-25
vt -14.56693 1.977491E-25
vt -14.56693 10.43307
vt -15.74803 10.43307
vt -15.74803 8.66631E-16
vt -15.15748 8.66631E-16
vt 14.56693 4.163336E-16
vt -14.56693 4.163336E-16
vt -7.874015 1.667699E-29
vt -7.874015 9.84252
vt 6.692914 1.667699E-29
vt 6.692914 9.84252
vt 6.692914 10.43307
vt 7.283465 9.84252
vt 7.874016 10.43307
vt 7.874016 3.777239E-15
vt 7.283465 3.777239E-15
vt -7.874016 -1.825405E-30
vt -7.874016 9.84252
vt 6.692914 4.163336E-16
vt -6.692914 10.43307
vt -6.692914 4.163336E-16
vt -7.874016 10.43307
vt -7.874016 2.34362E-30
vt 14.56693 6.692914
vt 14.56693 7.874016
vt 15.74803 6.692914
vt 15.74803 7.874016
vt -14.56693 7.874016
vt -14.56693 7.283464
vt -15.74803 7.874016
vt -14.56693 6.692914
vt -15.15748 6.692914
vt -15.15748 -7.874016
vt -15.74803 6.692914
vt -14.56693 -7.874016
vt 14.56693 7.283464
vt 14.56693 -7.874016
vt 15.15748 -7.874016
vt 15.15748 6.692914
vt -6.692914 9.84252
vt -7.283464 9.84252
vt -7.283464 1.396393E-15
vt -7.874016 1.396393E-15
vt 7.874016 9.84252
vt 7.874016 4.744778E-31
vt -6.692914 4.744778E-31
vt -15.74803 1.17181E-30
vt 15.74803 0
vt 7.874015 9.84252
vt 7.874015 1.554263E-30
vt 7.874016 0
vt 15.15748 2.564745E-31
vt 14.56693 2.564745E-31

usemtl wood

f 3/3/1 2/2/1 1/1/1
f 2/2/1 3/3/1 4/4/1
f 7/7/1 6/6/1 5/5/1
f 6/6/1 7/7/1 8/8/1
f 8/8/1 7/7/1 9/9/1
f 9/9/1 7/7/1 10/10/1
f 9/9/1 12/12/1 11/11/1
f 12/12/1 9/9/1 13/3/1
f 15/13/1 14/4/1 13/3/1
f 16/14/1 14/4/1 15/13/1
f 17/15/1 14/4/1 16/14/1
f 14/4/1 17/15/1 18/16/1
f 21/9/2 20/18/2 19/17/2
f 20/18/2 21/9/2 22/3/2
f 12/21/3 3/20/3 1/19/3
f 3/20/3 12/21/3 13/22/3
f 21/24/3 15/23/3 13/22/3
f 15/23/3 21/24/3 23/25/3
f 23/25/3 21/24/3 24/26/3
f 24/26/3 21/24/3 19/27/3
f 6/30/3 26/29/3 25/28/3
f 26/29/3 6/30/3 8/22/3
f 27/33/4 17/32/4 16/31/4
f 17/32/4 27/33/4 28/34/4
f 7/37/5 29/36/5 10/35/5
f 29/36/5 7/37/5 30/38/5
f 32/41/6 20/40/6 31/39/6
f 20/40/6 32/41/6 11/42/6
f 11/42/6 32/41/6 6/43/6
f 11/42/6 6/43/6 25/44/6
f 6/43/6 32/41/6 5/45/6
f 25/44/6 33/46/6 11/42/6
f 12/35/6 20/40/6 11/42/6
f 20/40/6 12/35/6 19/47/6
f 12/35/6 24/36/6 19/47/6
f 1/48/6 24/36/6 12/35/6
f 2/49/6 24/36/6 1/48/6
f 18/50/6 24/36/6 2/49/6
f 17/37/6 24/36/6 18/50/6
f 24/36/6 17/37/6 28/38/6
f 29/33/4 9/51/4 10/31/4
f 9/51/4 29/33/4 22/52/4
f 22/52/4 29/33/4 20/53/4
f 20/53/4 29/33/4 31/54/4
f 9/51/4 33/56/4 34/55/4
f 33/56/4 9/51/4 11/57/4
f 31/18/2 30/14/2 32/58/2
f 30/14/2 31/18/2 29/13/2
f 13/42/5 22/47/5 21/40/5
f 22/47/5 13/42/5 9/35/5
f 4/44/5 13/42/5 14/43/5
f 13/42/5 4/44/5 3/46/5
f 26/49/5 9/35/5 34/48/5
f 9/35/5 26/49/5 8/50/5
f 27/7/2 24/17/2 28/59/2
f 24/17/2 27/7/2 23/10/2
f 14/51/4 2/61/4 4/60/4
f 2/61/4 14/51/4 18/32/4
f 32/62/3 7/23/3 5/30/3
f 7/23/3 32/62/3 30/25/3
f 26/8/1 33/64/1 25/63/1
f 33/64/1 26/8/1 34/9/1
f 16/45/5 23/39/5 27/41/5
f 23/39/5 16/45/5 15/42/5

