# Created by Kenney (www.kenney.nl)

mtllib house_type21.mtl

g house_type21

v 0.2409311 0.13 -0.38
v 0.1209311 0.15 -0.38
v 0.1009311 0.13 -0.38
v 0.1009311 0.27 -0.38
v 0.1209311 0.19 -0.38
v 0.1209311 0.21 -0.38
v 0.2209311 0.19 -0.38
v 0.1209311 0.25 -0.38
v 0.2209311 0.25 -0.38
v 0.2209311 0.15 -0.38
v 0.2409311 0.27 -0.38
v 0.2209311 0.21 -0.38
v 0.2409311 0.27 -0.4
v 0.1009311 0.27 -0.4
v 0.2409311 0.13 -0.4
v 0.1009311 0.13 -0.4
v 0.2709311 0.1 -0.4
v 0.07093111 0.1 -0.4
v 0.07093111 0.3 -0.4
v 0.2709311 0.3 -0.4
v 0.2409311 0.67 -0.38
v 0.2409311 0.67 -0.4
v 0.1009311 0.67 -0.38
v 0.1009311 0.67 -0.4
v 0.2409311 0.53 -0.4
v 0.2409311 0.53 -0.38
v 0.1009311 0.53 -0.4
v 0.1009311 0.53 -0.38
v 0.1209311 0.55 -0.38
v 0.1209311 0.59 -0.38
v 0.1209311 0.61 -0.38
v 0.2209311 0.59 -0.38
v 0.1209311 0.65 -0.38
v 0.2209311 0.65 -0.38
v 0.2209311 0.55 -0.38
v 0.2209311 0.61 -0.38
v 0.2709311 0.5 -0.4
v 0.07093111 0.5 -0.4
v 0.07093111 0.7 -0.4
v 0.2709311 0.7 -0.4
v 0.1009311 0.27 0.38
v 0.1009311 1.804779E-16 0.38
v 0.1009311 0.27 0.4
v 0.1009311 1.804779E-16 0.4
v 0.2409311 0.27 0.4
v 0.2409311 0.27 0.38
v 0.2409311 1.804779E-16 0.38
v 0.2409311 1.804779E-16 0.4
v 0.3709311 0.05 -0.4
v 0.3709311 0 -0.4
v 0.3709311 0.05 0.4
v 0.3709311 0 0.4
v -0.4290689 0 -0.4
v -0.3290689 1.69198E-16 -0.4
v -0.4290689 0.05 -0.4
v -0.3290689 0.05 -0.4
v -0.1290689 1.804779E-16 -0.4
v -0.1290689 0.05 -0.4
v -0.2990689 0.27 -0.41
v -0.2990689 1.804779E-16 -0.41
v -0.2990689 0.27 -0.38
v -0.2990689 1.804779E-16 -0.38
v -0.1290689 0.3 -0.41
v -0.1290689 0.3 -0.4
v -0.3290689 0.3 -0.41
v -0.3290689 0.3 -0.4
v -0.1290689 1.804779E-16 -0.41
v -0.1590689 1.804779E-16 -0.41
v -0.1590689 0.27 -0.41
v -0.1590689 1.804779E-16 -0.38
v -0.1590689 0.27 -0.38
v -0.3290689 1.69198E-16 -0.41
v 0.2409311 0.67 0.4
v 0.2409311 0.67 0.38
v 0.1009311 0.67 0.4
v 0.1009311 0.67 0.38
v 0.2409311 0.53 0.38
v 0.2409311 0.53 0.4
v 0.1009311 0.53 0.38
v 0.1009311 0.53 0.4
v 0.2209311 0.55 0.38
v 0.2209311 0.59 0.38
v 0.2209311 0.61 0.38
v 0.1209311 0.59 0.38
v 0.2209311 0.65 0.38
v 0.1209311 0.65 0.38
v 0.1209311 0.55 0.38
v 0.1209311 0.61 0.38
v 0.07093111 0.5 0.4
v 0.2709311 0.5 0.4
v 0.2709311 0.7 0.4
v 0.07093111 0.7 0.4
v 0.3709311 0.45 -0.4
v 0.3709311 0.4 -0.4
v 0.3709311 0.45 0.4
v 0.3709311 0.4 0.4
v -0.1590689 0.67 -0.38
v -0.1590689 0.67 -0.4
v -0.2990689 0.67 -0.38
v -0.2990689 0.67 -0.4
v -0.1590689 0.53 -0.4
v -0.1590689 0.53 -0.38
v -0.2990689 0.53 -0.4
v -0.2990689 0.53 -0.38
v -0.4290689 0.4 -0.4
v -0.4290689 0.45 -0.4
v -0.2790689 0.55 -0.38
v -0.2790689 0.59 -0.38
v -0.2790689 0.61 -0.38
v -0.1790689 0.59 -0.38
v -0.2790689 0.65 -0.38
v -0.1790689 0.65 -0.38
v -0.1790689 0.55 -0.38
v -0.1790689 0.61 -0.38
v -0.1290689 0.5 -0.4
v -0.3290689 0.5 -0.4
v -0.3290689 0.7 -0.4
v -0.1290689 0.7 -0.4
v 0.2709311 0.05 0.4
v 0.2709311 0.3 0.4
v 0.07093111 0.3 0.4
v 0.07093111 0.05 0.4
v -0.4290689 0.05 0.4
v -0.4290689 0 0.4
v -0.4090689 0.27 0.13
v -0.4290689 0.27 0.13
v -0.4090689 0.27 0.27
v -0.4290689 0.27 0.27
v -0.4090689 0.13 0.13
v -0.4090689 0.13 0.27
v -0.4290689 0.13 0.13
v -0.4290689 0.13 0.27
v -0.4090689 0.15 0.15
v -0.4090689 0.19 0.15
v -0.4090689 0.15 0.25
v -0.4090689 0.21 0.25
v -0.4090689 0.25 0.15
v -0.4090689 0.25 0.25
v -0.4090689 0.21 0.15
v -0.4090689 0.19 0.25
v -0.4290689 0.3 0.09999999
v -0.4290689 0.1 0.09999999
v -0.4290689 0.1 0.3
v -0.4290689 0.3 0.3
v -0.1590689 0.53 0.38
v -0.1590689 0.53 0.4
v -0.2990689 0.53 0.38
v -0.2990689 0.53 0.4
v -0.4290689 0.4 0.4
v -0.4290689 0.45 0.4
v -0.1590689 0.67 0.4
v -0.1590689 0.67 0.38
v -0.2990689 0.67 0.4
v -0.2990689 0.67 0.38
v -0.1790689 0.55 0.38
v -0.1790689 0.59 0.38
v -0.1790689 0.61 0.38
v -0.2790689 0.59 0.38
v -0.1790689 0.65 0.38
v -0.2790689 0.65 0.38
v -0.2790689 0.55 0.38
v -0.2790689 0.61 0.38
v -0.3290689 0.5 0.4
v -0.1290689 0.5 0.4
v -0.1290689 0.7 0.4
v -0.3290689 0.7 0.4
v -0.02906888 0.8 -0.37
v -0.02906889 0.8 0.37
v -0.3990689 0.8 -0.37
v -0.3990689 0.8 0.37
v -0.4290689 0.8 -0.4
v -0.02906888 0.8 -0.4
v -0.4290689 0.85 -0.4
v -0.02906888 0.85 -0.4
v -0.3990689 0.85 -0.37
v -0.3990689 0.85 0.37
v -0.02906889 0.85 0.37
v -0.02906888 0.85 -0.37
v -0.4290689 0.85 0.4
v -0.02906889 0.85 0.4
v -0.02906889 0.8 0.4
v -0.4290689 0.8 0.4
v -0.2490689 0.12 -0.38
v -0.2090689 0.12 -0.38
v -0.2490689 0.16 -0.38
v -0.2090689 0.16 -0.38
v -0.2490689 0.18 -0.38
v -0.2090689 0.18 -0.38
v -0.2490689 0.22 -0.38
v -0.2090689 0.22 -0.38
v 0.3709311 0.8 -0.4
v 0.3709311 0.8 0.4
v -0.02906888 1 -0.4
v -0.02906889 1 0.4
v 0.4156525 0.7776393 -0.45
v 0.4290689 0.8044721 -0.45
v -0.02906888 1 -0.45
v -0.02906888 1.033541 -0.45
v 0.4290689 0.8044721 0.45
v -0.02906889 1.033541 0.45
v 0.4156525 0.7776393 0.45
v -0.02906889 1 0.45

vn 0 0 -1
vn 0 -1 0
vn 0 1 0
vn 1 0 0
vn -1 0 0
vn 0 0 1
vn 0.4472136 0.8944272 0
vn -0.4472136 -0.8944272 0
vn 0.8944272 -0.4472136 0

vt -9.485477 5.11811
vt -4.761067 5.905512
vt -3.973666 5.11811
vt -3.973666 10.62992
vt -4.761067 7.480315
vt -4.761067 8.267716
vt -8.698075 7.480315
vt -4.761067 9.84252
vt -8.698075 9.84252
vt -8.698075 5.905512
vt -9.485477 10.62992
vt -8.698075 8.267716
vt 9.485477 -14.96063
vt 9.485477 -15.74803
vt 3.973666 -14.96063
vt 3.973666 -15.74803
vt -9.485477 -15.74803
vt -9.485477 -14.96063
vt -3.973666 -15.74803
vt -3.973666 -14.96063
vt 15.74803 10.62992
vt 15.74803 5.11811
vt 14.96063 10.62992
vt 14.96063 5.11811
vt -10.66658 3.937008
vt -2.792564 3.937008
vt -2.792564 11.81102
vt -10.66658 11.81102
vt -15.74803 5.11811
vt -15.74803 10.62992
vt -14.96063 5.11811
vt -14.96063 10.62992
vt -9.485477 20.86614
vt -4.761067 21.65354
vt -3.973666 20.86614
vt -3.973666 26.37795
vt -4.761067 23.22835
vt -4.761067 24.01575
vt -8.698075 23.22835
vt -4.761067 25.59055
vt -8.698075 25.59055
vt -8.698075 21.65354
vt -9.485477 26.37795
vt -8.698075 24.01575
vt -15.74803 20.86614
vt -15.74803 26.37795
vt -14.96063 20.86614
vt -14.96063 26.37795
vt -10.66658 19.68504
vt -2.792564 19.68504
vt -2.792564 27.55906
vt -10.66658 27.55906
vt 15.74803 26.37795
vt 15.74803 20.86614
vt 14.96063 26.37795
vt 14.96063 20.86614
vt -14.96063 10.62992
vt -14.96063 7.105427E-15
vt -15.74803 7.105427E-15
vt 9.485477 15.74803
vt 9.485477 14.96063
vt 3.973666 15.74803
vt 3.973666 14.96063
vt 14.96063 7.105427E-15
vt 14.96063 10.62992
vt 15.74803 7.105427E-15
vt 15.74803 1.968504
vt 15.74803 0
vt -15.74803 1.968504
vt -15.74803 0
vt 16.89248 -3.944305E-31
vt 12.95547 6.661338E-15
vt 16.89248 1.968504
vt 12.95547 1.968504
vt -14.60359 1.554206E-26
vt -14.60359 1.968504
vt 5.081452 7.105427E-15
vt 5.081452 1.968504
vt 16.14173 10.62992
vt 16.14173 7.105427E-15
vt 14.96063 7.105427E-15
vt 5.081452 -16.14173
vt 5.081452 -15.74803
vt 12.95547 -16.14173
vt 12.95547 -15.74803
vt 16.14173 11.81102
vt 15.74803 11.81102
vt -16.14173 7.105427E-15
vt -16.14173 10.62992
vt -14.96063 7.105427E-15
vt -6.262555 -14.96063
vt -6.262555 -16.14173
vt -11.77437 -14.96063
vt -11.77437 -16.14173
vt 11.77437 7.105427E-15
vt 12.95547 11.81102
vt 11.77437 10.62992
vt 6.262555 10.62992
vt 5.081452 11.81102
vt 6.262555 7.105427E-15
vt -16.14173 6.661338E-15
vt -16.14173 11.81102
vt -15.74803 6.661338E-15
vt -15.74803 11.81102
vt -9.485477 14.96063
vt -9.485477 15.74803
vt -3.973666 14.96063
vt -3.973666 15.74803
vt 3.973666 20.86614
vt 8.698075 21.65354
vt 9.485477 20.86614
vt 9.485477 26.37795
vt 8.698075 23.22835
vt 8.698075 24.01575
vt 4.761067 23.22835
vt 8.698075 25.59055
vt 4.761067 25.59055
vt 4.761067 21.65354
vt 3.973666 26.37795
vt 4.761067 24.01575
vt -14.96063 26.37795
vt -14.96063 20.86614
vt 2.792564 19.68504
vt 10.66658 19.68504
vt 10.66658 27.55906
vt 2.792564 27.55906
vt 14.96063 20.86614
vt 14.96063 26.37795
vt 15.74803 17.71654
vt 15.74803 15.74803
vt -15.74803 17.71654
vt -15.74803 15.74803
vt -6.262555 -15.74803
vt -11.77437 -15.74803
vt 6.262555 -15.74803
vt 6.262555 -14.96063
vt 11.77437 -15.74803
vt 11.77437 -14.96063
vt 16.89248 15.74803
vt -14.60359 15.74803
vt 16.89248 17.71654
vt -14.60359 17.71654
vt 6.262555 20.86614
vt 10.98696 21.65354
vt 11.77437 20.86614
vt 11.77437 26.37795
vt 10.98696 23.22835
vt 10.98696 24.01575
vt 7.049956 23.22835
vt 10.98696 25.59055
vt 7.049956 25.59055
vt 7.049956 21.65354
vt 6.262555 26.37795
vt 7.049956 24.01575
vt 5.081452 19.68504
vt 12.95547 19.68504
vt 12.95547 27.55906
vt 5.081452 27.55906
vt 14.60359 1.238969E-13
vt 9.485477 1.310024E-13
vt 14.60359 1.968504
vt 10.66658 1.968504
vt 9.485477 10.62992
vt 10.66658 11.81102
vt 3.973666 10.62992
vt 2.792564 11.81102
vt 2.792564 1.968504
vt 3.973666 1.310024E-13
vt -16.89248 1.968504
vt -16.89248 1.238969E-13
vt -16.10507 5.11811
vt -16.89248 5.11811
vt -16.10507 10.62992
vt -16.89248 10.62992
vt 16.10507 5.11811
vt 16.10507 10.62992
vt 16.89248 5.11811
vt 16.89248 10.62992
vt 5.11811 10.62992
vt 5.905512 5.905512
vt 5.11811 5.11811
vt 10.62992 5.11811
vt 5.905512 7.480315
vt 9.84252 5.905512
vt 9.84252 8.267716
vt 5.905512 9.84252
vt 10.62992 10.62992
vt 9.84252 9.84252
vt 5.905512 8.267716
vt 9.84252 7.480315
vt 14.60359 -15.74803
vt -5.081452 -15.74803
vt 14.60359 15.74803
vt -16.89248 15.74803
vt -5.081452 -16.14173
vt -12.95547 -15.74803
vt -16.89248 -15.74803
vt -12.95547 -16.14173
vt 3.937008 11.81102
vt 3.937008 3.937008
vt 11.81102 3.937008
vt 11.81102 11.81102
vt 6.262555 14.96063
vt 6.262555 15.74803
vt 11.77437 14.96063
vt 11.77437 15.74803
vt 14.60359 17.71654
vt -16.89248 17.71654
vt -6.262555 15.74803
vt -6.262555 14.96063
vt -11.77437 15.74803
vt -11.77437 14.96063
vt -11.77437 20.86614
vt -7.049956 21.65354
vt -6.262555 20.86614
vt -6.262555 26.37795
vt -7.049956 23.22835
vt -7.049956 24.01575
vt -10.98696 23.22835
vt -7.049956 25.59055
vt -10.98696 25.59055
vt -10.98696 21.65354
vt -11.77437 26.37795
vt -10.98696 24.01575
vt -12.95547 19.68504
vt -5.081452 19.68504
vt -5.081452 27.55906
vt -12.95547 27.55906
vt 1.144444 -14.56693
vt 1.144444 14.56693
vt 15.71137 -14.56693
vt 15.71137 14.56693
vt 16.89248 31.49606
vt 1.144444 31.49606
vt 16.89248 33.46457
vt 1.144444 33.46457
vt 14.56693 33.46457
vt 14.56693 31.49606
vt -14.56693 33.46457
vt -14.56693 31.49606
vt 15.71137 31.49606
vt 1.144444 31.49606
vt 15.71137 33.46457
vt 1.144444 33.46457
vt -1.144444 31.49606
vt -15.71137 31.49606
vt -1.144444 33.46457
vt -15.71137 33.46457
vt 1.144444 -15.74803
vt 16.89248 -15.74803
vt 1.144444 15.74803
vt -1.144444 31.49606
vt -16.89248 31.49606
vt -1.144444 33.46457
vt -16.89248 33.46457
vt -15.74803 31.49606
vt -15.74803 33.46457
vt 15.74803 31.49606
vt 15.74803 33.46457
vt 9.805861 4.72441
vt 8.231058 4.72441
vt 9.805861 6.299212
vt 8.231058 6.299212
vt 9.805861 7.086614
vt 8.231058 7.086614
vt 9.805861 8.661417
vt 8.231058 8.661417
vt 3.973666 7.105427E-15
vt 9.485477 7.105427E-15
vt -14.60359 31.49606
vt 1.144444 39.37008
vt 14.60359 31.49606
vt -1.144444 39.37008
vt 15.74803 39.37008
vt -15.74803 33.46457
vt -15.74803 39.37008
vt 15.74803 33.46457
vt -16.36427 30.61572
vt -16.89248 31.67213
vt 1.144444 39.37008
vt 1.144444 40.69059
vt 17.71654 -0.9448818
vt -17.71654 -0.9448819
vt 17.71654 19.22101
vt -17.71654 19.22101
vt 16.36427 30.61572
vt -1.144444 39.37008
vt 16.89248 31.67213
vt -1.144444 40.69059
vt -17.71654 39.37008
vt -17.71654 40.69059
vt 17.71654 40.69059
vt 17.71654 39.37008
vt -15.74803 1.023622
vt 15.74803 1.023622
vt 17.71654 18.63046
vt 15.74803 18.63046
vt -17.71654 18.63046
vt -15.74803 18.63046
vt 17.71654 34.70186
vt -17.71654 34.70186
vt 17.71654 35.88296
vt -17.71654 35.88296

usemtl border

f 3/3/1 2/2/1 1/1/1
f 2/2/1 3/3/1 4/4/1
f 2/2/1 4/4/1 5/5/1
f 5/5/1 4/4/1 6/6/1
f 5/5/1 6/6/1 7/7/1
f 6/6/1 4/4/1 8/8/1
f 8/8/1 4/4/1 9/9/1
f 10/10/1 1/1/1 2/2/1
f 1/1/1 10/10/1 11/11/1
f 11/11/1 10/10/1 7/7/1
f 11/11/1 9/9/1 4/4/1
f 11/11/1 7/7/1 12/12/1
f 12/12/1 7/7/1 6/6/1
f 11/11/1 12/12/1 9/9/1
f 4/15/2 13/14/2 11/13/2
f 13/14/2 4/15/2 14/16/2
f 16/19/3 1/18/3 15/17/3
f 1/18/3 16/19/3 3/20/3
f 4/23/4 16/22/4 14/21/4
f 16/22/4 4/23/4 3/24/4
f 18/26/1 16/3/1 17/25/1
f 16/3/1 18/26/1 19/27/1
f 16/3/1 19/27/1 14/4/1
f 14/4/1 19/27/1 13/11/1
f 15/1/1 17/25/1 16/3/1
f 17/25/1 15/1/1 20/28/1
f 20/28/1 15/1/1 13/11/1
f 20/28/1 13/11/1 19/27/1
f 1/31/5 13/30/5 15/29/5
f 13/30/5 1/31/5 11/32/5
f 23/15/2 22/14/2 21/13/2
f 22/14/2 23/15/2 24/16/2
f 27/19/3 26/18/3 25/17/3
f 26/18/3 27/19/3 28/20/3
f 28/35/1 29/34/1 26/33/1
f 29/34/1 28/35/1 23/36/1
f 29/34/1 23/36/1 30/37/1
f 30/37/1 23/36/1 31/38/1
f 30/37/1 31/38/1 32/39/1
f 31/38/1 23/36/1 33/40/1
f 33/40/1 23/36/1 34/41/1
f 35/42/1 26/33/1 29/34/1
f 26/33/1 35/42/1 21/43/1
f 21/43/1 35/42/1 32/39/1
f 21/43/1 34/41/1 23/36/1
f 21/43/1 32/39/1 36/44/1
f 36/44/1 32/39/1 31/38/1
f 21/43/1 36/44/1 34/41/1
f 26/47/5 22/46/5 25/45/5
f 22/46/5 26/47/5 21/48/5
f 38/50/1 27/35/1 37/49/1
f 27/35/1 38/50/1 39/51/1
f 27/35/1 39/51/1 24/36/1
f 24/36/1 39/51/1 22/43/1
f 25/33/1 37/49/1 27/35/1
f 37/49/1 25/33/1 40/52/1
f 40/52/1 25/33/1 22/43/1
f 40/52/1 22/43/1 39/51/1
f 23/55/4 27/54/4 24/53/4
f 27/54/4 23/55/4 28/56/4
f 43/30/4 42/58/4 41/57/4
f 42/58/4 43/30/4 44/59/4
f 43/62/2 46/61/2 45/60/2
f 46/61/2 43/62/2 41/63/2
f 48/66/5 46/65/5 47/64/5
f 46/65/5 48/66/5 45/21/5
f 51/69/4 50/68/4 49/67/4
f 50/68/4 51/69/4 52/70/4
f 55/73/1 54/72/1 53/71/1
f 54/72/1 55/73/1 56/74/1
f 57/77/1 49/76/1 50/75/1
f 49/76/1 57/77/1 58/78/1
f 61/23/4 60/80/4 59/79/4
f 60/80/4 61/23/4 62/81/4
f 65/84/3 64/83/3 63/82/3
f 64/83/3 65/84/3 66/85/3
f 64/87/4 67/80/4 63/86/4
f 67/80/4 64/87/4 57/66/4
f 57/66/4 64/87/4 58/67/4
f 70/90/5 69/89/5 68/88/5
f 69/89/5 70/90/5 71/32/5
f 61/93/2 69/92/2 71/91/2
f 69/92/2 61/93/2 59/94/2
f 65/96/1 60/95/1 72/72/1
f 60/95/1 65/96/1 59/97/1
f 59/97/1 65/96/1 69/98/1
f 63/99/1 69/98/1 65/96/1
f 67/77/1 69/98/1 63/99/1
f 69/98/1 67/77/1 68/100/1
f 54/103/5 65/102/5 72/101/5
f 65/102/5 54/103/5 66/104/5
f 66/104/5 54/103/5 56/69/5
f 75/62/2 74/61/2 73/60/2
f 74/61/2 75/62/2 76/63/2
f 79/107/3 78/106/3 77/105/3
f 78/106/3 79/107/3 80/108/3
f 77/111/6 81/110/6 79/109/6
f 81/110/6 77/111/6 74/112/6
f 81/110/6 74/112/6 82/113/6
f 82/113/6 74/112/6 83/114/6
f 82/113/6 83/114/6 84/115/6
f 83/114/6 74/112/6 85/116/6
f 85/116/6 74/112/6 86/117/6
f 87/118/6 79/109/6 81/110/6
f 79/109/6 87/118/6 76/119/6
f 76/119/6 87/118/6 84/115/6
f 76/119/6 86/117/6 74/112/6
f 76/119/6 84/115/6 88/120/6
f 88/120/6 84/115/6 83/114/6
f 76/119/6 88/120/6 86/117/6
f 75/46/4 79/122/4 76/121/4
f 79/122/4 75/46/4 80/45/4
f 90/124/6 78/111/6 89/123/6
f 78/111/6 90/124/6 91/125/6
f 78/111/6 91/125/6 73/112/6
f 73/112/6 91/125/6 75/119/6
f 80/109/6 89/123/6 78/111/6
f 89/123/6 80/109/6 92/126/6
f 92/126/6 80/109/6 75/119/6
f 92/126/6 75/119/6 91/125/6
f 78/54/5 74/128/5 77/127/5
f 74/128/5 78/54/5 73/53/5
f 95/131/4 94/130/4 93/129/4
f 94/130/4 95/131/4 96/132/4
f 99/93/2 98/133/2 97/91/2
f 98/133/2 99/93/2 100/134/2
f 103/137/3 102/136/3 101/135/3
f 102/136/3 103/137/3 104/138/3
f 106/141/1 94/140/1 105/139/1
f 94/140/1 106/141/1 93/142/1
f 102/47/5 98/46/5 101/45/5
f 98/46/5 102/47/5 97/48/5
f 104/145/1 107/144/1 102/143/1
f 107/144/1 104/145/1 99/146/1
f 107/144/1 99/146/1 108/147/1
f 108/147/1 99/146/1 109/148/1
f 108/147/1 109/148/1 110/149/1
f 109/148/1 99/146/1 111/150/1
f 111/150/1 99/146/1 112/151/1
f 113/152/1 102/143/1 107/144/1
f 102/143/1 113/152/1 97/153/1
f 97/153/1 113/152/1 110/149/1
f 97/153/1 112/151/1 99/146/1
f 97/153/1 110/149/1 114/154/1
f 114/154/1 110/149/1 109/148/1
f 97/153/1 114/154/1 112/151/1
f 116/156/1 103/145/1 115/155/1
f 103/145/1 116/156/1 117/157/1
f 103/145/1 117/157/1 100/146/1
f 100/146/1 117/157/1 98/153/1
f 101/143/1 115/155/1 103/145/1
f 115/155/1 101/143/1 118/158/1
f 118/158/1 101/143/1 98/153/1
f 118/158/1 98/153/1 117/157/1
f 99/55/4 103/54/4 100/53/4
f 103/54/4 99/55/4 104/56/4
f 51/161/6 48/160/6 52/159/6
f 48/160/6 51/161/6 119/162/6
f 48/160/6 119/162/6 45/163/6
f 45/163/6 119/162/6 120/164/6
f 45/163/6 120/164/6 43/165/6
f 121/166/6 43/165/6 120/164/6
f 122/167/6 43/165/6 121/166/6
f 43/165/6 122/167/6 44/168/6
f 123/169/6 44/168/6 122/167/6
f 44/168/6 123/169/6 124/170/6
f 124/68/5 55/69/5 53/70/5
f 55/69/5 124/68/5 123/67/5
f 127/173/2 126/172/2 125/171/2
f 126/172/2 127/173/2 128/174/2
f 131/177/3 130/176/3 129/175/3
f 130/176/3 131/177/3 132/178/3
f 129/181/5 133/180/5 125/179/5
f 133/180/5 129/181/5 130/182/5
f 125/179/5 133/180/5 134/183/5
f 133/180/5 130/182/5 135/184/5
f 135/184/5 130/182/5 136/185/5
f 137/186/5 125/179/5 134/183/5
f 125/179/5 137/186/5 127/187/5
f 127/187/5 136/185/5 130/182/5
f 127/187/5 137/186/5 138/188/5
f 127/187/5 138/188/5 136/185/5
f 134/183/5 139/189/5 137/186/5
f 139/189/5 134/183/5 140/190/5
f 139/189/5 140/190/5 136/185/5
f 136/185/5 140/190/5 135/184/5
f 52/193/2 57/192/2 50/191/2
f 57/192/2 52/193/2 47/61/2
f 47/61/2 52/193/2 48/60/2
f 57/192/2 47/61/2 42/63/2
f 42/63/2 124/194/2 57/192/2
f 124/194/2 42/63/2 44/62/2
f 57/192/2 124/194/2 67/195/2
f 67/195/2 124/194/2 70/91/2
f 70/91/2 124/194/2 62/93/2
f 62/93/2 124/194/2 60/94/2
f 60/94/2 124/194/2 54/196/2
f 54/196/2 124/194/2 53/197/2
f 72/198/2 60/94/2 54/196/2
f 68/92/2 67/195/2 70/91/2
f 125/173/6 131/172/6 129/171/6
f 131/172/6 125/173/6 126/174/6
f 142/200/5 131/181/5 141/199/5
f 131/181/5 142/200/5 143/201/5
f 131/181/5 143/201/5 132/182/5
f 132/182/5 143/201/5 128/187/5
f 126/179/5 141/199/5 131/181/5
f 141/199/5 126/179/5 144/202/5
f 144/202/5 126/179/5 128/187/5
f 144/202/5 128/187/5 143/201/5
f 128/178/1 130/175/1 132/177/1
f 130/175/1 128/178/1 127/176/1
f 147/205/3 146/204/3 145/203/3
f 146/204/3 147/205/3 148/206/3
f 95/207/6 149/194/6 96/193/6
f 149/194/6 95/207/6 150/208/6
f 153/211/2 152/210/2 151/209/2
f 152/210/2 153/211/2 154/212/2
f 145/215/6 155/214/6 147/213/6
f 155/214/6 145/215/6 152/216/6
f 155/214/6 152/216/6 156/217/6
f 156/217/6 152/216/6 157/218/6
f 156/217/6 157/218/6 158/219/6
f 157/218/6 152/216/6 159/220/6
f 159/220/6 152/216/6 160/221/6
f 161/222/6 147/213/6 155/214/6
f 147/213/6 161/222/6 154/223/6
f 154/223/6 161/222/6 158/219/6
f 154/223/6 160/221/6 152/216/6
f 154/223/6 158/219/6 162/224/6
f 162/224/6 158/219/6 157/218/6
f 154/223/6 162/224/6 160/221/6
f 153/46/4 147/122/4 154/121/4
f 147/122/4 153/46/4 148/45/4
f 164/226/6 146/215/6 163/225/6
f 146/215/6 164/226/6 165/227/6
f 146/215/6 165/227/6 151/216/6
f 151/216/6 165/227/6 153/223/6
f 148/213/6 163/225/6 146/215/6
f 163/225/6 148/213/6 166/228/6
f 166/228/6 148/213/6 153/223/6
f 166/228/6 153/223/6 165/227/6
f 149/130/5 106/131/5 105/132/5
f 106/131/5 149/130/5 150/129/5
f 146/54/5 152/128/5 145/127/5
f 152/128/5 146/54/5 151/53/5
f 169/231/3 168/230/3 167/229/3
f 168/230/3 169/231/3 170/232/3
f 173/235/1 172/234/1 171/233/1
f 172/234/1 173/235/1 174/236/1
f 176/239/4 169/238/4 175/237/4
f 169/238/4 176/239/4 170/240/4
f 176/243/1 168/242/1 170/241/1
f 168/242/1 176/243/1 177/244/1
f 178/247/6 169/246/6 167/245/6
f 169/246/6 178/247/6 175/248/6
f 173/250/3 178/229/3 174/249/3
f 178/229/3 173/250/3 175/231/3
f 175/231/3 173/250/3 176/232/3
f 179/139/3 176/232/3 173/250/3
f 180/251/3 176/232/3 179/139/3
f 176/232/3 180/251/3 177/230/3
f 180/254/6 182/253/6 181/252/6
f 182/253/6 180/254/6 179/255/6
f 182/258/5 173/257/5 171/256/5
f 173/257/5 182/258/5 179/259/5

usemtl window

f 8/8/1 12/12/1 6/6/1
f 12/12/1 8/8/1 9/9/1
f 5/5/1 10/10/1 2/2/1
f 10/10/1 5/5/1 7/7/1
f 33/40/1 36/44/1 31/38/1
f 36/44/1 33/40/1 34/41/1
f 30/37/1 35/42/1 29/34/1
f 35/42/1 30/37/1 32/39/1
f 185/262/1 184/261/1 183/260/1
f 184/261/1 185/262/1 186/263/1
f 189/266/1 188/265/1 187/264/1
f 188/265/1 189/266/1 190/267/1
f 85/116/6 88/120/6 83/114/6
f 88/120/6 85/116/6 86/117/6
f 82/113/6 87/118/6 81/110/6
f 87/118/6 82/113/6 84/115/6
f 108/147/1 113/152/1 107/144/1
f 113/152/1 108/147/1 110/149/1
f 111/150/1 114/154/1 109/148/1
f 114/154/1 111/150/1 112/151/1
f 139/189/5 138/188/5 137/186/5
f 138/188/5 139/189/5 136/185/5
f 133/180/5 140/190/5 134/183/5
f 140/190/5 133/180/5 135/184/5
f 159/220/6 162/224/6 157/218/6
f 162/224/6 159/220/6 160/221/6
f 156/217/6 161/222/6 155/214/6
f 161/222/6 156/217/6 158/219/6

usemtl _defaultMat

f 105/28/1 56/11/1 55/27/1
f 56/28/1 105/11/1 66/27/1
f 66/28/1 105/11/1 64/27/1
f 64/28/1 105/11/1 19/27/1
f 19/28/1 105/11/1 20/27/1
f 49/28/1 17/11/1 94/27/1
f 17/28/1 49/11/1 18/27/1
f 94/28/1 17/11/1 20/27/1
f 94/28/1 20/11/1 105/27/1
f 58/28/1 18/11/1 49/27/1
f 18/28/1 58/11/1 64/27/1
f 18/28/1 64/11/1 19/27/1
f 96/268/4 49/163/4 94/165/4
f 49/268/4 96/163/4 51/165/4
f 96/154/6 119/150/6 51/151/6
f 119/154/6 96/150/6 120/151/6
f 120/154/6 96/150/6 121/151/6
f 121/154/6 123/150/6 122/151/6
f 123/154/6 121/150/6 149/151/6
f 149/154/6 121/150/6 96/151/6
f 55/92/5 142/195/5 105/91/5
f 142/92/5 55/195/5 123/91/5
f 142/92/5 123/195/5 143/91/5
f 143/92/5 123/195/5 144/91/5
f 105/92/5 141/195/5 149/91/5
f 141/92/5 105/195/5 142/91/5
f 149/92/5 141/195/5 144/91/5
f 149/92/5 144/195/5 123/91/5

usemtl door

f 46/163/6 42/268/6 47/269/6
f 42/268/6 46/163/6 41/165/6
f 62/95/1 183/260/1 70/100/1
f 183/260/1 62/95/1 61/97/1
f 183/260/1 61/97/1 185/262/1
f 185/262/1 61/97/1 187/264/1
f 185/262/1 187/264/1 186/263/1
f 187/264/1 61/97/1 189/266/1
f 189/266/1 61/97/1 190/267/1
f 184/261/1 70/100/1 183/260/1
f 70/100/1 184/261/1 71/98/1
f 71/98/1 184/261/1 186/263/1
f 71/98/1 190/267/1 61/97/1
f 71/98/1 186/263/1 188/265/1
f 188/265/1 186/263/1 187/264/1
f 71/98/1 188/265/1 190/267/1
f 192/256/4 93/129/4 191/258/4
f 93/129/4 192/256/4 95/131/4
f 106/141/1 116/156/1 93/142/1
f 116/156/1 106/141/1 171/233/1
f 116/156/1 171/233/1 117/157/1
f 117/157/1 171/233/1 118/158/1
f 118/158/1 171/233/1 39/51/1
f 39/51/1 171/233/1 40/52/1
f 37/49/1 93/142/1 116/156/1
f 93/142/1 37/49/1 191/270/1
f 191/270/1 37/49/1 40/52/1
f 191/270/1 40/52/1 171/233/1
f 37/49/1 116/156/1 115/155/1
f 37/49/1 115/155/1 38/50/1
f 118/158/1 38/50/1 115/155/1
f 38/50/1 118/158/1 39/51/1
f 191/270/1 171/233/1 172/234/1
f 191/270/1 172/234/1 174/236/1
f 191/270/1 174/236/1 193/271/1
f 95/207/6 90/124/6 150/208/6
f 90/124/6 95/207/6 192/272/6
f 90/124/6 192/272/6 91/125/6
f 91/125/6 192/272/6 92/126/6
f 92/126/6 192/272/6 165/227/6
f 165/227/6 192/272/6 166/228/6
f 163/225/6 150/208/6 90/124/6
f 150/208/6 163/225/6 182/253/6
f 182/253/6 163/225/6 166/228/6
f 182/253/6 166/228/6 192/272/6
f 163/225/6 90/124/6 89/123/6
f 163/225/6 89/123/6 164/226/6
f 92/126/6 164/226/6 89/123/6
f 164/226/6 92/126/6 165/227/6
f 182/253/6 192/272/6 181/252/6
f 194/273/6 181/252/6 192/272/6
f 181/252/6 194/273/6 180/254/6
f 150/129/5 171/256/5 106/131/5
f 171/256/5 150/129/5 182/258/5
f 168/238/5 178/239/5 167/240/5
f 177/237/5 178/239/5 168/238/5
f 194/274/5 178/239/5 177/237/5
f 194/274/5 174/275/5 178/239/5
f 174/275/5 194/274/5 193/276/5
f 194/274/5 177/237/5 180/277/5

usemtl roof

f 197/280/1 196/279/1 195/278/1
f 196/279/1 197/280/1 198/281/1
f 198/284/7 199/283/7 196/282/7
f 199/283/7 198/284/7 200/285/7
f 199/288/6 202/287/6 201/286/6
f 202/287/6 199/288/6 200/289/6
f 193/276/5 198/291/5 197/290/5
f 198/291/5 193/276/5 200/292/5
f 200/292/5 193/276/5 194/274/5
f 200/292/5 194/274/5 202/293/5
f 201/282/8 192/295/8 191/294/8
f 192/295/8 201/282/8 202/296/8
f 192/295/8 202/296/8 194/297/8
f 191/294/8 195/283/8 201/282/8
f 195/283/8 191/294/8 197/298/8
f 197/298/8 191/294/8 193/299/8
f 196/302/9 201/301/9 195/300/9
f 201/301/9 196/302/9 199/303/9

