# Created by Kenney (www.kenney.nl)

mtllib road_sideEntry.mtl

g road_sideEntry

v 0.5 0.01 -0.245
v 0.5 0.01 -0.145
v 0.4900097 0.01 -0.2457042
v 0.4784017 0.01 -0.1465223
v 0.4774286 0.01 -0.2477687
v 0.4568417 0.01 -0.1500603
v 0.4644768 0.01 -0.2511127
v 0.4510497 0.01 -0.2558526
v 0.4353508 0.01 -0.155609
v 0.4370921 0.01 -0.2621176
v 0.4225956 0.01 -0.2700331
v 0.4139594 0.01 -0.1631604
v 0.4075912 0.01 -0.2797083
v 0.409861 0.01 -0.165
v 0.3926977 0.01 -0.1727039
v 0.3921377 0.01 -0.2912298
v 0.375 0.01 -0.1823674
v 0.3763123 0.01 -0.3046596
v 0.3602013 0.01 -0.3200353
v 0.3715961 0.01 -0.184226
v 0.3506843 0.01 -0.1977103
v 0.3438938 0.01 -0.3373739
v 0.3299921 0.01 -0.2131377
v 0.3273308 0.01 -0.3568463
v 0.3095487 0.01 -0.2304863
v 0.3077573 0.01 -0.3819034
v 0.2893833 0.01 -0.2497315
v 0.2846432 0.01 -0.4086192
v 0.2695243 0.01 -0.2708461
v 0.2606498 0.01 -0.4334784
v 0.25 0.01 -0.2938
v 0.2372648 0.01 -0.4549999
v 0.2306848 0.01 -0.3185264
v 0.2357362 0.01 -0.4564068
v 0.2098616 0.01 -0.477313
v 0.2109828 0.01 -0.3412983
v 0.1909261 0.01 -0.3620788
v 0.1829927 0.01 -0.4960825
v 0.1705474 0.01 -0.3808337
v 0.1551141 0.01 -0.5125756
v 0.14988 0.01 -0.3975326
v 0.1262417 0.01 -0.5266274
v 0.1289575 0.01 -0.4121482
v 0.125 0.01 -0.4144895
v 0.09643739 0.01 -0.5380551
v 0.1078141 0.01 -0.4246566
v 0.08648425 0.01 -0.4350376
v 0.06582282 0.01 -0.5466712
v 0.06500281 0.01 -0.4432741
v 0.03458502 0.01 -0.5523062
v 0.04340478 0.01 -0.4493527
v 0.02172538 0.01 -0.4532635
v 0.007948087 0.01 -0.5544354
v -1.010676E-14 0.01 -0.4549999
v -1.010676E-14 0.01 -0.5550001
v -0.5 0.01 -0.5550001
v -0.5 0.01 -0.4549999
v 0.5 0.01 0.455
v 0.5 0.01 0.555
v -0.5 0.01 0.455
v -0.5 0.01 0.555
v 0.5 0.02 0.555
v 0.5 0.02 0.655
v 0.5 9.321266E-14 0.655
v 0.5 0.01 0.165
v 0.5 0.01 0.145
v 0.5 1.222261E-13 -0.3451514
v 0.5 0.02 -0.245
v 0.5 0.02 -0.3451514
v -0.5 0.01 0.165
v -0.5 0.02 -0.655
v -0.5 0.02 -0.5550001
v -0.5 9.311114E-14 -0.655
v -0.5 9.321266E-14 0.655
v -0.5 0.01 0.145
v -0.5 0.02 0.555
v -0.5 0.02 0.655
v 0.4430759 1.777345E-13 -0.3788328
v 0.4430759 0.02 -0.3788328
v 0.4310194 1.81318E-13 -0.3903391
v 0.4310194 0.02 -0.3903391
v 0.4542834 1.750758E-13 -0.3693219
v 0.4542834 0.02 -0.3693219
v 0.4182634 0.02 -0.4039016
v 0.4182634 1.841095E-13 -0.4039016
v 0.4046615 0.02 -0.4198928
v 0.4046615 1.881192E-13 -0.4198928
v 0.4980154 1.541166E-13 -0.3454771
v 0.4936028 1.580237E-13 -0.3466164
v 0.4881401 0 -0.3485448
v 0.4814864 1.620602E-13 -0.3515314
v 0.4735953 1.677308E-13 -0.3558402
v 0.4644981 1.715801E-13 -0.3617063
v 0.3848297 1.938817E-13 -0.4452806
v 0.3583035 2.031766E-13 -0.4759401
v 0.3303735 2.105541E-13 -0.5048778
v 0.3048157 2.205674E-13 -0.5283992
v 0.3009249 2.202817E-13 -0.53198
v 0.2698431 2.300528E-13 -0.5570934
v 0.2370279 2.378335E-13 -0.5800169
v 0.2265822 2.415417E-13 -0.5861965
v 0.2024142 2.479422E-13 -0.6004944
v 0.1659991 2.57785E-13 -0.6182172
v 0.127872 2.675449E-13 -0.632836
v 0.08824086 2.771582E-13 -0.6439898
v 0.04744465 2.865439E-13 -0.6513491
v 0.01545647 3.051419E-13 -0.6539059
v 5.505264E-05 5.238569E-14 -0.655
v 0.3583035 0.02 -0.4759401
v 0.3848297 0.02 -0.4452806
v 0.3009249 0.02 -0.53198
v 0.3303735 0.02 -0.5048778
v 0.3048157 0.02 -0.5283992
v 0.2698431 0.02 -0.5570934
v 0.2370279 0.02 -0.5800169
v 0.4980154 0.02 -0.3454771
v 0.4900097 0.02 -0.2457042
v 0.4936028 0.02 -0.3466164
v 0.4881401 0.02 -0.3485448
v 0.4774286 0.02 -0.2477687
v 0.4814864 0.02 -0.3515314
v 0.4735953 0.02 -0.3558402
v 0.4644768 0.02 -0.2511127
v 0.4644981 0.02 -0.3617063
v 0.4510497 0.02 -0.2558526
v 0.4370921 0.02 -0.2621176
v 0.4225956 0.02 -0.2700331
v 0.4075912 0.02 -0.2797083
v 0.3921377 0.02 -0.2912298
v 0.3763123 0.02 -0.3046596
v 0.3602013 0.02 -0.3200353
v 0.3438938 0.02 -0.3373739
v 0.3273308 0.02 -0.3568463
v 0.3077573 0.02 -0.3819034
v 0.2846432 0.02 -0.4086192
v 0.2606498 0.02 -0.4334784
v 0.2372648 0.02 -0.4549999
v 0.2357362 0.02 -0.4564068
v 0.2265822 0.02 -0.5861965
v 0.2098616 0.02 -0.477313
v 0.2024142 0.02 -0.6004944
v 0.1829927 0.02 -0.4960825
v 0.1659991 0.02 -0.6182172
v 0.1551141 0.02 -0.5125756
v 0.127872 0.02 -0.632836
v 0.1262417 0.02 -0.5266274
v 0.08824086 0.02 -0.6439898
v 0.09643739 0.02 -0.5380551
v 0.06582282 0.02 -0.5466712
v 0.04744465 0.02 -0.6513491
v 0.03458502 0.02 -0.5523062
v 0.01545647 0.02 -0.6539059
v 0.007948087 0.02 -0.5544354
v 5.505264E-05 0.02 -0.655
v 1.588205E-14 0.02 -0.5550001

vn 0 1 0
vn 1 0 0
vn -1 0 0
vn 0.6690073 0 -0.7432558
vn 0.7096789 0 -0.7045254
vn 0.6226888 0 -0.7824696
vn 0.7453079 0 -0.6667204
vn 0.7750577 0 -0.6318905
vn 0 -1 0
vn 0 0 -1
vn 0.7381572 0 -0.6746288
vn 0.7723939 0 -0.6351438
vn 0.6531666 0 -0.7572142
vn 0.6771845 0 -0.7358133
vn 0.6986606 0 -0.7154533
vn 0.6009374 0 -0.799296
vn 0.5413064 0 -0.8408254
vn 0.5091712 0 -0.8606653
vn 0.4737825 0 -0.8806419
vn -0.3147939 0 0.94916
vn -0.2244784 0 0.974479
vn 0.3147939 0 -0.94916
vn 0.2244784 0 -0.974479
vn -0.1287584 0 0.991676
vn -0.4737825 0 0.8806419
vn -0.3981851 0 0.9173051
vn -0.6009374 0 0.799296
vn -0.6531666 0 0.7572142
vn -0.6986606 0 0.7154533
vn -0.6771845 0 0.7358133
vn -0.7381572 0 0.6746288
vn 0.3981851 0 -0.9173051
vn -0.7750577 0 0.6318905
vn -0.7453079 0 0.6667204
vn -0.7096789 0 0.7045254
vn -0.6690073 0 0.7432558
vn -0.5413064 0 0.8408254
vn -0.6226888 0 0.7824696
vn -0.5701517 0 0.8215395
vn -0.371507 0 0.9284302
vn -0.4447075 0 0.8956758
vn -0.7723939 0 0.6351438
vn -0.20617 0 0.9785162
vn -0.2917081 0 0.9565074
vn -0.1162449 0 0.9932206
vn -0.070308 0 0.9975253
vn -0.03545193 0 0.9993715
vn 0 0 1
vn -0.0752694 0 0.9971632
vn -0.5109214 0 0.8596274
vn 0.03545193 0 -0.9993715
vn 0.371507 0 -0.9284302
vn 0.4447075 0 -0.8956758
vn 0.5109214 0 -0.8596274
vn 0.1619343 0 -0.9868015
vn 0.20617 0 -0.9785162
vn 0.0752694 0 -0.9971632
vn 0.2917081 0 -0.9565074
vn 0.1287584 0 -0.991676
vn 0.5701517 0 -0.8215395

vt -19.68504 -9.645669
vt -19.68504 -5.708662
vt -19.29172 -9.673391
vt -18.83471 -5.768595
vt -18.7964 -9.754674
vt -17.9859 -5.907886
vt -18.28649 -9.886326
vt -17.75786 -10.07294
vt -17.1398 -6.126337
vt -17.20835 -10.31959
vt -16.63762 -10.63122
vt -16.29761 -6.423637
vt -16.0469 -11.01214
vt -16.13626 -6.496063
vt -15.46054 -6.799367
vt -15.43849 -11.46574
vt -14.76378 -7.179818
vt -14.81545 -11.99447
vt -14.18116 -12.59982
vt -14.62977 -7.252993
vt -13.80647 -7.783871
vt -13.53913 -13.28244
vt -12.99181 -8.391249
vt -12.88704 -14.04907
vt -12.18696 -9.074265
vt -12.11643 -15.03557
vt -11.39304 -9.831951
vt -11.20642 -16.08737
vt -10.61119 -10.66323
vt -10.2618 -17.06607
vt -9.84252 -11.56693
vt -9.341135 -17.91339
vt -9.08208 -12.54041
vt -9.280951 -17.96877
vt -8.262266 -18.79185
vt -8.306411 -13.43694
vt -7.516777 -14.25507
vt -7.204437 -19.53081
vt -6.714465 -14.99345
vt -6.106856 -20.18014
vt -5.900786 -15.65089
vt -4.970144 -20.73336
vt -5.077066 -16.22631
vt -4.92126 -16.31848
vt -3.796748 -21.18327
vt -4.244648 -16.71877
vt -3.404892 -17.12747
vt -2.591449 -21.52249
vt -2.559166 -17.45174
vt -1.361615 -21.74434
vt -1.708849 -17.69105
vt -0.8553301 -17.84502
vt -0.3129168 -21.82817
vt 3.446946E-12 -17.91339
vt 3.446946E-12 -21.85039
vt 19.68504 -21.85039
vt 19.68504 -17.91339
vt -19.68504 17.91339
vt -19.68504 21.85039
vt 19.68504 17.91339
vt 19.68504 21.85039
vt -21.85039 0.7874016
vt -21.85039 0.3937008
vt -25.7874 0.7874016
vt -25.7874 1.748367E-11
vt -17.91339 0.3937008
vt -6.496063 0.3937008
vt -5.708662 0.3937008
vt 5.708662 0.3937008
vt 9.645669 0.3937008
vt 13.58864 1.862593E-11
vt 9.645669 0.7874016
vt 13.58864 0.7874016
vt -19.68504 6.496063
vt 19.68504 6.496063
vt -25.7874 -6.806274E-12
vt 25.7874 -6.802277E-12
vt 6.496063 0.3937008
vt 17.91339 0.3937008
vt 21.85039 0.3937008
vt 21.85039 0.7874016
vt 25.7874 0.7874016
vt -19.68504 5.708662
vt 19.68504 5.708662
vt -2.322087 -4.645694E-12
vt -2.322087 0.7874016
vt -1.665946 -4.504614E-12
vt -1.665946 0.7874016
vt -19.68504 25.7874
vt 19.68504 25.7874
vt -4.228631 -4.945028E-12
vt -4.228631 0.7874016
vt -3.649926 -4.840353E-12
vt -3.649926 0.7874016
vt 0.3014164 0.7874016
vt 0.3014164 -4.123249E-12
vt -0.4316066 0.7874016
vt -0.4316066 -4.233152E-12
vt 2.269934 0.7874016
vt 2.269934 -3.637015E-12
vt 1.443421 0.7874016
vt 1.443421 -3.794876E-12
vt 19.68504 -13.58864
vt 19.6069 -13.60146
vt 19.43318 -13.64632
vt 19.21811 -13.72224
vt 18.95616 -13.83982
vt 18.64548 -14.00945
vt 18.28733 -14.2404
vt 17.88517 -14.54023
vt 17.44393 -14.91468
vt 16.96927 -15.36768
vt 16.46706 -15.90164
vt 15.93156 -16.53121
vt 15.15077 -17.53073
vt 14.10644 -18.7378
vt 13.00683 -19.87708
vt 12.00062 -20.80312
vt 11.84744 -20.94409
vt 10.62375 -21.93281
vt 9.331808 -22.83531
vt 8.920561 -23.0786
vt 7.969063 -23.64151
vt 6.535397 -24.33926
vt 5.03433 -24.9148
vt 3.47405 -25.35393
vt 1.8679 -25.64366
vt 0.6085226 -25.74433
vt 0.002167427 -25.7874
vt -19.68504 -25.7874
vt 19.68504 0.3937008
vt -19.68504 0.3937008
vt 19.68504 0.7874016
vt -19.68504 0.7874016
vt 4.940608 0.7874016
vt 4.940608 -3.137549E-12
vt 3.34447 0.7874016
vt 3.34447 -3.503487E-12
vt 5.465513 6.082598E-11
vt 5.257335 6.083723E-11
vt 5.465513 0.7874016
vt 3.889851 0.7874016
vt 5.257335 0.7874016
vt 3.889851 6.0443E-11
vt 5.269241 0.7874016
vt 5.269241 -3.293583E-12
vt 3.68586 0.7874016
vt 3.68586 -3.584038E-12
vt 4.488488 0.7874016
vt 4.488488 -3.078966E-12
vt 3.220158 0.7874016
vt 3.220158 -3.305836E-12
vt 3.851056 -3.90923E-12
vt 3.851056 0.7874016
vt 5.427 -3.602903E-12
vt 5.427 0.7874016
vt -19.68504 -13.58864
vt -19.6069 -13.60146
vt -19.43318 -13.64632
vt -19.21811 -13.72224
vt -18.95616 -13.83982
vt -18.64548 -14.00945
vt -18.28733 -14.2404
vt -17.88517 -14.54023
vt -17.44393 -14.91468
vt -16.96927 -15.36768
vt -16.46706 -15.90164
vt -15.93156 -16.53121
vt -15.15077 -17.53073
vt -14.10644 -18.7378
vt -13.00683 -19.87708
vt -12.00062 -20.80312
vt -11.84744 -20.94409
vt -10.62375 -21.93281
vt -9.331808 -22.83531
vt -8.920561 -23.0786
vt -7.969063 -23.64151
vt -6.535397 -24.33926
vt -5.03433 -24.9148
vt -3.47405 -25.35393
vt -1.8679 -25.64366
vt -0.6085226 -25.74433
vt -0.002167427 -25.7874
vt 1.362654E-12 -21.85039
vt 19.68504 -25.7874
vt 3.595521 6.48261E-11
vt 3.595521 0.7874016
vt 4.073346 6.49721E-11
vt 5.178883 6.522409E-11
vt 5.178883 0.7874016
vt 4.073346 0.7874016
vt -2.084125 0.3937008
vt -3.336249 0.3937008
vt -2.084125 0.7874016
vt -3.336249 0.7874016
vt 1.903756 -3.60989E-12
vt 1.903756 0.7874016
vt 3.524653 -3.231411E-12
vt 3.524653 0.7874016
vt -1.270495 0.3937008
vt -2.52018 0.3937008
vt -1.270495 0.7874016
vt -2.52018 0.7874016
vt -3.339993 0.3937008
vt -4.60418 0.3937008
vt -3.339993 0.7874016
vt -4.60418 0.7874016
vt -5.383515 0.3937008
vt -5.383515 0.7874016
vt -4.073867 0.3937008
vt -4.073867 0.7874016
vt -4.006109 0.3937008
vt -5.257335 0.3937008
vt -4.006109 0.7874016
vt -5.339127 0.7874016
vt -5.339127 0.3937008
vt -5.257335 0.7874016
vt -5.152983 0.7874016
vt -3.792774 0.7874016
vt -5.152983 0.3937008
vt -3.792774 0.3937008
vt 3.180299 -3.985586E-12
vt 3.180299 0.7874016
vt 4.774742 -3.598076E-12
vt 4.774742 0.7874016
vt -2.351812 0.7874016
vt -1.345358 0.7874016
vt -2.351812 0.3937008
vt -1.345358 0.3937008
vt -0.3994789 0.7874016
vt 0.537628 0.7874016
vt -0.3994789 0.3937008
vt 0.537628 0.3937008
vt 2.436719 0.3937008
vt 1.559925 0.3937008
vt 2.436719 0.7874016
vt 1.559925 0.7874016
vt -2.782012 0.3937008
vt -4.038704 0.3937008
vt -2.782012 0.7874016
vt -4.038704 0.7874016
vt -3.743918 0.3937008
vt -5.019189 0.3937008
vt -3.743918 0.7874016
vt -5.019189 0.7874016
vt 4.35245 0.3937008
vt 3.535295 0.3937008
vt 4.35245 0.7874016
vt 3.535295 0.7874016
vt 6.282657 0.3937008
vt 5.523767 0.3937008
vt 6.282657 0.7874016
vt 5.523767 0.7874016
vt 12.07579 0.3937008
vt 11.47346 0.3937008
vt 12.07579 0.7874016
vt 11.47346 0.7874016
vt -4.390089 0.7874016
vt -3.138281 0.7874016
vt -4.390089 0.3937008
vt -3.138281 0.3937008
vt 2.611449 -3.861693E-12
vt 2.611449 0.7874016
vt 4.219073 -3.477444E-12
vt 4.219073 0.7874016
vt 15.76104 0.3937008
vt 15.23441 0.3937008
vt 15.76104 0.7874016
vt 15.23441 0.7874016
vt -4.833694 0.7874016
vt -3.442869 0.7874016
vt -4.833694 0.3937008
vt -3.442869 0.3937008
vt 17.47065 0.3937008
vt 16.9687 0.3937008
vt 17.47065 0.7874016
vt 16.9687 0.7874016
vt 18.95816 0.3937008
vt 18.56386 0.3937008
vt 18.95816 0.7874016
vt 18.56386 0.7874016
vt -4.925482E-13 0.3937008
vt 5.306333E-13 0.7874016
vt -0.3752605 0.3937008
vt -1.427303 0.3937008
vt -0.3752605 0.7874016
vt -1.427303 0.7874016
vt -1.548303 0.3937008
vt -1.548303 0.7874016
vt -1.234598 0.3937008
vt -1.234598 0.7874016
vt 10.15794 0.3937008
vt 9.507673 0.3937008
vt 10.15794 0.7874016
vt 9.507673 0.7874016
vt -0.002167427 -1.153498E-11
vt -0.002167427 0.7874016
vt 19.68504 -9.931612E-12
vt -11.9136 -1.136168E-11
vt -11.9136 0.7874016
vt -11.62647 -4.981356E-12
vt -11.62647 0.7874016
vt 13.95263 0.3937008
vt 13.39204 0.3937008
vt 13.95263 0.7874016
vt 13.39204 0.7874016
vt -10.00493 -5.338876E-12
vt -10.00493 0.7874016
vt -9.650956 -5.115621E-12
vt -9.650956 0.7874016
vt -17.22476 -4.323961E-12
vt -17.22476 0.7874016
vt -17.14558 -3.068431E-12
vt -17.14558 0.7874016
vt 1.825115 5.420964E-11
vt 1.217232 6.416068E-11
vt 1.825115 0.7874016
vt 1.217232 0.7874016
vt -15.58416 -3.999198E-12
vt -15.58416 0.7874016
vt -15.40474 -3.845376E-12
vt -15.40474 0.7874016
vt -13.55423 -1.081247E-11
vt -13.7823 -4.591065E-12
vt -13.55423 0.7874016
vt -13.7823 0.7874016
vt 3.947481 -3.838907E-12
vt 3.947481 0.7874016
vt 5.52069 -3.454221E-12
vt 5.52069 0.7874016
vt 0.1812758 -2.613952E-12
vt 0.1812758 0.7874016
vt 1.44467 -1.881745E-12
vt 1.44467 0.7874016
vt -8.078127 -5.298055E-12
vt -8.078127 0.7874016
vt -7.651966 -5.14651E-12
vt -7.651966 0.7874016
vt 1.082091 -3.20043E-12
vt 1.082091 0.7874016
vt 2.714164 -2.830916E-12
vt 2.714164 0.7874016
vt -6.149212 -5.177344E-12
vt -6.149212 0.7874016
vt -5.647587 -5.039719E-12
vt -5.647587 0.7874016
vt 8.22141 0.3937008
vt 7.51852 0.3937008
vt 8.22141 0.7874016
vt 7.51852 0.7874016
vt -3.988231 0.3937008
vt -5.278602 0.3937008
vt -3.988231 0.7874016
vt -5.278602 0.7874016

usemtl asphaltEdge

f 3/3/1 2/2/1 1/1/1
f 2/2/1 3/3/1 4/4/1
f 4/4/1 3/3/1 5/5/1
f 4/4/1 5/5/1 6/6/1
f 6/6/1 5/5/1 7/7/1
f 6/6/1 7/7/1 8/8/1
f 6/6/1 8/8/1 9/9/1
f 9/9/1 8/8/1 10/10/1
f 9/9/1 10/10/1 11/11/1
f 9/9/1 11/11/1 12/12/1
f 12/12/1 11/11/1 13/13/1
f 12/12/1 13/13/1 14/14/1
f 14/14/1 13/13/1 15/15/1
f 15/15/1 13/13/1 16/16/1
f 15/15/1 16/16/1 17/17/1
f 17/17/1 16/16/1 18/18/1
f 17/17/1 18/18/1 19/19/1
f 17/17/1 19/19/1 20/20/1
f 20/20/1 19/19/1 21/21/1
f 21/21/1 19/19/1 22/22/1
f 21/21/1 22/22/1 23/23/1
f 23/23/1 22/22/1 24/24/1
f 23/23/1 24/24/1 25/25/1
f 25/25/1 24/24/1 26/26/1
f 25/25/1 26/26/1 27/27/1
f 27/27/1 26/26/1 28/28/1
f 27/27/1 28/28/1 29/29/1
f 29/29/1 28/28/1 30/30/1
f 29/29/1 30/30/1 31/31/1
f 31/31/1 30/30/1 32/32/1
f 31/31/1 32/32/1 33/33/1
f 33/33/1 32/32/1 34/34/1
f 33/33/1 34/34/1 35/35/1
f 33/33/1 35/35/1 36/36/1
f 36/36/1 35/35/1 37/37/1
f 37/37/1 35/35/1 38/38/1
f 37/37/1 38/38/1 39/39/1
f 39/39/1 38/38/1 40/40/1
f 39/39/1 40/40/1 41/41/1
f 41/41/1 40/40/1 42/42/1
f 41/41/1 42/42/1 43/43/1
f 43/43/1 42/42/1 44/44/1
f 44/44/1 42/42/1 45/45/1
f 44/44/1 45/45/1 46/46/1
f 46/46/1 45/45/1 47/47/1
f 47/47/1 45/45/1 48/48/1
f 47/47/1 48/48/1 49/49/1
f 49/49/1 48/48/1 50/50/1
f 49/49/1 50/50/1 51/51/1
f 51/51/1 50/50/1 52/52/1
f 52/52/1 50/50/1 53/53/1
f 52/52/1 53/53/1 54/54/1
f 54/54/1 53/53/1 55/55/1
f 54/54/1 55/55/1 56/56/1
f 54/54/1 56/56/1 57/57/1
f 60/60/1 59/59/1 58/58/1
f 59/59/1 60/60/1 61/61/1

usemtl asphalt

f 63/64/2 59/63/2 62/62/2
f 64/65/2 59/63/2 63/64/2
f 64/65/2 58/66/2 59/63/2
f 64/65/2 65/67/2 58/66/2
f 64/65/2 66/68/2 65/67/2
f 64/65/2 2/69/2 66/68/2
f 64/65/2 1/70/2 2/69/2
f 67/71/2 1/70/2 64/65/2
f 67/71/2 68/72/2 1/70/2
f 68/72/2 67/71/2 69/73/2
f 65/74/1 60/60/1 58/58/1
f 60/60/1 65/74/1 70/75/1
f 73/76/3 72/62/3 71/64/3
f 72/62/3 73/76/3 56/63/3
f 56/63/3 73/76/3 74/77/3
f 56/63/3 74/77/3 57/66/3
f 57/66/3 74/77/3 75/69/3
f 75/69/3 74/77/3 70/78/3
f 70/78/3 74/77/3 60/79/3
f 60/79/3 74/77/3 61/80/3
f 61/80/3 74/77/3 76/81/3
f 76/81/3 74/77/3 77/82/3
f 4/4/1 66/83/1 2/2/1
f 66/83/1 4/4/1 75/84/1
f 75/84/1 4/4/1 6/6/1
f 75/84/1 6/6/1 9/9/1
f 75/84/1 9/9/1 12/12/1
f 75/84/1 12/12/1 14/14/1
f 75/84/1 14/14/1 15/15/1
f 75/84/1 15/15/1 17/17/1
f 75/84/1 17/17/1 20/20/1
f 75/84/1 20/20/1 21/21/1
f 75/84/1 21/21/1 23/23/1
f 75/84/1 23/23/1 25/25/1
f 75/84/1 25/25/1 27/27/1
f 75/84/1 27/27/1 29/29/1
f 75/84/1 29/29/1 31/31/1
f 75/84/1 31/31/1 33/33/1
f 75/84/1 33/33/1 36/36/1
f 75/84/1 36/36/1 37/37/1
f 75/84/1 37/37/1 39/39/1
f 75/84/1 39/39/1 41/41/1
f 75/84/1 41/41/1 43/43/1
f 75/84/1 43/43/1 44/44/1
f 75/84/1 44/44/1 46/46/1
f 75/84/1 46/46/1 47/47/1
f 75/84/1 47/47/1 49/49/1
f 75/84/1 49/49/1 51/51/1
f 75/84/1 51/51/1 52/52/1
f 75/84/1 52/52/1 54/54/1
f 75/84/1 54/54/1 57/57/1

usemtl line

f 75/84/1 65/74/1 66/83/1
f 65/74/1 75/84/1 70/75/1

usemtl pavement

f 80/87/5 79/86/4 78/85/4
f 79/86/4 80/87/5 81/88/5
f 76/61/1 63/89/1 62/59/1
f 63/89/1 76/61/1 77/90/1
f 78/93/4 83/92/6 82/91/6
f 83/92/6 78/93/4 79/94/4
f 81/97/5 85/96/7 84/95/7
f 85/96/7 81/97/5 80/98/5
f 84/101/7 87/100/8 86/99/8
f 87/100/8 84/101/7 85/102/7
f 74/89/9 67/103/9 64/90/9
f 67/103/9 74/89/9 88/104/9
f 88/104/9 74/89/9 89/105/9
f 89/105/9 74/89/9 90/106/9
f 90/106/9 74/89/9 91/107/9
f 91/107/9 74/89/9 92/108/9
f 92/108/9 74/89/9 93/109/9
f 93/109/9 74/89/9 82/110/9
f 82/110/9 74/89/9 78/111/9
f 78/111/9 74/89/9 80/112/9
f 80/112/9 74/89/9 85/113/9
f 85/113/9 74/89/9 87/114/9
f 87/114/9 74/89/9 94/115/9
f 94/115/9 74/89/9 95/116/9
f 95/116/9 74/89/9 96/117/9
f 96/117/9 74/89/9 97/118/9
f 97/118/9 74/89/9 98/119/9
f 98/119/9 74/89/9 99/120/9
f 99/120/9 74/89/9 100/121/9
f 100/121/9 74/89/9 101/122/9
f 101/122/9 74/89/9 102/123/9
f 102/123/9 74/89/9 103/124/9
f 103/124/9 74/89/9 104/125/9
f 104/125/9 74/89/9 105/126/9
f 105/126/9 74/89/9 106/127/9
f 106/127/9 74/89/9 107/128/9
f 107/128/9 74/89/9 108/129/9
f 108/129/9 74/89/9 73/130/9
f 76/133/10 59/132/10 61/131/10
f 59/132/10 76/133/10 62/134/10
f 110/137/12 95/136/11 109/135/11
f 95/136/11 110/137/12 94/138/12
f 111/141/13 97/140/14 98/139/13
f 97/140/14 111/141/13 112/142/15
f 112/142/15 111/141/13 113/143/14
f 112/142/15 96/144/15 97/140/14
f 109/147/11 96/146/15 112/145/15
f 96/146/15 109/147/11 95/148/11
f 86/151/8 94/150/12 110/149/12
f 94/150/12 86/151/8 87/152/8
f 100/155/17 114/154/16 99/153/16
f 114/154/16 100/155/17 115/156/17
f 116/158/1 68/1/1 69/157/1
f 68/1/1 116/158/1 117/3/1
f 117/3/1 116/158/1 118/159/1
f 117/3/1 118/159/1 119/160/1
f 117/3/1 119/160/1 120/5/1
f 120/5/1 119/160/1 121/161/1
f 120/5/1 121/161/1 122/162/1
f 120/5/1 122/162/1 123/7/1
f 123/7/1 122/162/1 124/163/1
f 123/7/1 124/163/1 83/164/1
f 123/7/1 83/164/1 125/8/1
f 125/8/1 83/164/1 79/165/1
f 125/8/1 79/165/1 126/10/1
f 126/10/1 79/165/1 81/166/1
f 126/10/1 81/166/1 127/11/1
f 127/11/1 81/166/1 84/167/1
f 127/11/1 84/167/1 128/13/1
f 128/13/1 84/167/1 86/168/1
f 128/13/1 86/168/1 129/16/1
f 129/16/1 86/168/1 110/169/1
f 129/16/1 110/169/1 130/18/1
f 130/18/1 110/169/1 109/170/1
f 130/18/1 109/170/1 131/19/1
f 131/19/1 109/170/1 132/22/1
f 132/22/1 109/170/1 112/171/1
f 132/22/1 112/171/1 133/24/1
f 133/24/1 112/171/1 113/172/1
f 133/24/1 113/172/1 134/26/1
f 134/26/1 113/172/1 135/28/1
f 135/28/1 113/172/1 111/173/1
f 135/28/1 111/173/1 114/174/1
f 135/28/1 114/174/1 136/30/1
f 136/30/1 114/174/1 115/175/1
f 136/30/1 115/175/1 137/32/1
f 137/32/1 115/175/1 138/34/1
f 138/34/1 115/175/1 139/176/1
f 138/34/1 139/176/1 140/35/1
f 140/35/1 139/176/1 141/177/1
f 140/35/1 141/177/1 142/38/1
f 142/38/1 141/177/1 143/178/1
f 142/38/1 143/178/1 144/40/1
f 144/40/1 143/178/1 145/179/1
f 144/40/1 145/179/1 146/42/1
f 146/42/1 145/179/1 147/180/1
f 146/42/1 147/180/1 148/45/1
f 148/45/1 147/180/1 149/48/1
f 149/48/1 147/180/1 150/181/1
f 149/48/1 150/181/1 151/50/1
f 151/50/1 150/181/1 152/182/1
f 151/50/1 152/182/1 153/53/1
f 153/53/1 152/182/1 154/183/1
f 153/53/1 154/183/1 155/184/1
f 155/184/1 154/183/1 71/185/1
f 155/184/1 71/185/1 72/56/1
f 101/188/18 115/187/17 100/186/17
f 115/187/17 101/188/18 102/189/19
f 115/187/17 102/189/19 141/190/19
f 115/187/17 141/190/19 139/191/18
f 148/194/20 48/193/21 45/192/20
f 48/193/21 148/194/20 149/195/21
f 105/198/23 145/197/22 104/196/22
f 145/197/22 105/198/23 147/199/23
f 149/202/21 50/201/24 48/200/21
f 50/201/24 149/202/21 151/203/24
f 144/206/25 42/205/26 40/204/25
f 42/205/26 144/206/25 146/207/26
f 34/210/28 140/209/27 35/208/27
f 140/209/27 34/210/28 138/211/28
f 136/214/29 32/213/30 30/212/29
f 138/215/28 32/213/30 136/214/29
f 32/213/30 138/215/28 34/216/28
f 138/215/28 136/214/29 137/217/30
f 30/220/29 135/219/31 136/218/29
f 135/219/31 30/220/29 28/221/31
f 103/224/32 141/223/19 102/222/19
f 141/223/19 103/224/32 143/225/32
f 24/228/33 132/227/34 133/226/33
f 132/227/34 24/228/33 22/229/34
f 22/232/34 131/231/35 132/230/34
f 131/231/35 22/232/34 19/233/35
f 130/236/36 19/235/35 18/234/36
f 19/235/35 130/236/36 131/237/35
f 146/240/26 45/239/20 42/238/26
f 45/239/20 146/240/26 148/241/20
f 142/244/37 40/243/25 38/242/37
f 40/243/25 142/244/37 144/245/25
f 129/248/38 18/247/36 16/246/38
f 18/247/36 129/248/38 130/249/36
f 128/252/39 16/251/38 13/250/39
f 16/251/38 128/252/39 129/253/38
f 125/256/40 10/255/41 8/254/40
f 10/255/41 125/256/40 126/257/41
f 26/260/42 133/259/33 134/258/42
f 133/259/33 26/260/42 24/261/33
f 104/264/22 143/263/32 103/262/32
f 143/263/32 104/264/22 145/265/22
f 120/268/43 7/267/44 5/266/43
f 7/267/44 120/268/43 123/269/44
f 28/272/31 134/271/42 135/270/31
f 134/271/42 28/272/31 26/273/42
f 117/276/45 5/275/43 3/274/45
f 5/275/43 117/276/45 120/277/43
f 68/280/46 3/279/45 1/278/46
f 3/279/45 68/280/46 117/281/45
f 155/283/47 56/132/48 55/282/47
f 56/132/48 155/283/47 72/134/48
f 151/286/24 53/285/49 50/284/24
f 53/285/49 151/286/24 153/287/49
f 53/290/49 155/289/47 55/288/47
f 155/289/47 53/290/49 153/291/49
f 126/294/41 11/293/50 10/292/41
f 11/293/50 126/294/41 127/295/50
f 73/298/10 154/297/51 108/296/51
f 154/297/51 73/298/10 71/133/10
f 91/301/53 119/300/52 90/299/52
f 119/300/52 91/301/53 121/302/53
f 123/305/44 8/304/40 7/303/44
f 8/304/40 123/305/44 125/306/40
f 92/309/54 121/308/53 91/307/53
f 121/308/53 92/309/54 122/310/54
f 88/313/56 69/312/55 67/311/55
f 69/312/55 88/313/56 116/314/56
f 154/317/51 107/316/57 108/315/51
f 107/316/57 154/317/51 152/318/57
f 89/321/58 116/320/56 88/319/56
f 116/320/56 89/321/58 118/322/58
f 119/325/52 89/324/58 90/323/52
f 89/324/58 119/325/52 118/326/58
f 99/329/16 111/328/13 98/327/13
f 111/328/13 99/329/16 114/330/16
f 107/333/57 150/332/59 106/331/59
f 150/332/59 107/333/57 152/334/57
f 93/337/60 122/336/54 92/335/54
f 122/336/54 93/337/60 124/338/60
f 106/341/59 147/340/23 105/339/23
f 147/340/23 106/341/59 150/342/59
f 82/345/6 124/344/60 93/343/60
f 124/344/60 82/345/6 83/346/6
f 127/349/50 13/348/39 11/347/50
f 13/348/39 127/349/50 128/350/39
f 140/353/27 38/352/37 35/351/27
f 38/352/37 140/353/27 142/354/37

usemtl _defaultMat

f 63/129/48 74/89/48 64/130/48
f 74/129/48 63/89/48 77/130/48

