# Created by Kenney (www.kenney.nl)

mtllib tree_small.mtl

g tree_small

v 0.07014806 0.1261008 0.0405
v 0 0.1261008 0.081
v 0.1052221 0.2268 0.06075
v 0 0.2268 0.1215
v -0.07014806 0.1261008 0.0405
v -0.1052221 0.2268 0.06075
v 0 0.1261008 -0.081
v 0.07014806 0.1261008 -0.0405
v 0 0.2268 -0.1215
v 0.1052221 0.2268 -0.06075
v 0.03507403 0.567 -0.02025
v 0.03507403 0.567 0.02025
v 0 0.567 -0.0405
v 0 0.567 0.0405
v -0.03507403 0.567 -0.02025
v -0.03507403 0.567 0.02025
v 0.01701 0.1261008 0.01701
v -0.01701 0.1261008 0.01701
v -0.01701 0.1261008 -0.01701
v 0.01701 0.1261008 -0.01701
v -0.07014806 0.1261008 -0.0405
v -0.1052221 0.2268 -0.06075
v 0.0261225 0 0.0261225
v -0.0261225 0 0.0261225
v -0.0261225 0 -0.0261225
v 0.0261225 0 -0.0261225

vn 0.6508162 -0.3022433 0.3757489
vn 0 -0.3022433 0.7514977
vn 0.6998575 -0.05506926 0.4040629
vn 0 -0.05506926 0.8081259
vn -0.6508162 -0.3022433 0.3757489
vn -0.6998575 -0.05506926 0.4040629
vn 0 -0.3022433 -0.7514977
vn 0.6508162 -0.3022433 -0.3757489
vn 0 -0.05506926 -0.8081259
vn 0.6998575 -0.05506926 -0.4040629
vn 0 0.81 0
vn 0 -0.81 0
vn -0.6508162 -0.3022433 -0.3757489
vn -0.6998575 -0.05506926 -0.4040629
vn 0.6824046 0.1876126 0.3939866
vn 0 0.1876126 0.787973
vn -0.6824046 0.1876126 0.3939866
vn -0.6824046 0.1876126 -0.3939866
vn 0 0.1876126 -0.787973
vn 0.6824046 0.1876126 -0.3939866
vn 0 0.05838131 0.8078933
vn 0 0.05838131 -0.8078933
vn -0.8078933 0.05838131 0
vn 0.8078933 0.05838131 0

vt 1.968504 6.909569
vt -1.968504 6.909569
vt 2.952756 12.09245
vt -2.952756 12.09245
vt -1.704774 -0.984252
vt -1.704774 0.984252
vt 0 -1.968504
vt 0 1.968504
vt 1.704774 -0.984252
vt 1.704774 0.984252
vt 3.409549 1.968504
vt 3.409549 -1.968504
vt 0 3.937008
vt 0.8267717 0.8267717
vt -0.8267717 0.8267717
vt -3.409549 1.968504
vt -0.8267717 -0.8267717
vt 0.8267717 -0.8267717
vt 0 -3.937008
vt -3.409549 -1.968504
vt 2.952756 9.763666
vt -2.952756 9.763666
vt 0.984252 26.64696
vt -0.984252 26.64696
vt 1.269685 -0.0915134
vt -1.269685 -0.0915134
vt 0.8267717 6.053603
vt -0.8267717 6.053603
vt 1.269685 1.269685
vt 1.269685 -1.269685
vt -1.269685 1.269685
vt -1.269685 -1.269685

usemtl roof

f 3/3/3 2/2/2 1/1/1
f 2/2/2 3/3/3 4/4/4
f 4/3/4 5/2/5 2/1/2
f 5/2/5 4/3/4 6/4/6
f 9/3/9 8/2/8 7/1/7
f 8/2/8 9/3/9 10/4/10
f 3/4/3 8/1/8 10/3/10
f 8/1/8 3/4/3 1/2/1
f 13/7/11 12/6/11 11/5/11
f 12/6/11 13/7/11 14/8/11
f 14/8/11 13/7/11 15/9/11
f 14/8/11 15/9/11 16/10/11
f 2/13/12 8/12/12 1/11/12
f 8/12/12 2/13/12 17/14/12
f 17/14/12 2/13/12 18/15/12
f 18/15/12 2/13/12 5/16/12
f 18/15/12 5/16/12 19/17/12
f 20/18/12 8/12/12 17/14/12
f 8/12/12 20/18/12 7/19/12
f 7/19/12 20/18/12 19/17/12
f 7/19/12 19/17/12 21/20/12
f 21/20/12 19/17/12 5/16/12
f 22/3/14 7/2/7 21/1/13
f 7/2/7 22/3/14 9/4/9
f 21/2/13 6/3/6 22/4/14
f 6/3/6 21/2/13 5/1/5
f 12/23/15 4/22/4 3/21/3
f 4/22/4 12/23/15 14/24/16
f 14/23/16 6/22/6 4/21/4
f 6/22/6 14/23/16 16/24/17
f 15/23/18 9/22/9 22/21/14
f 9/22/9 15/23/18 13/24/19
f 13/23/19 10/22/10 9/21/9
f 10/22/10 13/23/19 11/24/20
f 11/23/20 3/22/3 10/21/10
f 3/22/3 11/23/20 12/24/15
f 6/21/6 15/24/18 22/22/14
f 15/24/18 6/21/6 16/23/17

usemtl wood

f 17/27/21 24/26/21 23/25/21
f 24/26/21 17/27/21 18/28/21
f 19/27/22 26/26/22 25/25/22
f 26/26/22 19/27/22 20/28/22
f 24/25/23 19/28/23 25/26/23
f 19/28/23 24/25/23 18/27/23
f 24/31/12 26/30/12 23/29/12
f 26/30/12 24/31/12 25/32/12
f 20/27/24 23/26/24 26/25/24
f 23/26/24 20/27/24 17/28/24

