# Created by Kenney (www.kenney.nl)

mtllib house_type09.mtl

g house_type09

v 0.55 0.1 -0.4
v 0.28 0.13 -0.4
v 0.25 0.1 -0.4
v 0.25 0.3 -0.4
v 0.28 0.27 -0.4
v 0.52 0.27 -0.4
v 0.52 0.13 -0.4
v 0.55 0.3 -0.4
v 0.6 0.05 -0.4
v 0.6 0 -0.4
v 0.6 0.05 0.4
v 0.6 0 0.4
v 0.28 0.27 -0.38
v 0.28 0.13 -0.38
v 0.52 0.27 -0.38
v 0.52 0.13 -0.38
v 0.3 0.15 -0.38
v 0.3 0.25 -0.38
v 0.39 0.25 -0.38
v 0.41 0.25 -0.38
v 0.5 0.25 -0.38
v 0.5 0.15 -0.38
v 0.39 0.15 -0.38
v 0.41 0.15 -0.38
v 0.1 0.3 -0.41
v 0.1 1.804779E-16 -0.41
v 0.1 0.3 -0.4
v 0.1 1.804779E-16 -0.4
v 0.1 0.05 -0.4
v -0.1 1.69198E-16 -0.41
v -0.1 0.3 -0.41
v -0.1 1.69198E-16 -0.4
v -0.1 0.3 -0.4
v -0.1 0.05 -0.4
v 0.07 1.804779E-16 -0.41
v 0.07 0.27 -0.41
v 0.07 1.804779E-16 -0.38
v 0.07 0.27 -0.38
v -0.07 0.27 -0.41
v -0.07 1.804779E-16 -0.41
v -0.07 0.27 -0.38
v -0.07 1.804779E-16 -0.38
v -0.6 0 -0.4
v -0.6 0.05 -0.4
v 0.52 0.27 0.38
v 0.28 0.27 0.38
v 0.52 0.27 0.4
v 0.28 0.27 0.4
v 0.52 0.13 0.38
v 0.52 0.13 0.4
v 0.28 0.13 0.38
v 0.28 0.13 0.4
v 0.5 0.15 0.38
v 0.5 0.25 0.38
v 0.41 0.25 0.38
v 0.39 0.25 0.38
v 0.3 0.25 0.38
v 0.3 0.15 0.38
v 0.41 0.15 0.38
v 0.39 0.15 0.38
v 0.25 0.1 0.4
v 0.55 0.1 0.4
v 0.55 0.3 0.4
v 0.25 0.3 0.4
v -0.07 0.54 -0.4
v -0.07 0.46 -0.4
v -0.07 0.54 -0.38
v -0.07 0.46 -0.38
v 0.07 0.54 -0.38
v 0.07 0.54 -0.4
v 0.07 0.46 -0.38
v -0.05 0.48 -0.38
v -0.05 0.52 -0.38
v 0.05 0.52 -0.38
v 0.05 0.48 -0.38
v 0.07 0.46 -0.4
v 0.1 0.43 -0.4
v -0.1 0.43 -0.4
v -0.1 0.57 -0.4
v 0.1 0.57 -0.4
v -0.07 0.27 0.38
v -0.07 1.804779E-16 0.38
v -0.07 0.27 0.4
v -0.07 1.804779E-16 0.4
v 0.07 1.804779E-16 0.38
v 0.07 0.27 0.38
v 0.07 1.804779E-16 0.4
v 0.07 0.27 0.4
v 0.07 0.54 0.4
v 0.07 0.54 0.38
v -0.07 0.54 0.4
v -0.07 0.54 0.38
v -0.07 0.46 0.38
v 0.05 0.48 0.38
v 0.07 0.46 0.38
v 0.05 0.52 0.38
v -0.05 0.52 0.38
v -0.05 0.48 0.38
v -0.1 0.43 0.4
v 0.07 0.46 0.4
v 0.1 0.43 0.4
v 0.1 0.57 0.4
v -0.07 0.46 0.4
v -0.1 0.57 0.4
v -0.28 0.27 -0.38
v -0.28 0.27 -0.4
v -0.52 0.27 -0.38
v -0.52 0.27 -0.4
v -0.28 0.13 -0.38
v -0.5 0.15 -0.38
v -0.52 0.13 -0.38
v -0.5 0.25 -0.38
v -0.41 0.25 -0.38
v -0.39 0.25 -0.38
v -0.3 0.25 -0.38
v -0.3 0.15 -0.38
v -0.41 0.15 -0.38
v -0.39 0.15 -0.38
v -0.25 0.1 -0.4
v -0.52 0.13 -0.4
v -0.55 0.1 -0.4
v -0.55 0.3 -0.4
v -0.28 0.13 -0.4
v -0.25 0.3 -0.4
v -0.6 0 0.4
v -0.52 0.27 0.38
v -0.52 0.13 0.38
v -0.52 0.27 0.4
v -0.52 0.13 0.4
v -0.6 0.05 0.4
v -0.55 0.1 0.4
v -0.28 0.13 0.4
v -0.25 0.1 0.4
v -0.25 0.3 0.4
v -0.28 0.27 0.4
v -0.55 0.3 0.4
v -0.3 0.15 0.38
v -0.28 0.13 0.38
v -0.28 0.27 0.38
v -0.3 0.25 0.38
v -0.39 0.25 0.38
v -0.41 0.25 0.38
v -0.5 0.25 0.38
v -0.5 0.15 0.38
v -0.39 0.15 0.38
v -0.41 0.15 0.38
v 0.1 0.05 0.4
v 0.1 0.3 0.4
v -0.1 0.3 0.4
v -0.1 0.05 0.4
v -0.02 0.18 -0.38
v 0.02 0.18 -0.38
v -0.02 0.22 -0.38
v 0.02 0.22 -0.38
v 0.65 0.4044721 -0.4581378
v 0.65 0.3776393 -0.4447213
v 0.65 0.633541 -4.484875E-14
v 0.65 0.6 -4.484875E-14
v 0.65 0.4044721 0.4581378
v 0.65 0.3776393 0.4447213
v 0.15 0.3776393 -0.4447213
v 0.15 0.4044721 -0.4581378
v 0.6 0.4 -0.4
v 0.2 0.4 -0.4
v 0.15 0.4 -0.4
v 0.6 0.6 -4.484875E-14
v 0.15 0.3776393 0.4447213
v 0.15 0.4044721 0.4581378
v 0.15 0.433541 -0.4
v 0.6 0.4 0.4
v 0.2 0.4 0.4
v 0.15 0.4 0.4
v 0.2 0.433541 -0.4
v 0.2 0.633541 5.333121E-14
v 0.25 0.5776393 -0.4447213
v 0.25 0.6044721 -0.4581378
v -0.25 0.5776393 -0.4447213
v -0.25 0.6044721 -0.4581378
v 0.25 0.833541 5.333121E-14
v -0.25 0.833541 5.080451E-14
v 0.25 0.8 5.333121E-14
v 0.25 0.6044721 0.4581378
v 0.25 0.5776393 0.4447213
v -0.25 0.8 5.080451E-14
v -0.25 0.5776393 0.4447213
v -0.25 0.6044721 0.4581378
v -0.2 0.8 5.333121E-14
v -0.2 0.6 -0.4
v 0.2 0.6 -0.4
v 0.2 0.8 5.333121E-14
v 0.15 0.433541 0.4
v 0.2 0.433541 0.4
v 0.2 0.6 0.4
v -0.2 0.6 0.4
v -0.15 0.3776393 -0.4447213
v -0.15 0.4044721 -0.4581378
v -0.65 0.3776393 -0.4447213
v -0.65 0.4044721 -0.4581378
v -0.65 0.633541 -8.708056E-14
v -0.65 0.6 -8.708056E-14
v -0.65 0.3776393 0.4447213
v -0.65 0.4044721 0.4581378
v -0.15 0.433541 -0.4
v -0.15 0.4 -0.4
v -0.6 0.6 -8.455387E-14
v -0.6 0.4 -0.4
v -0.2 0.4 -0.4
v -0.2 0.433541 -0.4
v -0.2 0.633541 -8.455387E-14
v -0.15 0.3776393 0.4447213
v -0.15 0.4044721 0.4581378
v -0.15 0.4 0.4
v -0.2 0.4 0.4
v -0.6 0.4 0.4
v -0.15 0.433541 0.4
v -0.2 0.433541 0.4

vn 0 0 -1
vn 1 0 0
vn 0 -1 0
vn 0 1 0
vn -1 0 0
vn 0 0 1
vn 0 -0.4472136 -0.8944272
vn 0 -0.8944272 0.4472136
vn 0 -0.4472136 0.8944272
vn 0 -0.8944272 -0.4472136
vn 0 0.8944272 -0.4472136
vn 0 0.8944272 0.4472136

vt -21.65354 3.937008
vt -11.02362 5.11811
vt -9.84252 3.937008
vt -9.84252 11.81102
vt -11.02362 10.62992
vt -20.47244 10.62992
vt -20.47244 5.11811
vt -21.65354 11.81102
vt 15.74803 1.968504
vt 15.74803 0
vt -15.74803 1.968504
vt -15.74803 0
vt 15.74803 10.62992
vt 15.74803 5.11811
vt 14.96063 10.62992
vt 14.96063 5.11811
vt 20.47244 -14.96063
vt 20.47244 -15.74803
vt 11.02362 -14.96063
vt 11.02362 -15.74803
vt -20.47244 -15.74803
vt -20.47244 -14.96063
vt -11.02362 -15.74803
vt -11.02362 -14.96063
vt -11.81102 5.905512
vt -11.81102 9.84252
vt -15.35433 9.84252
vt -16.14173 9.84252
vt -19.68504 9.84252
vt -19.68504 5.905512
vt -15.35433 5.905512
vt -16.14173 5.905512
vt -15.74803 5.11811
vt -15.74803 10.62992
vt -14.96063 5.11811
vt -14.96063 10.62992
vt 16.14173 11.81102
vt 16.14173 7.105427E-15
vt 15.74803 11.81102
vt 15.74803 7.105427E-15
vt -16.14173 6.661338E-15
vt -16.14173 11.81102
vt -15.74803 6.661338E-15
vt -15.74803 11.81102
vt -16.14173 7.105427E-15
vt -16.14173 10.62992
vt -14.96063 7.105427E-15
vt 16.14173 10.62992
vt 14.96063 7.105427E-15
vt 2.755906 -14.96063
vt 2.755906 -16.14173
vt -2.755906 -14.96063
vt -2.755906 -16.14173
vt -3.937008 -16.14173
vt -3.937008 -15.74803
vt 3.937008 -16.14173
vt 3.937008 -15.74803
vt -23.62205 0
vt -23.62205 1.968504
vt -3.937008 7.105427E-15
vt -3.937008 1.968504
vt 3.937008 6.661338E-15
vt 2.755906 7.105427E-15
vt 3.937008 11.81102
vt 2.755906 10.62992
vt -2.755906 10.62992
vt -3.937008 11.81102
vt -2.755906 7.105427E-15
vt 23.62205 0
vt 23.62205 1.968504
vt 3.937008 1.968504
vt 20.47244 14.96063
vt 11.02362 14.96063
vt 20.47244 15.74803
vt 11.02362 15.74803
vt -20.47244 14.96063
vt -20.47244 15.74803
vt -11.02362 14.96063
vt -11.02362 15.74803
vt 11.02362 5.11811
vt 19.68504 5.905512
vt 20.47244 5.11811
vt 20.47244 10.62992
vt 19.68504 9.84252
vt 16.14173 9.84252
vt 15.35433 9.84252
vt 11.81102 9.84252
vt 11.81102 5.905512
vt 11.02362 10.62992
vt 16.14173 5.905512
vt 15.35433 5.905512
vt 9.84252 3.937008
vt 21.65354 3.937008
vt 21.65354 11.81102
vt 9.84252 11.81102
vt 15.74803 21.25984
vt 15.74803 18.11024
vt 14.96063 21.25984
vt 14.96063 18.11024
vt 2.755906 -15.74803
vt -2.755906 -15.74803
vt -2.755906 18.11024
vt 1.968504 18.89764
vt 2.755906 18.11024
vt 2.755906 21.25984
vt 1.968504 20.47244
vt -1.968504 20.47244
vt -1.968504 18.89764
vt -2.755906 21.25984
vt -3.937008 16.92913
vt 3.937008 16.92913
vt 3.937008 22.44094
vt -3.937008 22.44094
vt -15.74803 18.11024
vt -15.74803 21.25984
vt -14.96063 18.11024
vt -14.96063 21.25984
vt -15.74803 7.105427E-15
vt 2.755906 15.74803
vt 2.755906 14.96063
vt -2.755906 15.74803
vt -2.755906 14.96063
vt -23.62205 15.74803
vt -23.62205 -15.74803
vt 23.62205 15.74803
vt 23.62205 -15.74803
vt 23.62205 5.213743E-14
vt 2.755906 5.924285E-14
vt -2.755906 5.924285E-14
vt -23.62205 5.213743E-14
vt 0.7874016 7.086614
vt -0.7874016 7.086614
vt 0.7874016 8.661417
vt -0.7874016 8.661417
vt 18.03692 15.9241
vt 17.50871 14.86769
vt -7.425484E-12 24.94256
vt -7.425484E-12 23.62205
vt -18.03692 15.9241
vt -17.50871 14.86769
vt -25.59055 21.1282
vt -25.59055 22.3093
vt -5.905512 21.1282
vt -5.905512 22.3093
vt 25.59055 -9.011238
vt 5.905512 -9.011238
vt 23.62205 -7.042734
vt 7.874016 -7.042734
vt 5.905512 -7.042734
vt 23.62205 10.5641
vt 25.59055 10.5641
vt 5.905512 21.1282
vt 5.905512 22.3093
vt 25.59055 21.1282
vt 25.59055 22.3093
vt -15.74803 17.06854
vt -15.74803 15.74803
vt -25.59055 10.5641
vt -23.62205 -7.042734
vt -25.59055 -9.011238
vt -5.905512 -9.011238
vt -23.62205 10.5641
vt -7.874016 -7.042734
vt -5.905512 -7.042734
vt -25.59055 11.15465
vt -7.874016 -6.452183
vt -7.874016 11.15465
vt -5.905512 -6.452183
vt -9.84252 28.17093
vt -9.84252 29.35204
vt 9.84252 28.17093
vt 9.84252 29.35204
vt -9.84252 -5.489871
vt -9.84252 14.67602
vt 9.84252 -5.489871
vt 9.84252 14.67602
vt 18.03692 23.79811
vt 17.50871 22.7417
vt -5.63079E-12 32.81657
vt -5.63079E-12 31.49606
vt -18.03692 23.79811
vt -17.50871 22.7417
vt -1.530958E-12 32.81657
vt -1.530958E-12 31.49606
vt -7.874016 14.08547
vt -7.874016 -3.521367
vt -9.84252 14.08547
vt 7.874016 -3.521367
vt 7.874016 14.08547
vt 9.84252 14.08547
vt 15.74803 15.74803
vt 15.74803 17.06854
vt 25.59055 11.15465
vt 7.874016 -6.452183
vt 7.874016 11.15465
vt 5.905512 -6.452183
vt -1.260932E-11 24.94256
vt -1.260932E-11 23.62205

usemtl border

f 3/3/1 2/2/1 1/1/1
f 2/2/1 3/3/1 4/4/1
f 2/2/1 4/4/1 5/5/1
f 5/5/1 4/4/1 6/6/1
f 7/7/1 1/1/1 2/2/1
f 1/1/1 7/7/1 8/8/1
f 8/8/1 7/7/1 6/6/1
f 8/8/1 6/6/1 4/4/1
f 11/11/2 10/10/2 9/9/2
f 10/10/2 11/11/2 12/12/2
f 13/15/2 2/14/2 5/13/2
f 2/14/2 13/15/2 14/16/2
f 13/19/3 6/18/3 15/17/3
f 6/18/3 13/19/3 5/20/3
f 2/23/4 16/22/4 7/21/4
f 16/22/4 2/23/4 14/24/4
f 14/2/1 17/25/1 16/7/1
f 17/25/1 14/2/1 13/5/1
f 17/25/1 13/5/1 18/26/1
f 18/26/1 13/5/1 19/27/1
f 19/27/1 13/5/1 20/28/1
f 20/28/1 13/5/1 21/29/1
f 22/30/1 16/7/1 17/25/1
f 16/7/1 22/30/1 15/6/1
f 15/6/1 22/30/1 21/29/1
f 15/6/1 21/29/1 13/5/1
f 22/30/1 17/25/1 23/31/1
f 22/30/1 23/31/1 24/32/1
f 19/27/1 24/32/1 23/31/1
f 24/32/1 19/27/1 20/28/1
f 16/35/5 6/34/5 7/33/5
f 6/34/5 16/35/5 15/36/5
f 27/39/2 26/38/2 25/37/2
f 26/38/2 27/39/2 28/40/2
f 28/40/2 27/39/2 29/9/2
f 32/43/5 31/42/5 30/41/5
f 31/42/5 32/43/5 33/44/5
f 33/44/5 32/43/5 34/11/5
f 37/47/5 36/46/5 35/45/5
f 36/46/5 37/47/5 38/36/5
f 41/15/2 40/38/2 39/48/2
f 40/38/2 41/15/2 42/49/2
f 41/52/3 36/51/3 38/50/3
f 36/51/3 41/52/3 39/53/3
f 31/56/4 27/55/4 25/54/4
f 27/55/4 31/56/4 33/57/4
f 28/60/1 9/59/1 10/58/1
f 9/59/1 28/60/1 29/61/1
f 31/64/1 40/63/1 30/62/1
f 40/63/1 31/64/1 39/65/1
f 39/65/1 31/64/1 36/66/1
f 25/67/1 36/66/1 31/64/1
f 26/60/1 36/66/1 25/67/1
f 36/66/1 26/60/1 35/68/1
f 44/70/1 32/62/1 43/69/1
f 32/62/1 44/70/1 34/71/1
f 47/74/3 46/73/3 45/72/3
f 46/73/3 47/74/3 48/75/3
f 51/78/4 50/77/4 49/76/4
f 50/77/4 51/78/4 52/79/4
f 49/82/6 53/81/6 51/80/6
f 53/81/6 49/82/6 45/83/6
f 53/81/6 45/83/6 54/84/6
f 54/84/6 45/83/6 55/85/6
f 55/85/6 45/83/6 56/86/6
f 56/86/6 45/83/6 57/87/6
f 58/88/6 51/80/6 53/81/6
f 51/80/6 58/88/6 46/89/6
f 46/89/6 58/88/6 57/87/6
f 46/89/6 57/87/6 45/83/6
f 58/88/6 53/81/6 59/90/6
f 58/88/6 59/90/6 60/91/6
f 55/85/6 60/91/6 59/90/6
f 60/91/6 55/85/6 56/86/6
f 50/14/5 45/15/5 49/16/5
f 45/15/5 50/14/5 47/13/5
f 48/34/2 51/35/2 46/36/2
f 51/35/2 48/34/2 52/33/2
f 62/93/6 50/82/6 61/92/6
f 50/82/6 62/93/6 63/94/6
f 50/82/6 63/94/6 47/83/6
f 47/83/6 63/94/6 48/89/6
f 52/80/6 61/92/6 50/82/6
f 61/92/6 52/80/6 64/95/6
f 64/95/6 52/80/6 48/89/6
f 64/95/6 48/89/6 63/94/6
f 67/98/2 66/97/2 65/96/2
f 66/97/2 67/98/2 68/99/2
f 67/52/3 70/100/3 69/50/3
f 70/100/3 67/52/3 65/101/3
f 68/104/1 72/103/1 71/102/1
f 72/103/1 68/104/1 67/105/1
f 72/103/1 67/105/1 73/106/1
f 73/106/1 67/105/1 74/107/1
f 75/108/1 71/102/1 72/103/1
f 71/102/1 75/108/1 69/109/1
f 69/109/1 75/108/1 74/107/1
f 69/109/1 74/107/1 67/105/1
f 66/100/4 71/52/4 76/101/4
f 71/52/4 66/100/4 68/50/4
f 78/111/1 66/104/1 77/110/1
f 66/104/1 78/111/1 79/112/1
f 66/104/1 79/112/1 65/105/1
f 65/105/1 79/112/1 70/109/1
f 76/102/1 77/110/1 66/104/1
f 77/110/1 76/102/1 80/113/1
f 80/113/1 76/102/1 70/109/1
f 80/113/1 70/109/1 79/112/1
f 71/116/5 70/115/5 76/114/5
f 70/115/5 71/116/5 69/117/5
f 83/34/2 82/47/2 81/36/2
f 82/47/2 83/34/2 84/118/2
f 87/40/5 86/15/5 85/49/5
f 86/15/5 87/40/5 88/13/5
f 83/121/3 86/120/3 88/119/3
f 86/120/3 83/121/3 81/122/3
f 91/121/3 90/120/3 89/119/3
f 90/120/3 91/121/3 92/122/3
f 95/104/6 94/103/6 93/102/6
f 94/103/6 95/104/6 90/105/6
f 94/103/6 90/105/6 96/106/6
f 96/106/6 90/105/6 97/107/6
f 98/108/6 93/102/6 94/103/6
f 93/102/6 98/108/6 92/109/6
f 92/109/6 98/108/6 97/107/6
f 92/109/6 97/107/6 90/105/6
f 101/111/6 100/104/6 99/110/6
f 100/104/6 101/111/6 102/112/6
f 100/104/6 102/112/6 89/105/6
f 89/105/6 102/112/6 91/109/6
f 103/102/6 99/110/6 100/104/6
f 99/110/6 103/102/6 104/113/6
f 104/113/6 103/102/6 91/109/6
f 104/113/6 91/109/6 102/112/6
f 91/115/2 93/116/2 92/117/2
f 93/116/2 91/115/2 103/114/2
f 100/97/5 90/98/5 95/99/5
f 90/98/5 100/97/5 89/96/5
f 95/122/4 103/119/4 100/121/4
f 103/119/4 95/122/4 93/120/4
f 107/22/3 106/23/3 105/24/3
f 106/23/3 107/22/3 108/21/3
f 111/82/1 110/81/1 109/80/1
f 110/81/1 111/82/1 107/83/1
f 110/81/1 107/83/1 112/84/1
f 112/84/1 107/83/1 113/85/1
f 113/85/1 107/83/1 114/86/1
f 114/86/1 107/83/1 115/87/1
f 116/88/1 109/80/1 110/81/1
f 109/80/1 116/88/1 105/89/1
f 105/89/1 116/88/1 115/87/1
f 105/89/1 115/87/1 107/83/1
f 116/88/1 110/81/1 117/90/1
f 116/88/1 117/90/1 118/91/1
f 113/85/1 118/91/1 117/90/1
f 118/91/1 113/85/1 114/86/1
f 121/93/1 120/82/1 119/92/1
f 120/82/1 121/93/1 122/94/1
f 120/82/1 122/94/1 108/83/1
f 108/83/1 122/94/1 106/89/1
f 123/80/1 119/92/1 120/82/1
f 119/92/1 123/80/1 124/95/1
f 124/95/1 123/80/1 106/89/1
f 124/95/1 106/89/1 122/94/1
f 107/15/2 120/14/2 108/13/2
f 120/14/2 107/15/2 111/16/2
f 109/35/5 106/34/5 123/33/5
f 106/34/5 109/35/5 105/36/5
f 120/18/4 109/19/4 123/20/4
f 109/19/4 120/18/4 111/17/4
f 125/123/3 82/122/3 84/121/3
f 82/122/3 125/123/3 32/55/3
f 32/55/3 125/123/3 43/124/3
f 30/54/3 82/122/3 32/55/3
f 40/53/3 82/122/3 30/54/3
f 42/52/3 82/122/3 40/53/3
f 42/52/3 85/120/3 82/122/3
f 37/50/3 85/120/3 42/52/3
f 37/50/3 87/119/3 85/120/3
f 26/56/3 87/119/3 37/50/3
f 28/57/3 87/119/3 26/56/3
f 28/57/3 12/125/3 87/119/3
f 12/125/3 28/57/3 10/126/3
f 35/51/3 26/56/3 37/50/3
f 128/34/2 127/35/2 126/36/2
f 127/35/2 128/34/2 129/33/2
f 125/10/5 44/11/5 43/12/5
f 44/11/5 125/10/5 130/9/5
f 133/3/6 132/2/6 131/1/6
f 132/2/6 133/3/6 134/4/6
f 132/2/6 134/4/6 135/5/6
f 135/5/6 134/4/6 128/6/6
f 129/7/6 131/1/6 132/2/6
f 131/1/6 129/7/6 136/8/6
f 136/8/6 129/7/6 128/6/6
f 136/8/6 128/6/6 134/4/6
f 138/2/6 137/25/6 127/7/6
f 137/25/6 138/2/6 139/5/6
f 137/25/6 139/5/6 140/26/6
f 140/26/6 139/5/6 141/27/6
f 141/27/6 139/5/6 142/28/6
f 142/28/6 139/5/6 143/29/6
f 144/30/6 127/7/6 137/25/6
f 127/7/6 144/30/6 126/6/6
f 126/6/6 144/30/6 143/29/6
f 126/6/6 143/29/6 139/5/6
f 144/30/6 137/25/6 145/31/6
f 144/30/6 145/31/6 146/32/6
f 141/27/6 146/32/6 145/31/6
f 146/32/6 141/27/6 142/28/6
f 132/14/5 139/15/5 138/16/5
f 139/15/5 132/14/5 135/13/5
f 11/70/6 87/128/6 12/127/6
f 87/128/6 11/70/6 147/71/6
f 87/128/6 147/71/6 88/65/6
f 88/65/6 147/71/6 148/64/6
f 88/65/6 148/64/6 83/66/6
f 149/67/6 83/66/6 148/64/6
f 150/61/6 83/66/6 149/67/6
f 83/66/6 150/61/6 84/129/6
f 130/59/6 84/129/6 150/61/6
f 84/129/6 130/59/6 125/130/6
f 135/79/3 126/76/3 139/78/3
f 126/76/3 135/79/3 128/77/3
f 127/72/4 132/75/4 138/73/4
f 132/75/4 127/72/4 129/74/4

usemtl window

f 18/26/1 23/31/1 17/25/1
f 23/31/1 18/26/1 19/27/1
f 20/28/1 22/30/1 24/32/1
f 22/30/1 20/28/1 21/29/1
f 153/133/1 152/132/1 151/131/1
f 152/132/1 153/133/1 154/134/1
f 54/84/6 59/90/6 53/81/6
f 59/90/6 54/84/6 55/85/6
f 56/86/6 58/88/6 60/91/6
f 58/88/6 56/86/6 57/87/6
f 73/106/1 75/108/1 72/103/1
f 75/108/1 73/106/1 74/107/1
f 96/106/6 98/108/6 94/103/6
f 98/108/6 96/106/6 97/107/6
f 112/84/1 117/90/1 110/81/1
f 117/90/1 112/84/1 113/85/1
f 114/86/1 116/88/1 118/91/1
f 116/88/1 114/86/1 115/87/1
f 142/28/6 144/30/6 146/32/6
f 144/30/6 142/28/6 143/29/6
f 140/26/6 145/31/6 137/25/6
f 145/31/6 140/26/6 141/27/6

usemtl roof

f 157/137/2 156/136/2 155/135/2
f 156/136/2 157/137/2 158/138/2
f 158/138/2 157/137/2 159/139/2
f 158/138/2 159/139/2 160/140/2
f 161/143/7 155/142/7 156/141/7
f 155/142/7 161/143/7 162/144/7
f 163/147/8 161/146/8 156/145/8
f 161/146/8 163/147/8 164/148/8
f 161/146/8 164/148/8 165/149/8
f 156/145/8 166/150/8 163/147/8
f 166/150/8 156/145/8 158/151/8
f 160/154/9 168/153/9 167/152/9
f 168/153/9 160/154/9 159/155/9
f 161/140/5 169/156/5 162/139/5
f 169/156/5 161/140/5 165/157/5
f 160/160/10 170/159/10 158/158/10
f 170/159/10 160/160/10 167/161/10
f 158/158/10 170/159/10 166/162/10
f 170/159/10 167/161/10 171/163/10
f 171/163/10 167/161/10 172/164/10
f 162/161/11 157/165/11 155/160/11
f 157/165/11 162/161/11 173/166/11
f 157/165/11 173/166/11 174/167/11
f 173/166/11 162/161/11 169/168/11
f 177/171/7 176/170/7 175/169/7
f 176/170/7 177/171/7 178/172/7
f 178/175/11 179/174/11 176/173/11
f 179/174/11 178/175/11 180/176/11
f 179/179/2 175/178/2 176/177/2
f 175/178/2 179/179/2 181/180/2
f 181/180/2 179/179/2 182/181/2
f 181/180/2 182/181/2 183/182/2
f 177/182/5 180/183/5 178/181/5
f 180/183/5 177/182/5 184/184/5
f 180/183/5 184/184/5 185/178/5
f 180/183/5 185/178/5 186/177/5
f 184/187/8 188/186/8 187/185/8
f 177/173/8 188/186/8 184/187/8
f 177/173/8 189/188/8 188/186/8
f 175/175/8 189/188/8 177/173/8
f 175/175/8 190/189/8 189/188/8
f 190/189/8 175/175/8 181/190/8
f 167/136/5 191/192/5 172/191/5
f 191/192/5 167/136/5 168/135/5
f 157/193/12 168/146/12 159/145/12
f 168/146/12 157/193/12 192/194/12
f 192/194/12 157/193/12 174/195/12
f 168/146/12 192/194/12 191/196/12
f 183/173/10 193/186/10 181/187/10
f 193/186/10 183/173/10 185/175/10
f 181/187/10 193/186/10 190/185/10
f 193/186/10 185/175/10 194/188/10
f 184/190/10 194/188/10 185/175/10
f 194/188/10 184/190/10 187/189/10
f 179/176/12 186/173/12 182/175/12
f 186/173/12 179/176/12 180/174/12
f 183/171/9 186/170/9 185/169/9
f 186/170/9 183/171/9 182/172/9
f 197/154/7 196/153/7 195/152/7
f 196/153/7 197/154/7 198/155/7
f 197/140/5 199/197/5 198/139/5
f 199/197/5 197/140/5 200/198/5
f 199/197/5 200/198/5 201/136/5
f 199/197/5 201/136/5 202/135/5
f 203/192/2 195/136/2 196/135/2
f 195/136/2 203/192/2 204/191/2
f 200/158/8 206/159/8 205/162/8
f 197/160/8 206/159/8 200/158/8
f 197/160/8 207/163/8 206/159/8
f 195/161/8 207/163/8 197/160/8
f 207/163/8 195/161/8 204/164/8
f 198/145/11 203/196/11 196/146/11
f 203/196/11 198/145/11 208/194/11
f 208/194/11 198/145/11 209/195/11
f 209/195/11 198/145/11 199/193/11
f 210/143/9 202/142/9 201/141/9
f 202/142/9 210/143/9 211/144/9
f 201/145/10 212/149/10 210/146/10
f 212/149/10 201/145/10 213/148/10
f 213/148/10 201/145/10 214/147/10
f 200/151/10 214/147/10 201/145/10
f 214/147/10 200/151/10 205/150/10
f 211/139/2 212/157/2 215/156/2
f 212/157/2 211/139/2 210/140/2
f 199/165/12 216/166/12 209/167/12
f 216/166/12 199/165/12 202/160/12
f 202/160/12 215/168/12 216/166/12
f 215/168/12 202/160/12 211/161/12

usemtl _defaultMat

f 166/138/2 9/139/2 163/140/2
f 9/138/2 166/139/2 11/140/2
f 11/138/2 166/139/2 170/140/2
f 44/115/1 121/116/1 34/117/1
f 121/115/1 44/116/1 206/117/1
f 121/115/1 206/116/1 122/117/1
f 163/115/1 206/116/1 207/117/1
f 163/115/1 207/116/1 165/117/1
f 163/115/1 165/116/1 164/117/1
f 204/115/1 165/116/1 207/117/1
f 122/115/1 206/116/1 124/117/1
f 124/115/1 206/116/1 33/117/1
f 33/115/1 206/116/1 27/117/1
f 27/115/1 206/116/1 4/117/1
f 4/115/1 206/116/1 8/117/1
f 203/115/1 78/116/1 204/117/1
f 78/115/1 203/116/1 79/117/1
f 9/115/1 1/116/1 163/117/1
f 1/115/1 9/116/1 3/117/1
f 163/115/1 1/116/1 8/117/1
f 163/115/1 8/116/1 206/117/1
f 29/115/1 3/116/1 9/117/1
f 3/115/1 29/116/1 27/117/1
f 3/115/1 27/116/1 4/117/1
f 34/115/1 119/116/1 33/117/1
f 119/115/1 34/116/1 121/117/1
f 33/115/1 119/116/1 124/117/1
f 165/115/1 204/116/1 169/117/1
f 169/115/1 204/116/1 77/117/1
f 77/115/1 204/116/1 78/117/1
f 169/115/1 77/116/1 80/117/1
f 188/115/1 203/116/1 208/117/1
f 203/115/1 188/116/1 79/117/1
f 79/115/1 188/116/1 80/117/1
f 169/115/1 189/116/1 173/117/1
f 189/115/1 169/116/1 80/117/1
f 189/115/1 80/116/1 188/117/1
f 190/173/2 173/186/2 189/187/2
f 173/173/2 190/186/2 174/187/2
f 174/173/2 190/186/2 193/187/2
f 174/173/2 193/186/2 192/187/2
f 193/8/6 191/6/6 192/4/6
f 191/8/6 193/6/6 102/4/6
f 102/8/6 193/6/6 104/4/6
f 11/8/6 62/6/6 147/4/6
f 62/8/6 11/6/6 170/4/6
f 62/8/6 170/6/6 63/4/6
f 212/8/6 170/6/6 172/4/6
f 212/8/6 172/6/6 215/4/6
f 172/8/6 170/6/6 171/4/6
f 63/8/6 170/6/6 64/4/6
f 64/8/6 170/6/6 148/4/6
f 148/8/6 170/6/6 149/4/6
f 149/8/6 170/6/6 134/4/6
f 134/8/6 170/6/6 136/4/6
f 136/8/6 170/6/6 212/4/6
f 215/8/6 172/6/6 99/4/6
f 99/8/6 172/6/6 101/4/6
f 215/8/6 99/6/6 104/4/6
f 215/8/6 104/6/6 216/4/6
f 216/8/6 104/6/6 194/4/6
f 194/8/6 104/6/6 193/4/6
f 191/8/6 101/6/6 172/4/6
f 101/8/6 191/6/6 102/4/6
f 130/8/6 131/6/6 214/4/6
f 131/8/6 130/6/6 133/4/6
f 214/8/6 131/6/6 136/4/6
f 214/8/6 136/6/6 212/4/6
f 214/8/6 212/6/6 213/4/6
f 150/8/6 133/6/6 130/4/6
f 133/8/6 150/6/6 149/4/6
f 133/8/6 149/6/6 134/4/6
f 147/8/6 61/6/6 148/4/6
f 61/8/6 147/6/6 62/4/6
f 148/8/6 61/6/6 64/4/6
f 130/32/5 206/27/5 44/28/5
f 206/32/5 130/27/5 205/28/5
f 205/32/5 130/27/5 214/28/5
f 209/75/5 188/72/5 208/74/5
f 188/75/5 209/72/5 187/74/5
f 187/75/5 209/72/5 216/74/5
f 187/75/5 216/72/5 194/74/5

usemtl door

f 41/65/1 37/68/1 42/63/1
f 37/68/1 41/65/1 151/131/1
f 151/131/1 41/65/1 153/133/1
f 153/133/1 41/65/1 154/134/1
f 152/132/1 37/68/1 151/131/1
f 37/68/1 152/132/1 38/66/1
f 38/66/1 152/132/1 154/134/1
f 38/66/1 154/134/1 41/65/1
f 86/65/6 82/68/6 85/63/6
f 82/68/6 86/65/6 81/66/6

