# Created by Kenney (www.kenney.nl)

mtllib house_type16.mtl

g house_type16

v 0.4 0.3 1.490233E-09
v 0.4 0.3 -0.3
v 1.490262E-09 0.3 1.490233E-09
v 0.3 0.3 -0.3
v 0.3 0.3 -0.4
v 1.490262E-09 0.3 -0.4
v 0.3 0.05 -0.4
v 0.3 0.05 -0.3
v 0.4 0.05 -0.3
v 0.4 0.45 -0.4
v 0.05 0.5 -0.4
v 1.49024E-09 0.45 -0.4
v 1.49024E-09 0.8 -0.4
v 0.05 0.7 -0.4
v 0.35 0.7 -0.4
v 0.4 0.8 -0.4
v 0.35 0.5 -0.4
v 1.490275E-09 0.05 1.490197E-09
v 0.4 0.05 1.490248E-09
v 0.4 0.05 -0.4
v 0.4 0.4 -0.4
v 0.4 0.4 0.4
v 0.4 0.3 0.1
v 0.4 0.3 0.3
v 0.4 0.05 0.4
v 0.4 0.05 0.3
v 0.4 0.05 0.1
v 1.490227E-09 0.05 -0.4
v -0.4 0.05 -0.4
v -0.3 0.05 -0.4
v -0.4 0.4 -0.4
v -0.3 0.3 -0.4
v -0.1 0.3 -0.4
v -0.1 0.05 -0.4
v 0.4 0.8 0.4
v 0.4 0.45 0.4
v -0.4 0.05 0.4
v -0.4 0.4 0.4
v -0.4 0.1 0.1
v -0.4 0.1 0.3
v -0.4 0.3 0.3
v -0.4 0.3 0.1
v 1.49025E-09 0.45 -0.37
v 1.490243E-09 0.8 -1.490222E-09
v 1.490246E-09 0.45 -1.490223E-09
v -0.4 0.8 4.470616E-09
v -0.4 0.5 0.1
v -0.4 0.45 1.490213E-09
v -0.4 0.45 0.4
v -0.4 0.5 0.3
v -0.4 0.7 0.3
v -0.4 0.8 0.4
v -0.4 0.7 0.1
v 0.3 0.5 0.4
v 0.3 0.7 0.4
v 0.1 0.7 0.4
v 0.1 0.5 0.4
v -0.37 0.45 1.490212E-09
v 0.3 0 -0.4
v 0.4 0 -0.4
v 0.4 0 -0.3
v 0.3 0 -0.3
v 0.08000001 0.53 -0.4
v 0.08000001 0.67 -0.4
v 0.32 0.67 -0.4
v 0.32 0.53 -0.4
v 0.32 0.53 -0.38
v 0.1 0.55 -0.38
v 0.08000001 0.53 -0.38
v 0.08000001 0.67 -0.38
v 0.1 0.65 -0.38
v 0.19 0.65 -0.38
v 0.21 0.65 -0.38
v 0.3 0.65 -0.38
v 0.3 0.55 -0.38
v 0.32 0.67 -0.38
v 0.19 0.55 -0.38
v 0.21 0.55 -0.38
v 1.490275E-09 9.023893E-17 1.490197E-09
v 0.4 9.023893E-17 1.490248E-09
v 0.38 2.707168E-16 0.27
v 0.4 2.707168E-16 0.27
v 0.38 0.27 0.27
v 0.4 0.27 0.27
v 0.4 2.707168E-16 0.13
v 0.38 2.707168E-16 0.13
v 0.4 0.27 0.13
v 0.38 0.27 0.13
v 0.4 9.023893E-17 0.4
v -0.1 0.3 -0.41
v -0.1 2.707168E-16 -0.41
v -0.1 2.707168E-16 -0.4
v -0.3 2.594369E-16 -0.41
v -0.3 0.3 -0.41
v -0.3 2.594369E-16 -0.4
v -0.13 2.707168E-16 -0.41
v -0.13 0.27 -0.41
v -0.13 2.707168E-16 -0.38
v -0.13 0.27 -0.38
v -0.27 2.707168E-16 -0.41
v -0.27 0.27 -0.41
v 1.490227E-09 9.023893E-17 -0.4
v -0.4 9.023893E-17 -0.4
v -0.27 0.27 -0.38
v -0.27 2.707168E-16 -0.38
v -0.4 9.023893E-17 0.4
v 0.13 0.53 0.38
v 0.25 0.55 0.38
v 0.27 0.53 0.38
v 0.27 0.67 0.38
v 0.25 0.65 0.38
v 0.15 0.65 0.38
v 0.15 0.55 0.38
v 0.13 0.67 0.38
v 0.27 0.53 0.4
v 0.27 0.67 0.4
v 0.13 0.67 0.4
v 0.13 0.53 0.4
v 1.490262E-09 0.4 1.490233E-09
v -0.2000018 0.4 1.490223E-09
v 1.490257E-09 0.4 -0.37
v -0.37 0.4 -0.37
v -0.37 0.4 1.490212E-09
v -0.37 0.45 -0.37
v -0.37 0.47 -0.37
v -0.37 0.45 -0.4
v -0.37 0.47 -0.4
v -0.4 0.47 -0.4
v -0.4 0.45 -0.37
v -0.4 0.47 -0.37
v -0.4 0.13 0.13
v -0.4 0.13 0.27
v -0.4 0.27 0.27
v -0.4 0.27 0.13
v -0.38 0.13 0.13
v -0.38 0.27 0.13
v -0.38 0.27 0.27
v -0.38 0.15 0.15
v -0.38 0.13 0.27
v -0.38 0.15 0.25
v -0.38 0.25 0.25
v -0.38 0.25 0.15
v -0.38 0.67 0.13
v -0.38 0.55 0.15
v -0.38 0.53 0.13
v -0.38 0.53 0.27
v -0.38 0.55 0.25
v -0.38 0.65 0.25
v -0.38 0.65 0.15
v -0.38 0.67 0.27
v -0.4 0.53 0.13
v -0.4 0.53 0.27
v -0.4 0.67 0.27
v -0.4 0.67 0.13
v 1.490262E-09 1.1 -0.4
v 6.910026E-10 1.1 -0.05
v 1.490226E-09 1.1 1.490196E-09
v -1.490208E-09 1.1 0.4
v -0.22 0.05 -0.38
v -0.18 0.05 -0.38
v -0.22 0.22 -0.38
v -0.18 0.22 -0.38
v 0.44 0.77 -0.45
v 0.458 0.794 -0.45
v 1.490263E-09 1.1 -0.45
v 1.490263E-09 1.1375 -0.45
v 0.458 0.794 0.45
v -1.490213E-09 1.1375 0.45
v -1.490162E-09 1.1375 -0.05
v 0.44 0.77 0.45
v -1.490213E-09 1.1 0.45
v -0.458 0.794 0.45
v -0.44 0.77 0.45
v -0.44 0.77 -0.05
v -0.458 0.794 -0.05

vn 0 -1 0
vn -1 0 0
vn 0 0 1
vn 0 0 -1
vn 1 0 0
vn 0 1 0
vn 0.6 0.8 0
vn -0.6 -0.8 0
vn 0.8 -0.6 0
vn -0.8 -0.6 0
vn 0.6 -0.8 0
vn -0.6 0.8 0

vt 0 0
vt 11.81102 -15.74803
vt 11.81102 -11.81102
vt 15.74803 -15.74803
vt -11.81102 1.968504
vt -11.81102 0
vt -15.74803 1.968504
vt -3.149606 -14.96063
vt -3.149606 -15.74803
vt -12.59842 -14.96063
vt -7.480315 25.59055
vt -3.937008 25.59055
vt -7.480315 21.65354
vt -10.62992 1.065814E-14
vt -10.62992 10.62992
vt -5.11811 1.065814E-14
vt 11.81102 11.81102
vt 5.11811 10.62992
vt 3.937008 11.81102
vt 11.81102 1.968504
vt 15.74803 1.968504
vt 11.81102 1.021405E-14
vt 10.62992 26.37795
vt 5.905512 25.59055
vt 5.11811 26.37795
vt 15.74803 3.552714E-15
vt -15.74803 3.552714E-15
vt 9.84252 9.84252
vt 9.84252 5.905512
vt 5.905512 9.84252
vt -5.867019E-08 17.71654
vt 5.86706E-08 15.74803
vt -14.56693 17.71654
vt -15.74803 0
vt 15.74803 -11.81102
vt 15.74803 0
vt 11.81102 0
vt -13.77953 19.68504
vt -3.149606 20.86614
vt -1.968504 19.68504
vt -1.968504 27.55906
vt -3.149606 26.37795
vt -12.59842 26.37795
vt -12.59842 20.86614
vt -13.77953 27.55906
vt -3.937008 21.65354
vt -8.267716 25.59055
vt -11.81102 25.59055
vt -11.81102 21.65354
vt -8.267716 21.65354
vt -15.74803 20.86614
vt -15.74803 26.37795
vt -14.96063 20.86614
vt -14.96063 26.37795
vt 12.59842 -14.96063
vt 12.59842 -15.74803
vt 3.149606 -14.96063
vt 3.149606 -15.74803
vt -12.59842 -15.74803
vt 15.74803 26.37795
vt 15.74803 20.86614
vt 14.96063 26.37795
vt 14.96063 20.86614
vt -5.867225E-08 3.552714E-15
vt -5.867225E-08 1.968504
vt -14.96063 1.065814E-14
vt -15.74803 1.065814E-14
vt -14.96063 10.62992
vt -15.74803 10.62992
vt 15.74803 1.065814E-14
vt 14.96063 1.065814E-14
vt 15.74803 10.62992
vt 14.96063 10.62992
vt 15.74803 5.11811
vt 14.96063 5.11811
vt -3.937008 1.968504
vt -5.11811 10.62992
vt -3.937008 11.81102
vt -11.81102 11.81102
vt -10.62992 1.894682E-14
vt -15.74803 1.184139E-14
vt -5.11811 1.894682E-14
vt -5.866918E-08 1.184139E-14
vt -5.866918E-08 1.968504
vt 16.14173 11.81102
vt 16.14173 1.065814E-14
vt 15.74803 11.81102
vt -16.14173 1.021405E-14
vt -16.14173 11.81102
vt -15.74803 1.021405E-14
vt -15.74803 11.81102
vt -16.14173 1.065814E-14
vt -16.14173 10.62992
vt -14.96063 1.065814E-14
vt -14.96063 10.62992
vt 3.937008 -16.14173
vt 3.937008 -15.74803
vt 11.81102 -16.14173
vt 10.62992 1.065814E-14
vt 10.62992 10.62992
vt 3.937008 1.065814E-14
vt 5.11811 1.065814E-14
vt -5.866918E-08 3.552714E-15
vt -5.11811 -14.96063
vt -5.11811 -16.14173
vt -10.62992 -14.96063
vt -10.62992 -16.14173
vt 16.14173 10.62992
vt 14.96063 10.62992
vt 14.96063 1.065814E-14
vt 15.74803 5.867117E-08
vt 5.867225E-08 5.866918E-08
vt -15.74803 15.74803
vt 15.74803 15.74803
vt 5.867037E-08 -15.74803
vt -3.937008 -15.74803
vt -3.937008 -16.14173
vt -11.81102 -15.74803
vt -15.74803 -15.74803
vt -11.81102 -16.14173
vt -5.867037E-08 6.439294E-15
vt -5.867037E-08 1.968504
vt 3.937008 1.354472E-14
vt 3.937008 1.968504
vt 15.74803 17.71654
vt -15.74803 17.71654
vt 5.11811 20.86614
vt 9.84252 21.65354
vt 10.62992 20.86614
vt 9.84252 25.59055
vt 5.905512 21.65354
vt 3.937008 19.68504
vt 11.81102 19.68504
vt 11.81102 27.55906
vt 3.937008 27.55906
vt -14.96063 26.37795
vt -14.96063 20.86614
vt 10.62992 15.74803
vt 10.62992 14.96063
vt 5.11811 15.74803
vt 5.11811 14.96063
vt 14.96063 20.86614
vt 14.96063 26.37795
vt -10.62992 15.74803
vt -5.11811 15.74803
vt -10.62992 14.96063
vt -5.11811 14.96063
vt -5.867175E-08 5.86706E-08
vt 7.874085 5.867021E-08
vt -5.867155E-08 -14.56693
vt 14.56693 -14.56693
vt 14.56693 5.866978E-08
vt 14.56693 17.71654
vt 14.56693 15.74803
vt -5.866978E-08 17.71654
vt -5.866978E-08 15.74803
vt 14.56693 18.50394
vt 15.74803 18.50394
vt -5.867092E-08 17.71654
vt -15.74803 18.50394
vt 2.256309E-09 17.71654
vt -14.56693 18.50394
vt 5.867125E-08 17.71654
vt -14.56693 15.74803
vt 5.867155E-08 15.74803
vt -5.867125E-08 -14.56693
vt -5.867089E-08 -15.74803
vt 14.56693 -15.74803
vt 14.56693 5.866978E-08
vt 15.74803 -14.56693
vt 15.74803 5.866978E-08
vt 5.11811 5.11811
vt 3.937008 3.937008
vt 11.81102 3.937008
vt 10.62992 5.11811
vt -14.96063 5.11811
vt -15.74803 5.11811
vt -14.96063 5.11811
vt 5.905512 5.905512
vt 14.96063 5.11811
vt 7.874085 15.74803
vt -5.86711E-08 17.71654
vt -5.867175E-08 15.74803
vt -5.867089E-08 31.49606
vt -15.74803 31.49606
vt -5.867174E-08 43.30709
vt -15.74803 43.30709
vt -5.867016E-08 31.49606
vt -1.968504 43.30709
vt 5.866915E-08 43.30709
vt 15.74803 31.49606
vt -1.173415E-07 43.30709
vt -5.8671E-08 31.49606
vt -5.867032E-08 43.30709
vt 8.661417 1.968504
vt 7.086614 1.968504
vt 8.661417 8.661417
vt 7.086614 8.661417
vt -17.32283 30.31496
vt -18.0315 31.25984
vt -5.867145E-08 43.30709
vt -5.867145E-08 44.78347
vt 17.71654 4.330709
vt -17.71654 4.330709
vt 17.71654 26.87008
vt -17.71654 26.87008
vt 1.968504 26.87008
vt 15.74803 6.299212
vt 17.71654 25.98425
vt 15.74803 25.98425
vt -15.74803 6.299212
vt -17.71654 25.98425
vt -15.74803 25.98425
vt 17.71654 34.64567
vt -17.71654 34.64567
vt 17.71654 35.82677
vt -17.71654 35.82677
vt -17.71654 44.78347
vt -1.968504 44.78347
vt -17.71654 43.30709
vt 17.32283 30.31496
vt -5.866714E-08 43.30709
vt 18.0315 31.25984
vt -5.866714E-08 44.78347
vt -2.720441E-08 43.30709
vt 5.86682E-08 44.78347
vt -1.968504 35.82677
vt -1.968504 34.64567
vt -15.74803 6.299213
vt -1.740591E-07 6.299212
vt 1.968504 4.330709
vt 1.968504 25.98425
vt -5.866915E-08 25.98425
vt -1.968504 26.87008
vt -1.968504 4.330709

usemtl _defaultMat

f 3/1/1 2/1/1 1/1/1
f 2/1/1 3/1/1 4/1/1
f 4/1/1 3/1/1 5/1/1
f 5/1/1 3/1/1 6/1/1
f 8/4/2 5/3/2 7/2/2
f 5/4/2 8/3/2 4/2/2
f 2/7/3 8/6/3 9/5/3
f 8/7/3 2/6/3 4/5/3
f 12/10/4 11/9/4 10/8/4
f 11/10/4 12/9/4 13/8/4
f 11/10/4 13/9/4 14/8/4
f 14/10/4 13/9/4 15/8/4
f 10/10/4 17/9/4 16/8/4
f 17/10/4 10/9/4 11/8/4
f 16/10/4 17/9/4 15/8/4
f 16/10/4 15/9/4 13/8/4
f 3/13/4 19/12/4 18/11/4
f 19/13/4 3/12/4 1/11/4
f 21/16/5 2/15/5 20/14/5
f 2/16/5 21/15/5 22/14/5
f 2/16/5 22/15/5 1/14/5
f 1/16/5 22/15/5 23/14/5
f 23/16/5 22/15/5 24/14/5
f 26/16/5 22/15/5 25/14/5
f 1/16/5 23/15/5 19/14/5
f 24/16/5 22/15/5 26/14/5
f 27/16/5 19/15/5 23/14/5
f 9/16/5 20/15/5 2/14/5
f 3/19/5 28/18/5 6/17/5
f 28/19/5 3/18/5 18/17/5
f 31/22/4 30/21/4 29/20/4
f 30/22/4 31/21/4 32/20/4
f 32/22/4 31/21/4 33/20/4
f 33/22/4 31/21/4 6/20/4
f 6/22/4 31/21/4 5/20/4
f 5/22/4 20/21/4 7/20/4
f 20/22/4 5/21/4 21/20/4
f 21/22/4 5/21/4 31/20/4
f 33/22/4 28/21/4 34/20/4
f 28/22/4 33/21/4 6/20/4
f 35/25/5 10/24/5 16/23/5
f 10/25/5 35/24/5 36/23/5
f 22/7/3 37/26/3 25/21/3
f 37/7/3 22/26/3 38/21/3
f 29/27/2 39/21/2 31/7/2
f 39/27/2 29/21/2 37/7/2
f 39/27/2 37/21/2 40/7/2
f 40/27/2 37/21/2 41/7/2
f 31/27/2 42/21/2 38/7/2
f 42/27/2 31/21/2 39/7/2
f 38/27/2 42/21/2 41/7/2
f 38/27/2 41/21/2 37/7/2
f 43/30/2 13/29/2 12/28/2
f 13/30/2 43/29/2 44/28/2
f 44/30/2 43/29/2 45/28/2
f 48/33/2 47/32/2 46/31/2
f 47/33/2 48/32/2 49/31/2
f 47/33/2 49/32/2 50/31/2
f 50/33/2 49/32/2 51/31/2
f 46/33/2 53/32/2 52/31/2
f 53/33/2 46/32/2 47/31/2
f 52/33/2 53/32/2 51/31/2
f 52/33/2 51/32/2 49/31/2
f 36/33/3 54/32/3 49/31/3
f 54/33/3 36/32/3 35/31/3
f 54/33/3 35/32/3 55/31/3
f 55/33/3 35/32/3 56/31/3
f 49/33/3 57/32/3 52/31/3
f 57/33/3 49/32/3 54/31/3
f 52/33/3 57/32/3 56/31/3
f 52/33/3 56/32/3 35/31/3
f 46/33/4 58/32/4 48/31/4
f 58/33/4 46/32/4 45/31/4
f 45/33/4 46/32/4 44/31/4

usemtl border

f 7/5/4 60/34/4 59/6/4
f 60/34/4 7/5/4 20/7/4
f 62/3/1 60/4/1 61/35/1
f 60/4/1 62/3/1 59/2/1
f 9/20/5 60/36/5 20/21/5
f 60/36/5 9/20/5 61/37/5
f 9/21/3 62/37/3 61/36/3
f 62/37/3 9/21/3 8/20/3
f 62/6/2 7/7/2 59/34/2
f 7/7/2 62/6/2 8/5/2
f 11/40/4 63/39/4 17/38/4
f 63/39/4 11/40/4 14/41/4
f 63/39/4 14/41/4 64/42/4
f 64/42/4 14/41/4 65/43/4
f 66/44/4 17/38/4 63/39/4
f 17/38/4 66/44/4 15/45/4
f 15/45/4 66/44/4 65/43/4
f 15/45/4 65/43/4 14/41/4
f 69/39/4 68/46/4 67/44/4
f 68/46/4 69/39/4 70/42/4
f 68/46/4 70/42/4 71/12/4
f 71/12/4 70/42/4 72/11/4
f 72/11/4 70/42/4 73/47/4
f 73/47/4 70/42/4 74/48/4
f 75/49/4 67/44/4 68/46/4
f 67/44/4 75/49/4 76/43/4
f 76/43/4 75/49/4 74/48/4
f 76/43/4 74/48/4 70/42/4
f 75/49/4 68/46/4 77/13/4
f 75/49/4 77/13/4 78/50/4
f 72/11/4 78/50/4 77/13/4
f 78/50/4 72/11/4 73/47/4
f 67/53/2 65/52/2 66/51/2
f 65/52/2 67/53/2 76/54/2
f 70/57/1 65/56/1 76/55/1
f 65/56/1 70/57/1 64/58/1
f 63/9/6 67/10/6 66/59/6
f 67/10/6 63/9/6 69/8/6
f 70/62/5 63/61/5 64/60/5
f 63/61/5 70/62/5 69/63/5
f 18/65/4 80/27/4 79/64/4
f 80/27/4 18/65/4 19/7/4
f 83/68/4 82/67/4 81/66/4
f 82/67/4 83/68/4 84/69/4
f 87/72/3 86/71/3 85/70/3
f 86/71/3 87/72/3 88/73/3
f 84/72/1 88/75/1 87/74/1
f 88/75/1 84/72/1 83/73/1
f 23/78/5 87/77/5 27/76/5
f 87/77/5 23/78/5 24/79/5
f 87/77/5 24/79/5 84/15/5
f 84/15/5 24/79/5 82/80/5
f 82/80/5 24/79/5 26/5/5
f 82/80/5 26/5/5 89/81/5
f 89/81/5 26/5/5 25/7/5
f 85/82/5 27/76/5 87/77/5
f 80/83/5 27/76/5 85/82/5
f 27/76/5 80/83/5 19/84/5
f 33/87/5 91/86/5 90/85/5
f 91/86/5 33/87/5 92/70/5
f 92/70/5 33/87/5 34/21/5
f 95/90/2 94/89/2 93/88/2
f 94/89/2 95/90/2 32/91/2
f 32/91/2 95/90/2 30/7/2
f 98/94/2 97/93/2 96/92/2
f 97/93/2 98/94/2 99/95/2
f 94/98/6 33/97/6 90/96/6
f 33/97/6 94/98/6 32/2/6
f 94/17/4 100/99/4 93/22/4
f 100/99/4 94/17/4 101/100/4
f 101/100/4 94/17/4 97/18/4
f 90/19/4 97/18/4 94/17/4
f 91/101/4 97/18/4 90/19/4
f 97/18/4 91/101/4 96/102/4
f 18/84/5 102/26/5 28/21/5
f 102/26/5 18/84/5 79/103/5
f 29/21/4 95/22/4 103/26/4
f 95/22/4 29/21/4 30/20/4
f 104/106/1 97/105/1 99/104/1
f 97/105/1 104/106/1 101/107/1
f 104/109/5 100/86/5 101/108/5
f 100/86/5 104/109/5 105/110/5
f 85/74/1 79/112/1 80/111/1
f 79/112/1 85/74/1 86/75/1
f 79/112/1 86/75/1 81/73/1
f 81/73/1 106/113/1 79/112/1
f 81/73/1 89/114/1 106/113/1
f 89/114/1 81/73/1 82/72/1
f 79/112/1 106/113/1 102/115/1
f 102/115/1 106/113/1 92/116/1
f 92/116/1 106/113/1 91/117/1
f 91/117/1 106/113/1 98/104/1
f 98/104/1 106/113/1 105/106/1
f 105/106/1 106/113/1 100/107/1
f 100/107/1 106/113/1 95/118/1
f 95/118/1 106/113/1 103/119/1
f 93/120/1 100/107/1 95/118/1
f 96/105/1 91/117/1 98/104/1
f 92/123/4 28/122/4 102/121/4
f 28/122/4 92/123/4 34/124/4
f 36/126/5 21/114/5 10/125/5
f 21/114/5 36/126/5 22/113/5
f 36/125/3 38/113/3 22/114/3
f 38/113/3 36/125/3 49/126/3
f 109/129/3 108/128/3 107/127/3
f 108/128/3 109/129/3 110/23/3
f 108/128/3 110/23/3 111/130/3
f 111/130/3 110/23/3 112/24/3
f 113/131/3 107/127/3 108/128/3
f 107/127/3 113/131/3 114/25/3
f 114/25/3 113/131/3 112/24/3
f 114/25/3 112/24/3 110/23/3
f 54/133/3 115/129/3 57/132/3
f 115/129/3 54/133/3 55/134/3
f 115/129/3 55/134/3 116/23/3
f 116/23/3 55/134/3 117/25/3
f 118/127/3 57/132/3 115/129/3
f 57/132/3 118/127/3 56/135/3
f 56/135/3 118/127/3 117/25/3
f 56/135/3 117/25/3 55/134/3
f 117/52/5 107/137/5 114/136/5
f 107/137/5 117/52/5 118/51/5
f 117/140/1 110/139/1 116/138/1
f 110/139/1 117/140/1 114/141/1
f 115/61/2 110/143/2 109/142/2
f 110/143/2 115/61/2 116/60/2
f 109/146/6 118/145/6 115/144/6
f 118/145/6 109/146/6 107/147/6
f 121/150/6 120/149/6 119/148/6
f 120/149/6 121/150/6 122/151/6
f 120/149/6 122/151/6 123/152/6
f 58/155/5 122/154/5 124/153/5
f 122/154/5 58/155/5 123/156/5
f 126/125/5 125/157/5 124/153/5
f 125/157/5 126/125/5 127/158/5
f 126/153/4 10/126/4 21/113/4
f 10/126/4 126/153/4 12/159/4
f 31/114/4 126/153/4 21/113/4
f 126/153/4 31/114/4 128/158/4
f 126/153/4 128/158/4 127/157/4
f 31/113/2 129/33/2 128/160/2
f 129/33/2 31/113/2 38/114/2
f 129/33/2 38/114/2 48/161/2
f 48/161/2 38/114/2 49/125/2
f 130/162/2 128/160/2 129/33/2
f 125/162/3 129/126/3 124/33/3
f 129/126/3 125/162/3 130/160/3
f 122/164/3 43/163/3 124/33/3
f 43/163/3 122/164/3 121/165/3
f 12/167/6 124/151/6 43/166/6
f 124/151/6 12/167/6 126/168/6
f 129/170/6 58/169/6 124/151/6
f 58/169/6 129/170/6 48/171/6
f 128/4/6 125/151/6 127/168/6
f 125/151/6 128/4/6 130/170/6
f 106/26/2 29/7/2 103/27/2
f 29/7/2 106/26/2 37/21/2
f 25/21/3 106/27/3 89/26/3
f 106/27/3 25/21/3 37/7/3
f 39/173/2 131/172/2 42/19/2
f 131/172/2 39/173/2 40/174/2
f 131/172/2 40/174/2 132/175/2
f 132/175/2 40/174/2 133/100/2
f 134/18/2 42/19/2 131/172/2
f 42/19/2 134/18/2 41/17/2
f 41/17/2 134/18/2 133/100/2
f 41/17/2 133/100/2 40/174/2
f 136/68/3 131/177/3 135/176/3
f 131/177/3 136/68/3 134/69/3
f 133/69/1 136/178/1 137/95/1
f 136/178/1 133/69/1 134/177/1
f 135/172/2 138/179/2 136/18/2
f 138/179/2 135/172/2 139/175/2
f 138/179/2 139/175/2 140/29/2
f 140/29/2 139/175/2 141/28/2
f 142/30/2 136/18/2 138/179/2
f 136/18/2 142/30/2 137/100/2
f 137/100/2 142/30/2 141/28/2
f 137/100/2 141/28/2 139/175/2
f 133/72/4 139/75/4 132/74/4
f 139/75/4 133/72/4 137/73/4
f 135/180/6 132/72/6 139/109/6
f 132/72/6 135/180/6 131/74/6
f 119/32/2 43/33/2 121/164/2
f 43/33/2 119/32/2 45/31/2
f 58/153/4 120/181/4 123/154/4
f 45/182/4 120/181/4 58/153/4
f 120/181/4 45/182/4 119/183/4
f 145/127/2 144/131/2 143/25/2
f 144/131/2 145/127/2 146/129/2
f 144/131/2 146/129/2 147/128/2
f 147/128/2 146/129/2 148/130/2
f 149/24/2 143/25/2 144/131/2
f 143/25/2 149/24/2 150/23/2
f 150/23/2 149/24/2 148/130/2
f 150/23/2 148/130/2 146/129/2
f 47/132/2 151/127/2 53/135/2
f 151/127/2 47/132/2 50/133/2
f 151/127/2 50/133/2 152/129/2
f 152/129/2 50/133/2 153/23/2
f 154/25/2 53/135/2 151/127/2
f 53/135/2 154/25/2 51/134/2
f 51/134/2 154/25/2 153/23/2
f 51/134/2 153/23/2 50/133/2
f 143/136/3 151/51/3 145/137/3
f 151/51/3 143/136/3 154/52/3
f 153/69/1 143/178/1 150/95/1
f 143/178/1 153/69/1 154/177/1
f 153/60/4 146/142/4 152/61/4
f 146/142/4 153/60/4 150/143/4
f 145/180/6 152/72/6 146/109/6
f 152/72/6 145/180/6 151/74/6
f 155/186/4 16/185/4 13/184/4
f 44/188/2 155/187/2 13/185/2
f 155/187/2 44/188/2 156/189/2
f 156/189/2 44/188/2 157/190/2
f 158/192/3 52/185/3 35/191/3
f 157/194/4 44/193/4 46/191/4

usemtl window

f 73/47/4 75/49/4 78/50/4
f 75/49/4 73/47/4 74/48/4
f 71/12/4 77/13/4 68/46/4
f 77/13/4 71/12/4 72/11/4
f 161/197/4 160/196/4 159/195/4
f 160/196/4 161/197/4 162/198/4
f 111/130/3 113/131/3 108/128/3
f 113/131/3 111/130/3 112/24/3
f 140/29/2 142/30/2 138/179/2
f 142/30/2 140/29/2 141/28/2
f 147/128/2 149/24/2 144/131/2
f 149/24/2 147/128/2 148/130/2

usemtl door

f 83/15/5 86/16/5 88/77/5
f 86/16/5 83/15/5 81/14/5
f 105/99/4 159/195/4 98/102/4
f 159/195/4 105/99/4 104/100/4
f 159/195/4 104/100/4 161/197/4
f 161/197/4 104/100/4 162/198/4
f 160/196/4 98/102/4 159/195/4
f 98/102/4 160/196/4 99/18/4
f 99/18/4 160/196/4 162/198/4
f 99/18/4 162/198/4 104/100/4

usemtl roof

f 165/201/4 164/200/4 163/199/4
f 164/200/4 165/201/4 166/202/4
f 166/205/7 167/204/7 164/203/7
f 167/204/7 166/205/7 168/206/7
f 168/206/7 166/205/7 169/207/7
f 171/209/8 35/208/8 170/203/8
f 35/208/8 171/209/8 158/210/8
f 16/211/8 170/203/8 35/208/8
f 16/211/8 163/204/8 170/203/8
f 163/204/8 16/211/8 165/212/8
f 165/212/8 16/211/8 155/213/8
f 164/216/9 170/215/9 163/214/9
f 170/215/9 164/216/9 167/217/9
f 165/220/2 169/219/2 166/218/2
f 169/219/2 165/220/2 155/187/2
f 169/219/2 155/187/2 156/189/2
f 167/223/3 171/222/3 170/221/3
f 171/222/3 167/223/3 168/224/3
f 172/200/3 171/222/3 168/224/3
f 171/222/3 172/200/3 173/199/3
f 175/223/4 156/225/4 174/221/4
f 156/225/4 175/223/4 169/226/4
f 174/228/10 172/216/10 175/227/10
f 172/216/10 174/228/10 173/214/10
f 171/212/11 52/229/11 158/213/11
f 52/229/11 171/212/11 173/204/11
f 52/229/11 173/204/11 46/230/11
f 46/230/11 173/204/11 174/231/11
f 156/232/11 46/230/11 174/231/11
f 46/230/11 156/232/11 157/233/11
f 175/235/12 168/205/12 169/234/12
f 168/205/12 175/235/12 172/203/12

