# Created by Kenney (www.kenney.nl)

mtllib path_tilesLong.mtl

g path_tilesLong

v -0.07 0.005 -0.095
v 0.07 0.005 -0.095
v -0.07 0.01 -0.095
v 0.07 0.01 -0.095
v 0.07 0.01 -0.195
v 0.07 0.01 -0.105
v -0.07 0.01 -0.195
v -0.07 0.01 -0.105
v -0.07 0.005 -0.195
v 0.07 0.005 -0.195
v 0.07 0.005 -0.005
v 0.07 0.005 0.005
v -0.07 0.005 -0.005
v -0.07 0.005 0.005
v 0.07 0.01 -0.005
v -0.07 0.01 -0.005
v 0.07 0.005 -0.105
v -0.07 0.005 -0.105
v 0.07 0.005 0.095
v 0.07 0.005 0.105
v -0.07 0.005 0.095
v -0.07 0.005 0.105
v -0.07 0.01 0.105
v 0.07 0.01 0.105
v 0.07 0.01 0.195
v -0.07 0.01 0.195
v 0.07 0.005 -0.2
v -0.07 0.005 -0.2
v 0.07 0.005 0.195
v -0.07 0.005 0.195
v 0.07 0.01 0.095
v -0.07 0.01 0.095
v -0.07 2.819966E-18 -0.2
v -0.07 2.819966E-18 0.2
v -0.07 0.01 0.005
v -0.07 0.005 0.2
v 0.07 0.005 0.2
v 0.07 0 0.2
v 0.07 0.01 0.005
v 0.07 0 -0.2

vn 0 0 -1
vn 0 1 0
vn 0 0 1
vn -1 0 0
vn 1 0 0
vn 0 -1 0

vt 2.755906 0.1968504
vt -2.755906 0.1968504
vt 2.755906 0.3937008
vt -2.755906 0.3937008
vt -2.755906 -7.677166
vt -2.755906 -4.133858
vt 2.755906 -7.677166
vt 2.755906 -4.133858
vt -2.755906 -0.1968504
vt 2.755906 -0.1968504
vt -2.755906 -3.740157
vt 2.755906 -3.740157
vt -2.755906 3.740157
vt -2.755906 4.133858
vt 2.755906 3.740157
vt 2.755906 4.133858
vt -2.755906 7.677166
vt 2.755906 7.677166
vt -2.755906 -7.874016
vt 2.755906 -7.874016
vt -7.874016 1.110223E-16
vt -7.874016 0.1968504
vt 7.874016 1.110223E-16
vt -7.677166 0.1968504
vt -4.133858 0.1968504
vt -7.677166 0.3937008
vt -3.740157 0.1968504
vt -0.1968504 0.1968504
vt -3.740157 0.3937008
vt 0.1968504 0.1968504
vt 3.740157 0.1968504
vt 0.1968504 0.3937008
vt 4.133858 0.1968504
vt 4.133858 0.3937008
vt 7.677166 0.1968504
vt 7.874016 0.1968504
vt 7.677166 0.3937008
vt 3.740157 0.3937008
vt -0.1968504 0.3937008
vt -4.133858 0.3937008
vt -2.755906 7.874016
vt 2.755906 7.874016
vt 2.755906 -1.136868E-12
vt -2.755906 -1.136757E-12
vt -7.874016 0
vt 7.874016 0
vt -2.755906 0
vt 2.755906 1.110223E-16

usemtl pavement

f 3/3/1 2/2/1 1/1/1
f 2/2/1 3/3/1 4/4/1
f 7/7/2 6/6/2 5/5/2
f 6/6/2 7/7/2 8/8/2
f 7/3/1 10/2/1 9/1/1
f 10/2/1 7/3/1 5/4/1
f 13/10/2 12/2/2 11/9/2
f 12/2/2 13/10/2 14/1/2
f 3/12/2 15/9/2 4/11/2
f 15/9/2 3/12/2 16/10/2
f 18/8/2 2/11/2 17/6/2
f 2/11/2 18/8/2 1/12/2
f 21/15/2 20/14/2 19/13/2
f 20/14/2 21/15/2 22/16/2
f 23/3/1 20/2/1 22/1/1
f 20/2/1 23/3/1 24/4/1
f 23/16/2 25/17/2 24/14/2
f 25/17/2 23/16/2 26/18/2
f 15/3/3 13/2/3 11/1/3
f 13/2/3 15/3/3 16/4/3
f 28/20/2 10/5/2 27/19/2
f 10/5/2 28/20/2 9/7/2
f 25/3/3 30/2/3 29/1/3
f 30/2/3 25/3/3 26/4/3
f 31/3/3 21/2/3 19/1/3
f 21/2/3 31/3/3 32/4/3
f 6/3/3 18/2/3 17/1/3
f 18/2/3 6/3/3 8/4/3
f 34/23/4 28/22/4 33/21/4
f 28/22/4 34/23/4 9/24/4
f 9/24/4 34/23/4 18/25/4
f 9/24/4 18/25/4 7/26/4
f 18/25/4 34/23/4 1/27/4
f 1/27/4 34/23/4 13/28/4
f 1/27/4 13/28/4 3/29/4
f 13/28/4 34/23/4 14/30/4
f 14/30/4 34/23/4 21/31/4
f 14/30/4 21/31/4 35/32/4
f 21/31/4 34/23/4 22/33/4
f 22/33/4 34/23/4 23/34/4
f 23/34/4 34/23/4 30/35/4
f 30/35/4 34/23/4 36/36/4
f 26/37/4 23/34/4 30/35/4
f 32/38/4 35/32/4 21/31/4
f 16/39/4 3/29/4 13/28/4
f 8/40/4 7/26/4 18/25/4
f 30/18/2 37/41/2 29/17/2
f 37/41/2 30/18/2 36/42/2
f 37/1/3 34/44/3 38/43/3
f 34/44/3 37/1/3 36/2/3
f 35/3/1 12/2/1 14/1/1
f 12/2/1 35/3/1 39/4/1
f 6/34/5 10/35/5 5/37/5
f 17/33/5 10/35/5 6/34/5
f 38/45/5 10/35/5 17/33/5
f 40/46/5 10/35/5 38/45/5
f 10/35/5 40/46/5 27/36/5
f 38/45/5 17/33/5 2/31/5
f 38/45/5 2/31/5 11/30/5
f 11/30/5 2/31/5 15/32/5
f 15/32/5 2/31/5 4/38/5
f 38/45/5 11/30/5 12/28/5
f 38/45/5 12/28/5 19/27/5
f 19/27/5 12/28/5 31/29/5
f 31/29/5 12/28/5 39/39/5
f 38/45/5 19/27/5 20/25/5
f 38/45/5 20/25/5 29/24/5
f 29/24/5 20/25/5 25/26/5
f 25/26/5 20/25/5 24/40/5
f 38/45/5 29/24/5 37/22/5
f 33/48/1 27/2/1 40/47/1
f 27/2/1 33/48/1 28/1/1
f 35/1/2 31/13/2 39/2/2
f 31/13/2 35/1/2 32/15/2

usemtl _defaultMat

f 34/2/6 40/3/6 38/4/6
f 40/2/6 34/3/6 33/4/6

