# Created by Kenney (www.kenney.nl)

mtllib road_side.mtl

g road_side

v 0.5 0.01 -0.5550001
v -0.5 0.01 -0.5550001
v 0.5 0.02 -0.5550001
v -0.5 0.02 -0.5550001
v -0.5 0 -0.655
v 0.5 0 -0.655
v -0.5 0.02 -0.655
v 0.5 0.02 -0.655
v -0.5 0.01 0.555
v 0.5 0.01 0.555
v -0.5 0.02 0.555
v 0.5 0.02 0.555
v 0.5 2.664868E-16 0.655
v -0.5 2.664868E-16 0.655
v 0.5 0.02 0.655
v -0.5 0.02 0.655
v 0.5 0.01 0.455
v 0.5 0.01 0.165
v 0.5 0.01 0.145
v 0.5 0.01 -0.4549999
v -0.5 0.01 -0.4549999
v -0.5 0.01 0.145
v -0.5 0.01 0.165
v -0.5 0.01 0.455

vn 0 0 1
vn 0 0 -1
vn 0 -1 0
vn 0 1 0
vn 1 0 0
vn -1 0 0

vt 19.68504 0.3937008
vt -19.68504 0.3937008
vt 19.68504 0.7874016
vt -19.68504 0.7874016
vt 19.68504 0
vt -19.68504 0
vt 19.68504 -25.7874
vt -19.68504 -25.7874
vt 19.68504 25.7874
vt -19.68504 25.7874
vt -19.68504 -21.85039
vt 19.68504 -21.85039
vt 19.68504 1.049161E-14
vt -19.68504 1.049161E-14
vt -19.68504 21.85039
vt 19.68504 21.85039
vt -21.85039 0.7874016
vt -21.85039 0.3937008
vt -25.7874 0.7874016
vt -25.7874 4.624184E-13
vt -17.91339 0.3937008
vt -6.496063 0.3937008
vt -5.708662 0.3937008
vt 17.91339 0.3937008
vt 21.85039 0.3937008
vt 25.7874 4.519267E-13
vt 21.85039 0.7874016
vt 25.7874 0.7874016
vt -25.7874 -6.171686E-13
vt 25.7874 -6.06677E-13
vt 5.708662 0.3937008
vt 6.496063 0.3937008
vt -19.68504 17.91339
vt 19.68504 17.91339
vt -19.68504 6.496063
vt 19.68504 6.496063
vt -19.68504 -17.91339
vt -19.68504 5.708662
vt 19.68504 -17.91339
vt 19.68504 5.708662

usemtl pavement

f 3/3/1 2/2/1 1/1/1
f 2/2/1 3/3/1 4/4/1
f 7/3/2 6/6/2 5/5/2
f 6/6/2 7/3/2 8/4/2
f 11/3/2 10/2/2 9/1/2
f 10/2/2 11/3/2 12/4/2
f 13/9/3 5/8/3 6/7/3
f 5/8/3 13/9/3 14/10/3
f 7/7/4 3/11/4 8/8/4
f 3/11/4 7/7/4 4/12/4
f 15/3/1 14/14/1 13/13/1
f 14/14/1 15/3/1 16/4/1
f 11/16/4 15/10/4 12/15/4
f 15/10/4 11/16/4 16/9/4

usemtl asphalt

f 15/19/5 10/18/5 12/17/5
f 13/20/5 10/18/5 15/19/5
f 13/20/5 17/21/5 10/18/5
f 13/20/5 18/22/5 17/21/5
f 13/20/5 19/23/5 18/22/5
f 13/20/5 20/24/5 19/23/5
f 13/20/5 1/25/5 20/24/5
f 6/26/5 1/25/5 13/20/5
f 6/26/5 3/27/5 1/25/5
f 3/27/5 6/26/5 8/28/5
f 5/29/6 2/18/6 7/19/6
f 2/18/6 5/29/6 14/30/6
f 2/18/6 14/30/6 21/21/6
f 21/21/6 14/30/6 22/31/6
f 22/31/6 14/30/6 23/32/6
f 23/32/6 14/30/6 24/24/6
f 24/24/6 14/30/6 9/25/6
f 9/25/6 14/30/6 11/27/6
f 11/27/6 14/30/6 16/28/6
f 4/17/6 7/19/6 2/18/6
f 18/35/4 24/34/4 17/33/4
f 24/34/4 18/35/4 23/36/4
f 21/39/4 19/38/4 20/37/4
f 19/38/4 21/39/4 22/40/4

usemtl asphaltEdge

f 2/12/4 20/37/4 1/11/4
f 20/37/4 2/12/4 21/39/4
f 24/34/4 10/15/4 17/33/4
f 10/15/4 24/34/4 9/16/4

usemtl line

f 22/40/4 18/35/4 19/38/4
f 18/35/4 22/40/4 23/36/4

