# Created by Kenney (www.kenney.nl)

mtllib road_sideEntryBarrier.mtl

g road_sideEntryBarrier

v 0.04744465 3.921671E-13 -0.6513491
v 0.04744465 0.08 -0.6513491
v 0.01545647 4.107648E-13 -0.6539059
v 0.01545647 0.08 -0.6539059
v 0.2399268 7.155947E-14 -0.5173023
v 0.2100773 7.803411E-14 -0.5381539
v 0.2399268 0.08 -0.5373023
v 0.2100773 0.08 -0.5581539
v 0.271124 2.72651E-12 -0.4917907
v 0.2684114 2.851522E-12 -0.4942871
v 0.271124 0.08 -0.5117906
v 0.2684114 0.08 -0.5142872
v 0.2955981 0.08 -0.4892666
v 0.2955981 2.716922E-12 -0.4692667
v 0.3303735 0.08 -0.5048778
v 0.3303735 3.161774E-13 -0.5048778
v 0.3583035 0.08 -0.4759401
v 0.3583035 3.088004E-13 -0.4759401
v 0.4593443 5.611733E-16 -0.3069354
v 0.4481587 7.385492E-15 -0.3130431
v 0.4593443 0.08 -0.3269354
v 0.4481587 0.08 -0.3330431
v 0.3215647 0.08 -0.4623631
v 0.3215647 2.713702E-12 -0.4423631
v 0.3463891 0.08 -0.4336706
v 0.3660921 0.08 -0.4084477
v 0.3463891 2.709209E-12 -0.4136707
v 0.3660921 2.708062E-12 -0.3884478
v 0.4182634 0.08 -0.4039016
v 0.4182634 2.897318E-13 -0.4039016
v 0.4310194 0.08 -0.3903391
v 0.4310194 2.8694E-13 -0.3903391
v 0.4097769 2.684571E-12 -0.3418381
v 0.3956982 2.692431E-12 -0.3552744
v 0.4097769 0.08 -0.3618382
v 0.3956982 0.08 -0.3752744
v 0.3009249 3.259063E-13 -0.53198
v 0.3009249 0.08 -0.53198
v 0.2698431 3.356747E-13 -0.5570934
v 0.2698431 0.08 -0.5570934
v 0.2024142 3.535646E-13 -0.6004944
v 0.2024142 0.08 -0.6004944
v 0.1659991 3.634062E-13 -0.6182172
v 0.1659991 0.08 -0.6182172
v 0.1121937 1.140479E-13 -0.5855631
v 0.07705965 1.304742E-13 -0.5954511
v 0.1121937 0.08 -0.6055632
v 0.07705965 0.08 -0.6154512
v 0.5 0.08 -0.3451514
v 0.5 2.278505E-13 -0.3451514
v 0.5 0.08 -0.315124
v 0.5 1.093019E-13 -0.2951241
v 0.2370279 3.434578E-13 -0.5800169
v 0.2370279 0.08 -0.5800169
v 0.2265822 3.471632E-13 -0.5861965
v 0.2265822 0.08 -0.5861965
v 0.4735953 2.733534E-13 -0.3558402
v 0.4735953 0.08 -0.3558402
v 0.4644981 2.772027E-13 -0.3617063
v 0.4644981 0.08 -0.3617063
v 0.4430759 2.833587E-13 -0.3788328
v 0.4430759 0.08 -0.3788328
v 0.1788228 8.812677E-14 -0.556644
v 0.1461697 9.999601E-14 -0.5725359
v 0.1788228 0.08 -0.5766439
v 0.1461697 0.08 -0.5925359
v 0.3848297 0.08 -0.4452806
v 0.3848297 2.995058E-13 -0.4452806
v 0.4881401 1.056218E-13 -0.3485448
v 0.4936028 2.636471E-13 -0.3466164
v 0.4881401 0.08 -0.3485448
v 0.4936028 0.08 -0.3466164
v 0.4046615 0.08 -0.4198928
v 0.4046615 2.937418E-13 -0.4198928
v 0.4980154 2.597387E-13 -0.3454771
v 0.4980154 0.08 -0.3454771
v 0.3048157 3.261912E-13 -0.5283992
v 0.3048157 0.08 -0.5283992
v 0.127872 3.73169E-13 -0.632836
v 0.127872 0.08 -0.632836
v -0.5 0.08 -0.655
v -0.5 0.08 -0.625
v -0.5 1.987343E-13 -0.655
v -0.5 2.674044E-12 -0.605
v 0.4814864 2.676853E-13 -0.3515314
v 0.4814864 0.08 -0.3515314
v 0.4542834 2.806995E-13 -0.3693219
v 0.4542834 0.08 -0.3693219
v 5.505263E-05 1.580084E-13 -0.655
v 5.505264E-05 0.08 -0.655
v 0.4958282 2.805867E-15 -0.295418
v 0.4877475 5.019541E-16 -0.2967441
v 0.4790759 0 -0.298983
v 0.4696409 4.004352E-16 -0.3023137
v 0.4361152 2.476438E-13 -0.3208089
v 0.4232876 2.67828E-12 -0.3303728
v 0.3811708 2.699706E-12 -0.3707203
v 0.08824086 3.827794E-13 -0.6439898
v 0.04103079 1.492806E-13 -0.6019504
v 0.01171159 1.638541E-13 -0.6042941
v 0.001773712 6.285705E-15 -0.605
v 0.08824086 0.08 -0.6439898
v 0.04103079 0.08 -0.6219505
v 0.001773712 0.08 -0.625
v 0.01171159 0.08 -0.624294
v 0.4958282 0.08 -0.315418
v 0.4877475 0.08 -0.3167441
v 0.4790759 0.08 -0.318983
v 0.4696409 0.08 -0.3223137
v 0.4361152 0.08 -0.3408089
v 0.4232876 0.08 -0.3503728
v 0.3811708 0.08 -0.3907202
v -0.5 7.291192E-13 0.605
v 0.5 7.291192E-13 0.605
v -0.5 0.08 0.625
v 0.5 0.08 0.625
v 0.5 7.291192E-13 0.655
v -0.5 7.291192E-13 0.655
v 0.5 0.08 0.655
v -0.5 0.08 0.655

vn 0.1287584 0 -0.991676
vn 0.0752694 0 -0.9971632
vn -0.5919045 0.1954857 0.7819427
vn -0.5323964 0.2053052 0.8212209
vn -0.5866982 0.1964067 0.7856269
vn -0.5270962 0.2061081 0.8244325
vn -0.6660097 0.1809178 0.723671
vn -0.6442654 0.1854917 0.7419669
vn -0.6392933 0.1865009 0.7460037
vn -0.6854281 0.1765999 0.7063997
vn -0.6900797 0.1755311 0.7021245
vn 0.6986606 0 -0.7154533
vn 0.7381572 0 -0.6746288
vn -0.4316101 0.2187818 0.875127
vn -0.4970708 0.2104506 0.8418023
vn -0.4363473 0.2182283 0.8729131
vn -0.5019937 0.2097621 0.8390483
vn -0.72574 0.166857 0.6674282
vn -0.7300262 0.1657535 0.6630139
vn -0.7608873 0.1573775 0.6295099
vn -0.7671903 0.1555671 0.6222684
vn -0.7647943 0.1562595 0.625038
vn -0.7639431 0.1565042 0.626017
vn 0.7453079 0 -0.6667204
vn 0.7096789 0 -0.7045254
vn -0.6554853 0.1831648 0.7326594
vn -0.6968021 0.173962 0.6958478
vn -0.6600291 0.1822025 0.7288099
vn -0.701052 0.1729546 0.6918185
vn 0.6531666 0 -0.7572142
vn 0.6009374 0 -0.799296
vn 0.4737825 0 -0.8806419
vn 0.3981851 0 -0.9173051
vn -0.3083825 0.2307151 0.9228602
vn -0.2196941 0.2366102 0.9464408
vn -0.3042351 0.2310387 0.9241548
vn -0.2165379 0.2367813 0.9471251
vn 1 0 0
vn 0.5413064 0 -0.8408254
vn 0.5091712 0 -0.8606653
vn 0.5109214 0 -0.8596274
vn 0.5701517 0 -0.8215395
vn 0.6690073 0 -0.7432558
vn -0.4653172 0.214679 0.8587158
vn -0.3905425 0.2232746 0.8930986
vn -0.4601246 0.2153363 0.8613452
vn -0.3857195 0.2237673 0.8950691
vn 0.7723939 0 -0.6351438
vn 0.371507 0 -0.9284302
vn 0.2917081 0 -0.9565074
vn 0.7750577 0 -0.6318905
vn 0.1619343 0 -0.9868015
vn 0.20617 0 -0.9785162
vn 0.6771845 0 -0.7358133
vn 0.3147939 0 -0.94916
vn -1 0 0
vn 0.4447075 0 -0.8956758
vn 0.6226888 0 -0.7824696
vn 0.03545193 0 -0.9993715
vn 0 0 -1
vn 0 -1 0
vn 0.2244784 0 -0.974479
vn -0.1259306 0.2406048 0.9624193
vn -0.1240401 0.2406626 0.9626503
vn -0.03458439 0.2423905 0.9695621
vn -0.03420803 0.2423937 0.9695747
vn -0.07308401 0.241887 0.9675481
vn -0.07298452 0.2418888 0.9675552
vn 0 0.2425356 0.9701425
vn 0 1 0
vn 0 0.2425356 -0.9701425
vn -0.5560466 0.2015837 0.8063349
vn -0.560968 0.2007801 0.8031203
vn -0.608727 0.1924229 0.7696914
vn -0.6135073 0.1915277 0.766111
vn -0.2818997 0.2326993 0.9307972
vn -0.3597434 0.2262982 0.9051927
vn -0.2855524 0.2324372 0.9297488
vn -0.3640659 0.2258912 0.9035647
vn -0.7371339 0.1638927 0.6555707
vn -0.7332064 0.1649257 0.6597028
vn -0.1989128 0.2376891 0.9507564
vn -0.2016438 0.2375537 0.9502147
vn 0 0 1
vn -0.1120283 0.2410088 0.9640354
vn -0.1136261 0.2409649 0.9638595
vn -0.06821869 0.2419706 0.9678825

vt 0.1812758 1.197356E-10
vt 0.1812758 3.149606
vt 1.44467 1.204678E-10
vt 1.44467 3.149606
vt -3.919473 4.438167
vt -5.352985 4.438167
vt -4.370394 7.653239
vt -5.803906 7.653239
vt -5.257335 3.885224
vt -5.402477 3.885224
vt -5.790551 7.087677
vt -5.935693 7.087677
vt -4.481052 7.087677
vt -3.947836 3.885224
vt 5.269241 3.149606
vt 5.269241 1.089092E-10
vt 3.68586 3.149606
vt 3.68586 1.086188E-10
vt 10.08124 4.130585
vt 9.579493 4.130585
vt 9.703888 7.35512
vt 9.202138 7.35512
vt -5.777812 6.823822
vt -4.305739 6.823822
vt -5.211257 3.6271
vt -3.739184 3.6271
vt -5.05993 6.346417
vt -3.799841 6.346417
vt -4.439411 3.15973
vt -3.179321 3.15973
vt 0.3014164 3.149606
vt 0.3014164 1.063054E-10
vt -0.4316066 3.149606
vt -0.4316066 1.061955E-10
vt 2.379261 3.714948
vt 1.613067 3.714948
vt 1.835633 6.915649
vt 1.069439 6.915649
vt 3.947481 1.150603E-10
vt 3.947481 3.149606
vt 5.52069 1.154448E-10
vt 5.52069 3.149606
vt 3.180299 1.227057E-10
vt 3.180299 3.149606
vt 4.774742 1.230931E-10
vt 4.774742 3.149606
vt -1.993717 5.472159
vt -3.430685 5.472159
vt -2.207036 8.711683
vt -3.644004 8.711683
vt 13.58864 3.149606
vt 13.58864 2.959168E-11
vt 12.40646 3.149606
vt 11.61906 2.492441E-11
vt 3.595521 1.206615E-10
vt 3.595521 3.149606
vt 4.073346 1.208074E-10
vt 4.073346 3.149606
vt 5.178883 1.210594E-10
vt 5.178883 3.149606
vt -8.078127 1.065231E-10
vt -8.078127 3.149606
vt -7.651966 1.066747E-10
vt -7.651966 3.149606
vt -2.322087 1.074878E-10
vt -2.322087 3.149606
vt -1.665946 1.076288E-10
vt -1.665946 3.149606
vt -3.259948 4.997426
vt -4.689672 4.997426
vt -3.604524 8.225628
vt -5.034248 8.225628
vt 4.940608 3.149606
vt 4.940608 1.057376E-10
vt 3.34447 3.149606
vt 3.34447 1.053716E-10
vt -13.55423 8.839757E-11
vt -13.7823 9.461904E-11
vt -13.55423 3.149606
vt -13.7823 3.149606
vt 2.269934 3.149606
vt 2.269934 1.044931E-10
vt 1.443421 3.149606
vt 1.443421 1.043352E-10
vt -17.22476 7.839766E-11
vt -17.22476 3.149606
vt -17.14558 7.96531E-11
vt -17.14558 3.149606
vt 3.889851 1.118252E-10
vt 3.889851 3.149606
vt 5.257335 1.122194E-10
vt 5.257335 3.149606
vt 5.465513 3.149606
vt 5.465513 1.122082E-10
vt 2.611449 1.238666E-10
vt 2.611449 3.149606
vt 4.219073 1.24251E-10
vt 4.219073 3.149606
vt -25.7874 3.149606
vt -24.6063 3.149606
vt -25.7874 -1.289388E-11
vt -23.8189 8.455928E-11
vt -10.00493 1.038777E-10
vt -10.00493 3.149606
vt -9.650956 1.041009E-10
vt -9.650956 3.149606
vt -6.149212 1.078585E-10
vt -6.149212 3.149606
vt -5.647587 1.079962E-10
vt -5.647587 3.149606
vt -4.228631 1.081239E-10
vt -4.228631 3.149606
vt -3.649926 1.082286E-10
vt -3.649926 3.149606
vt 3.851056 1.180937E-10
vt 3.851056 3.149606
vt 5.427 1.184002E-10
vt 5.427 3.149606
vt -0.002167427 1.070057E-10
vt -0.002167427 3.149606
vt 19.68504 1.086091E-10
vt 19.68504 3.149606
vt 19.68504 -13.58864
vt 19.6069 -13.60146
vt 19.68504 -11.61906
vt 19.52079 -11.63063
vt 19.43318 -13.64632
vt 19.20266 -11.68284
vt 19.21811 -13.72224
vt 18.95616 -13.83982
vt 18.86126 -11.77098
vt 18.64548 -14.00945
vt 18.4898 -11.90211
vt 18.28733 -14.2404
vt 18.08442 -12.08407
vt 17.88517 -14.54023
vt 17.64404 -12.32453
vt 17.44393 -14.91468
vt 17.16989 -12.63027
vt 16.96927 -15.36768
vt 16.66487 -13.0068
vt 16.46706 -15.90164
vt 16.13295 -13.4582
vt 15.93156 -16.53121
vt 15.57867 -13.98718
vt 15.15077 -17.53073
vt 15.00673 -14.59529
vt 14.10644 -18.7378
vt 14.41307 -15.29322
vt 13.63737 -16.28625
vt 13.00683 -19.87708
vt 12.66003 -17.41587
vt 12.00062 -20.80312
vt 11.63772 -18.47507
vt 11.84744 -20.94409
vt 10.62375 -21.93281
vt 10.67418 -19.36184
vt 10.56738 -19.46012
vt 9.331808 -22.83531
vt 9.445935 -20.36623
vt 8.270761 -21.18716
vt 8.920561 -23.0786
vt 7.969063 -23.64151
vt 7.040269 -21.91512
vt 6.535397 -24.33926
vt 5.754712 -22.54078
vt 5.03433 -24.9148
vt 4.417074 -23.05366
vt 3.47405 -25.35393
vt 3.033844 -23.44296
vt 1.8679 -25.64366
vt 1.615385 -23.69884
vt 0.6085226 -25.74433
vt 0.4610863 -23.7911
vt 0.002167427 -25.7874
vt 0.06983117 -23.8189
vt -19.68504 -23.8189
vt -19.68504 -25.7874
vt -15.58416 8.77166E-11
vt -15.58416 3.149606
vt -15.40474 8.787047E-11
vt -15.40474 3.149606
vt 1.082091 1.225591E-10
vt 1.082091 3.149606
vt 2.714164 1.229287E-10
vt 2.714164 3.149606
vt 1.825115 1.101742E-10
vt 1.217232 1.201253E-10
vt 1.825115 3.149606
vt 1.217232 3.149606
vt -11.9136 9.368537E-11
vt -11.9136 3.149606
vt -11.62647 1.000658E-10
vt -11.62647 3.149606
vt -1.176059 5.640347
vt -2.617413 5.640347
vt -1.315843 8.883877
vt -2.757196 8.883877
vt -1.618135 5.749971
vt -1.673929 8.996032
vt -1.225893 5.749971
vt -1.281688 8.996032
vt -2.696519 5.252643
vt -4.129112 5.252643
vt -2.978416 8.486921
vt -4.411009 8.486921
vt 4.488488 3.149606
vt 4.488488 1.025909E-10
vt 3.220158 3.149606
vt 3.220158 1.02364E-10
vt 1.903756 1.238918E-10
vt 1.903756 3.149606
vt 3.524653 1.242702E-10
vt 3.524653 3.149606
vt 0.06983117 5.776931
vt -19.68504 5.776931
vt 0.06983117 9.023471
vt -19.68504 9.023471
vt -19.68504 -13.58864
vt -19.68504 -12.40646
vt -19.6069 -13.60146
vt -19.52079 -12.41803
vt -19.43318 -13.64632
vt -19.20266 -12.47024
vt -19.21811 -13.72224
vt -18.95616 -13.83982
vt -18.86126 -12.55839
vt -18.64548 -14.00945
vt -18.4898 -12.68952
vt -18.28733 -14.2404
vt -18.08442 -12.87147
vt -17.88517 -14.54023
vt -17.64404 -13.11193
vt -17.44393 -14.91468
vt -17.16989 -13.41768
vt -16.96927 -15.36768
vt -16.66487 -13.7942
vt -16.46706 -15.90164
vt -16.13295 -14.2456
vt -15.93156 -16.53121
vt -15.57867 -14.77458
vt -15.15077 -17.53073
vt -15.00673 -15.38269
vt -14.10644 -18.7378
vt -14.41307 -16.08062
vt -13.63737 -17.07365
vt -13.00683 -19.87708
vt -12.66003 -18.20327
vt -12.00062 -20.80312
vt -11.63772 -19.26247
vt -11.84744 -20.94409
vt -10.62375 -21.93281
vt -10.67418 -20.14924
vt -10.56738 -20.24753
vt -9.331808 -22.83531
vt -9.445935 -21.15363
vt -8.270761 -21.97456
vt -8.920561 -23.0786
vt -7.969063 -23.64151
vt -7.040269 -22.70252
vt -6.535397 -24.33926
vt -5.754712 -23.32818
vt -5.03433 -24.9148
vt -4.417074 -23.84107
vt -3.47405 -25.35393
vt -3.033844 -24.23036
vt -1.8679 -25.64366
vt -1.615385 -24.48624
vt -0.6085226 -25.74433
vt -0.4610863 -24.5785
vt -0.002167427 -25.7874
vt -0.06983117 -24.6063
vt 19.68504 -24.6063
vt 19.68504 -25.7874
vt -3.669535 4.721623
vt -5.099234 4.721623
vt -4.070457 7.943313
vt -5.500156 7.943313
vt -5.452273 4.157038
vt -5.947134 7.365642
vt -4.010517 4.157038
vt -4.505378 7.365642
vt -0.2780276 5.743512
vt -1.436008 5.743512
vt -0.3407662 8.989446
vt -1.498747 8.989446
vt 19.68504 5.776931
vt 19.68504 9.023471
vt 8.14959 4.095818
vt 7.585408 4.095818
vt 7.722879 7.314193
vt 7.158697 7.314193
vt 19.68504 23.8189
vt -19.68504 23.8189
vt 19.68504 25.7874
vt -19.68504 25.7874
vt 6.215769 4.00671
vt 5.585831 4.00671
vt 5.745122 7.218955
vt 5.115184 7.218955
vt 13.86726 3.987477
vt 13.47334 3.987477
vt 13.60515 7.223418
vt 13.21122 7.223418
vt -0.9238954 6.729039
vt -0.08908352 6.729039
vt -0.350326 3.533568
vt 0.4844858 3.533568
vt -23.8189 2.868458E-11
vt -25.7874 2.868458E-11
vt 15.31978 3.790711
vt 15.12294 7.031279
vt 15.67238 3.790711
vt 15.47554 7.031279
vt 19.68504 2.870548E-11
vt -19.68504 2.870548E-11
vt -19.68504 3.149606
vt -5.48275 6.576453
vt -3.989014 6.576453
vt -4.887283 3.38499
vt -3.393547 3.38499
vt 11.99449 4.098226
vt 11.55015 4.098226
vt 11.67205 7.328714
vt 11.22771 7.328714
vt 18.65476 3.139404
vt 18.5994 6.385472
vt 18.81941 3.139404
vt 18.76405 6.385472
vt -2.91055 6.530394
vt -1.994289 6.530394
vt -2.310771 3.339738
vt -1.394511 3.339738
vt 4.290387 3.875925
vt 3.592753 3.875925
vt 3.780909 7.082239
vt 3.083275 7.082239
vt -19.68504 24.6063
vt 19.68504 24.6063
vt 17.05736 3.506135
vt 16.92985 6.75017
vt 17.37975 3.506135
vt 17.25224 6.75017
vt 23.8189 2.892491E-11
vt 24.6063 3.149606
vt 25.7874 2.892491E-11
vt 25.7874 3.149606

usemtl pavement

f 3/3/2 2/2/1 1/1/1
f 2/2/1 3/3/2 4/4/2
f 7/7/5 6/6/4 5/5/3
f 6/6/4 7/7/5 8/8/6
f 11/11/7 10/10/8 9/9/7
f 10/10/8 11/11/7 12/12/9
f 9/9/7 13/13/10 11/11/7
f 13/13/10 9/9/7 14/14/11
f 17/17/13 16/16/12 15/15/12
f 16/16/12 17/17/13 18/18/13
f 21/21/16 20/20/15 19/19/14
f 20/20/15 21/21/16 22/22/17
f 14/25/11 23/24/18 13/23/10
f 23/24/18 14/25/11 24/26/19
f 27/29/22 26/28/21 25/27/20
f 26/28/21 27/29/22 28/30/23
f 31/33/25 30/32/24 29/31/24
f 30/32/24 31/33/25 32/34/25
f 35/37/28 34/36/27 33/35/26
f 34/36/27 35/37/28 36/38/29
f 39/41/31 38/40/30 37/39/30
f 38/40/30 39/41/31 40/42/31
f 43/45/33 42/44/32 41/43/32
f 42/44/32 43/45/33 44/46/33
f 47/49/36 46/48/35 45/47/34
f 46/48/35 47/49/36 48/50/37
f 51/53/38 50/52/38 49/51/38
f 50/52/38 51/53/38 52/54/38
f 55/57/40 54/56/39 53/55/39
f 54/56/39 55/57/40 56/58/40
f 41/59/32 56/58/40 55/57/40
f 56/58/40 41/59/32 42/60/32
f 59/63/42 58/62/41 57/61/41
f 58/62/41 59/63/42 60/64/42
f 32/67/25 62/66/43 61/65/43
f 62/66/43 32/67/25 31/68/25
f 65/71/46 64/70/45 63/69/44
f 64/70/45 65/71/46 66/72/47
f 67/75/48 18/74/13 17/73/13
f 18/74/13 67/75/48 68/76/48
f 71/79/49 70/78/50 69/77/49
f 70/78/50 71/79/49 72/80/50
f 29/83/24 74/82/51 73/81/51
f 74/82/51 29/83/24 30/84/24
f 75/87/53 49/86/52 50/85/52
f 49/86/52 75/87/53 76/88/53
f 77/91/54 15/90/12 16/89/12
f 15/90/12 77/91/54 78/92/54
f 77/91/54 38/93/30 78/92/54
f 38/93/30 77/91/54 37/94/30
f 79/97/55 44/96/33 43/95/33
f 44/96/33 79/97/55 80/98/55
f 83/101/56 82/100/56 81/99/56
f 82/100/56 83/101/56 84/102/56
f 57/105/41 86/104/57 85/103/57
f 86/104/57 57/105/41 58/106/41
f 87/109/58 60/108/42 59/107/42
f 60/108/42 87/109/58 88/110/58
f 61/113/43 88/112/58 87/111/58
f 88/112/58 61/113/43 62/114/43
f 53/117/39 40/116/31 39/115/31
f 40/116/31 53/117/39 54/118/39
f 83/121/60 90/120/59 89/119/59
f 90/120/59 83/121/60 81/122/60
f 52/125/61 75/124/61 50/123/61
f 75/124/61 52/125/61 91/126/61
f 75/124/61 91/126/61 70/127/61
f 70/127/61 91/126/61 92/128/61
f 70/127/61 92/128/61 69/129/61
f 69/129/61 92/128/61 85/130/61
f 85/130/61 92/128/61 93/131/61
f 85/130/61 93/131/61 57/132/61
f 57/132/61 93/131/61 94/133/61
f 57/132/61 94/133/61 59/134/61
f 59/134/61 94/133/61 19/135/61
f 59/134/61 19/135/61 87/136/61
f 87/136/61 19/135/61 20/137/61
f 87/136/61 20/137/61 61/138/61
f 61/138/61 20/137/61 95/139/61
f 61/138/61 95/139/61 32/140/61
f 32/140/61 95/139/61 96/141/61
f 32/140/61 96/141/61 30/142/61
f 30/142/61 96/141/61 33/143/61
f 30/142/61 33/143/61 74/144/61
f 74/144/61 33/143/61 34/145/61
f 74/144/61 34/145/61 68/146/61
f 68/146/61 34/145/61 97/147/61
f 68/146/61 97/147/61 18/148/61
f 18/148/61 97/147/61 28/149/61
f 18/148/61 28/149/61 27/150/61
f 18/148/61 27/150/61 16/151/61
f 16/151/61 27/150/61 24/152/61
f 16/151/61 24/152/61 77/153/61
f 77/153/61 24/152/61 14/154/61
f 77/153/61 14/154/61 37/155/61
f 37/155/61 14/154/61 39/156/61
f 39/156/61 14/154/61 9/157/61
f 39/156/61 9/157/61 10/158/61
f 39/156/61 10/158/61 53/159/61
f 53/159/61 10/158/61 5/160/61
f 53/159/61 5/160/61 6/161/61
f 53/159/61 6/161/61 55/162/61
f 55/162/61 6/161/61 41/163/61
f 41/163/61 6/161/61 63/164/61
f 41/163/61 63/164/61 43/165/61
f 43/165/61 63/164/61 64/166/61
f 43/165/61 64/166/61 79/167/61
f 79/167/61 64/166/61 45/168/61
f 79/167/61 45/168/61 98/169/61
f 98/169/61 45/168/61 46/170/61
f 98/169/61 46/170/61 1/171/61
f 1/171/61 46/170/61 99/172/61
f 1/171/61 99/172/61 3/173/61
f 3/173/61 99/172/61 100/174/61
f 3/173/61 100/174/61 89/175/61
f 89/175/61 100/174/61 101/176/61
f 89/175/61 101/176/61 84/177/61
f 89/175/61 84/177/61 83/178/61
f 70/181/50 76/180/53 75/179/53
f 76/180/53 70/181/50 72/182/50
f 1/185/1 102/184/62 98/183/62
f 102/184/62 1/185/1 2/186/1
f 90/189/59 3/188/2 89/187/59
f 3/188/2 90/189/59 4/190/2
f 85/193/57 71/192/49 69/191/49
f 71/192/49 85/193/57 86/194/57
f 48/197/37 99/196/63 46/195/35
f 99/196/63 48/197/37 103/198/64
f 100/201/67 104/200/66 101/199/65
f 104/200/66 100/201/67 105/202/68
f 66/205/47 45/204/34 64/203/45
f 45/204/34 66/205/47 47/206/36
f 73/209/51 68/208/48 67/207/48
f 68/208/48 73/209/51 74/210/51
f 98/213/62 80/212/55 79/211/55
f 80/212/55 98/213/62 102/214/62
f 104/217/66 84/216/69 101/215/65
f 84/216/69 104/217/66 82/218/69
f 76/221/70 51/220/70 49/219/70
f 51/220/70 76/221/70 106/222/70
f 106/222/70 76/221/70 72/223/70
f 106/222/70 72/223/70 107/224/70
f 107/224/70 72/223/70 71/225/70
f 107/224/70 71/225/70 86/226/70
f 107/224/70 86/226/70 108/227/70
f 108/227/70 86/226/70 58/228/70
f 108/227/70 58/228/70 109/229/70
f 109/229/70 58/228/70 60/230/70
f 109/229/70 60/230/70 21/231/70
f 21/231/70 60/230/70 88/232/70
f 21/231/70 88/232/70 22/233/70
f 22/233/70 88/232/70 62/234/70
f 22/233/70 62/234/70 110/235/70
f 110/235/70 62/234/70 31/236/70
f 110/235/70 31/236/70 111/237/70
f 111/237/70 31/236/70 29/238/70
f 111/237/70 29/238/70 35/239/70
f 35/239/70 29/238/70 73/240/70
f 35/239/70 73/240/70 36/241/70
f 36/241/70 73/240/70 67/242/70
f 36/241/70 67/242/70 112/243/70
f 112/243/70 67/242/70 17/244/70
f 112/243/70 17/244/70 26/245/70
f 26/245/70 17/244/70 25/246/70
f 25/246/70 17/244/70 15/247/70
f 25/246/70 15/247/70 23/248/70
f 23/248/70 15/247/70 78/249/70
f 23/248/70 78/249/70 13/250/70
f 13/250/70 78/249/70 38/251/70
f 13/250/70 38/251/70 40/252/70
f 13/250/70 40/252/70 11/253/70
f 11/253/70 40/252/70 12/254/70
f 12/254/70 40/252/70 54/255/70
f 12/254/70 54/255/70 7/256/70
f 7/256/70 54/255/70 8/257/70
f 8/257/70 54/255/70 56/258/70
f 8/257/70 56/258/70 42/259/70
f 8/257/70 42/259/70 65/260/70
f 65/260/70 42/259/70 44/261/70
f 65/260/70 44/261/70 66/262/70
f 66/262/70 44/261/70 80/263/70
f 66/262/70 80/263/70 47/264/70
f 47/264/70 80/263/70 102/265/70
f 47/264/70 102/265/70 48/266/70
f 48/266/70 102/265/70 2/267/70
f 48/266/70 2/267/70 103/268/70
f 103/268/70 2/267/70 4/269/70
f 103/268/70 4/269/70 105/270/70
f 105/270/70 4/269/70 90/271/70
f 105/270/70 90/271/70 104/272/70
f 104/272/70 90/271/70 82/273/70
f 82/273/70 90/271/70 81/274/70
f 8/277/6 63/276/44 6/275/4
f 63/276/44 8/277/6 65/278/46
f 10/281/8 7/280/5 5/279/3
f 7/280/5 10/281/8 12/282/9
f 103/285/64 100/284/67 99/283/63
f 100/284/67 103/285/64 105/286/68
f 115/288/71 114/216/71 113/287/71
f 114/216/71 115/288/71 116/218/71
f 22/291/17 95/290/72 20/289/15
f 95/290/72 22/291/17 110/292/73
f 117/295/61 113/294/61 114/293/61
f 113/294/61 117/295/61 118/296/61
f 110/299/73 96/298/74 95/297/72
f 96/298/74 110/299/73 111/300/75
f 108/303/78 94/302/77 93/301/76
f 94/302/77 108/303/78 109/304/79
f 97/307/81 36/306/29 112/305/80
f 36/306/29 97/307/81 34/308/27
f 116/100/38 117/310/38 114/309/38
f 117/310/38 116/100/38 119/99/38
f 92/313/82 108/312/78 93/311/76
f 108/312/78 92/313/82 107/314/83
f 119/122/84 118/316/84 117/315/84
f 118/316/84 119/122/84 120/317/84
f 24/320/19 25/319/20 23/318/18
f 25/319/20 24/320/19 27/321/22
f 109/324/79 19/323/14 94/322/77
f 19/323/14 109/324/79 21/325/16
f 52/328/87 106/327/86 91/326/85
f 106/327/86 52/328/87 51/329/87
f 28/332/23 112/331/80 26/330/21
f 112/331/80 28/332/23 97/333/81
f 111/336/75 33/335/26 96/334/74
f 33/335/26 111/336/75 35/337/28
f 115/339/70 119/296/70 116/338/70
f 119/296/70 115/339/70 120/295/70
f 91/342/85 107/341/83 92/340/82
f 107/341/83 91/342/85 106/343/86
f 118/346/56 115/345/56 113/344/56
f 115/345/56 118/346/56 120/347/56

