# Created by Kenney (www.kenney.nl)

mtllib fence_wide.mtl

g fence_wide

v 0.77 1.170844E-17 0.185
v 0.77 0.25 0.185
v 0.77 1.170844E-17 0.2
v 0.77 0.265 0.2
v 0.77 0.265 0.17
v 0.77 0.25 0.17
v 0.77 1.13357E-18 0.17
v 0.77 0.25 -0.2
v 0.77 1.13357E-18 -0.2
v 0.785 0.25 0.17
v 0.785 0.25 -0.2
v -0.77 0.25 0.185
v -0.77 0.25 0.17
v -0.77 0.25 -0.2
v -0.785 0.25 -0.2
v -0.785 0.25 0.17
v 0.8 0.265 0.2
v 0.8 0.265 0.17
v 0.8 1.13357E-18 0.2
v 0.785 1.13357E-18 -0.2
v 0.8 1.170844E-17 0.17
v -0.8 1.057487E-17 0.17
v -0.785 1.057487E-17 0.17
v -0.8 0.265 0.17
v -0.77 0.265 0.17
v -0.77 0 0.17
v 0.785 1.170844E-17 0.17
v -0.77 1.057487E-17 0.185
v -0.77 0 -0.2
v -0.77 0.265 0.2
v -0.77 1.057487E-17 0.2
v -0.8 0 0.2
v -0.8 0.265 0.2
v -0.785 0 -0.2

vn -1 0 0
vn 0 1 0
vn 0 0 1
vn 0 0 -1
vn 1 0 0
vn 0 -1 0

vt 7.283465 7.455279E-15
vt 7.283465 9.84252
vt 7.874016 7.455279E-15
vt 7.874016 10.43307
vt 6.692914 10.43307
vt 6.692914 9.84252
vt 6.692914 4.462874E-17
vt -7.874015 9.84252
vt -7.874015 4.462874E-17
vt -30.90551 6.692914
vt -30.31496 6.692914
vt -30.90551 -7.874016
vt -30.31496 -7.874016
vt -30.31496 7.283464
vt 30.31496 7.283464
vt 30.31496 6.692914
vt 30.31496 -7.874016
vt 30.90551 -7.874016
vt 30.90551 6.692914
vt -31.49606 7.874016
vt -30.31496 7.874016
vt -31.49606 6.692914
vt 31.49606 4.462874E-17
vt 30.31496 4.609624E-16
vt 31.49606 10.43307
vt 30.31496 10.43307
vt -30.31496 4.462874E-17
vt -30.90551 4.462874E-17
vt -30.31496 9.84252
vt -30.90551 9.84252
vt -6.692914 10.43307
vt -6.692914 4.609624E-16
vt -7.874016 10.43307
vt -7.874016 4.462874E-17
vt 31.49606 1.960533E-15
vt 30.90551 1.960533E-15
vt 30.90551 9.84252
vt 30.31496 9.84252
vt 30.31496 1.22101E-23
vt -30.31496 4.462875E-17
vt -30.31496 10.43307
vt -31.49606 10.43307
vt -31.49606 9.112597E-16
vt -30.90551 9.112597E-16
vt -30.31496 4.163336E-16
vt 7.874016 9.84252
vt 7.874016 9.874266E-31
vt -6.692914 9.84252
vt -6.692914 9.874266E-31
vt -6.692914 10.43307
vt -7.874016 10.43307
vt -7.283464 9.84252
vt -7.283464 2.455916E-15
vt -7.874016 2.455916E-15
vt 6.692914 4.163336E-16
vt 6.692914 10.43307
vt 7.874016 0
vt 7.874016 10.43307
vt -31.49606 1.17181E-30
vt -7.874016 -3.72193E-30
vt -7.874016 9.84252
vt 6.692914 9.84252
vt 30.31496 7.874016
vt 31.49606 6.692914
vt 31.49606 7.874016
vt 7.874015 9.84252
vt 7.874015 4.462874E-17
vt -6.692914 9.84252
vt 30.90551 2.564745E-31
vt 30.31496 2.564745E-31

usemtl wood

f 3/3/1 2/2/1 1/1/1
f 4/4/1 2/2/1 3/3/1
f 5/5/1 2/2/1 4/4/1
f 2/2/1 5/5/1 6/6/1
f 8/8/1 7/7/1 6/6/1
f 7/7/1 8/8/1 9/9/1
f 11/12/2 6/11/2 10/10/2
f 6/11/2 11/12/2 8/13/2
f 6/11/2 12/15/2 2/14/2
f 12/15/2 6/11/2 13/16/2
f 15/18/2 13/16/2 14/17/2
f 13/16/2 15/18/2 16/19/2
f 18/22/2 4/21/2 17/20/2
f 4/21/2 18/22/2 5/11/2
f 17/25/3 3/24/3 19/23/3
f 3/24/3 17/25/3 4/26/3
f 8/29/4 20/28/4 9/27/4
f 20/28/4 8/29/4 11/30/4
f 17/33/5 21/32/5 18/31/5
f 21/32/5 17/33/5 19/34/5
f 24/25/4 23/36/4 22/35/4
f 23/36/4 24/25/4 16/37/4
f 16/37/4 24/25/4 13/38/4
f 13/38/4 24/25/4 25/26/4
f 13/38/4 7/40/4 26/39/4
f 7/40/4 13/38/4 6/29/4
f 5/41/4 10/30/4 6/29/4
f 18/42/4 10/30/4 5/41/4
f 21/43/4 10/30/4 18/42/4
f 10/30/4 21/43/4 27/44/4
f 1/24/3 12/29/3 28/45/3
f 12/29/3 1/24/3 2/38/3
f 13/48/5 29/47/5 14/46/5
f 29/47/5 13/48/5 26/49/5
f 30/51/5 13/48/5 25/50/5
f 13/48/5 30/51/5 12/52/5
f 12/52/5 30/51/5 28/53/5
f 28/53/5 30/51/5 31/54/5
f 32/57/1 24/56/1 22/55/1
f 24/56/1 32/57/1 33/58/1
f 31/45/3 33/42/3 32/59/3
f 33/42/3 31/45/3 30/41/3
f 23/55/1 15/61/1 34/60/1
f 15/61/1 23/55/1 16/62/1
f 28/14/6 7/16/6 1/15/6
f 7/16/6 28/14/6 26/11/6
f 26/11/6 28/14/6 31/21/6
f 34/12/6 26/11/6 31/21/6
f 26/11/6 34/12/6 29/13/6
f 34/12/6 31/21/6 23/10/6
f 23/10/6 31/21/6 32/20/6
f 23/10/6 32/20/6 22/22/6
f 7/16/6 3/63/6 1/15/6
f 20/18/6 3/63/6 7/16/6
f 27/19/6 3/63/6 20/18/6
f 21/64/6 3/63/6 27/19/6
f 3/63/6 21/64/6 19/65/6
f 20/18/6 7/16/6 9/17/6
f 24/64/2 30/63/2 25/16/2
f 30/63/2 24/64/2 33/65/2
f 10/68/5 20/67/5 11/66/5
f 20/67/5 10/68/5 27/32/5
f 15/37/4 29/70/4 34/69/4
f 29/70/4 15/37/4 14/38/4

