# Created by Kenney (www.kenney.nl)

mtllib grasspatch_2x2.mtl

g mergedBlocks

v 1 0 -1
v 1 0 1
v -1 0 -1
v -1 0 1
v 0.5713773 0.5386668 -0.6309004
v 0.7521279 0.5386668 -0.5010387
v 0.756595 0.4878213 -0.5293469
v 0.6004613 0.4878213 -0.6415224
v 0.6041764 0.6453334 -0.8387542
v 0.5713773 0.6453334 -0.6309004
v 0.6041764 0.5386668 -0.8387542
v 0.8177261 0.5386668 -0.9167463
v 0.6287934 0.4878213 -0.8210679
v 0.8132591 0.4878213 -0.888438
v 0.7640783 0.4527303 -0.5767704
v 0.6491844 0.4527303 -0.6593169
v 0.6700331 0.4527303 -0.7914389
v 0.8057757 0.4527303 -0.8410145
v 0.7246768 0.4320001 -0.7521797
v 0.7958601 0.4320001 -0.7781771
v 0.784927 0.4320001 -0.7088925
v 0.8561102 0.4320001 -0.7348898
v 0.773994 0.4320001 -0.6396079
v 0.8451772 0.4320001 -0.6656052
v 0.7137438 0.4320001 -0.6828951
v 0.899821 0.4527303 -0.626346
v 0.9206697 0.4527303 -0.758468
v 0.9410607 0.4878213 -0.596717
v 0.9693927 0.4878213 -0.7762626
v 0.9656776 0.5386668 -0.5790308
v 0.9984766 0.5386668 -0.7868845
v 0.9656776 0.6453334 -0.5790308
v 0.9984766 0.6453334 -0.7868845
v 0.7521279 0.6453334 -0.5010387
v 0.9410607 0.6961789 -0.596717
v 0.756595 0.6961789 -0.5293469
v 0.6287934 0.6961789 -0.8210679
v 0.6004613 0.6961789 -0.6415224
v 0.899821 0.73127 -0.626346
v 0.7640783 0.73127 -0.5767704
v 0.7137438 0.7520001 -0.6828951
v 0.773994 0.7520001 -0.6396079
v 0.6491844 0.73127 -0.6593169
v 0.8132591 0.6961789 -0.888438
v 0.8057757 0.73127 -0.8410145
v 0.6700331 0.73127 -0.7914389
v 0.784927 0.7520001 -0.7088925
v 0.7246768 0.7520001 -0.7521797
v 0.8451772 0.7520001 -0.6656052
v 0.8561102 0.7520001 -0.7348898
v 0.7958601 0.7520001 -0.7781771
v 0.9206697 0.73127 -0.758468
v 0.9693927 0.6961789 -0.7762626
v 0.8177261 0.6453334 -0.9167463
v 0.6386015 0.5233837 -0.7487342
v 0.5213725 0.4996642 -0.8026279
v 0.5510857 0.5180936 -0.8247925
v 0.637351 0.5355481 -0.7851337
v 0.5954627 0.5198274 -0.8964447
v 0.5927421 0.5289807 -0.8505169
v 0.5562737 0.5006386 -0.9123745
v 0.5284226 0.475944 -0.9216464
v 0.6527017 0.4759434 -0.9867711
v 0.6477269 0.5006382 -0.9602978
v 0.5144498 0.4455006 -0.9229523
v 0.6583235 0.4454999 -0.998345
v 0.5062881 0.4729607 -0.7851686
v 0.5157499 0.4169401 -0.7700822
v 0.5239115 0.3894801 -0.9078659
v 0.6420002 0.50042 -0.7227777
v 0.651462 0.4443994 -0.7076913
v 0.7858739 0.5004194 -0.7981703
v 0.7953357 0.4443988 -0.7830839
v 0.7940356 0.4729593 -0.935954
v 0.7699308 0.499663 -0.9328773
v 0.7628807 0.5233832 -0.8138589
v 0.7288042 0.5355477 -0.833057
v 0.7339922 0.5180928 -0.920639
v 0.6859375 0.5381336 -0.8548508
v 0.688658 0.5289803 -0.9007787
v 0.6677853 0.3894794 -0.9832585
v 0.8034974 0.4169387 -0.9208675
v 0.5469048 0.3665162 -0.8921773
v 0.6711839 0.3665156 -0.957302
v 0.7813629 0.4139554 -0.7843897
v 0.788413 0.3902352 -0.9034082
v 0.7586998 0.3718058 -0.8812436
v 0.7535118 0.3892607 -0.7936617
v 0.671806 0.3517655 -0.8763163
v 0.7170433 0.3609186 -0.8555193
v 0.6724345 0.3543513 -0.9209024
v 0.5398546 0.3902363 -0.7731588
v 0.5757934 0.3718066 -0.7853971
v 0.5809813 0.3543516 -0.8729792
v 0.6663648 0.3700722 -0.7844605
v 0.7143228 0.370072 -0.8095914
v 0.6238481 0.3517657 -0.8511854
v 0.6211275 0.3609191 -0.8052576
v 0.6620586 0.3892612 -0.7457384
v 0.6570837 0.413956 -0.719265
v 0.6434206 0.5198272 -0.9215756
v 0.6379795 0.5381339 -0.8297198
v 0.6543144 0.344 -0.8049132
v 0.685636 0.34971 -0.7940393
v 0.7077819 0.2974694 -0.7586553
v 0.6891305 0.224 -0.7351425
v 0.677218 0.33829 -0.8547457
v 0.6501054 0.33829 -0.8352664
v 0.6891305 0.224 -0.7876425
v 0.738927 0.224 -0.8138925
v 0.669212 0 -0.7981425
v 0.6808311 0.03733334 -0.7920175
v 0.669212 0 -0.7246425
v 0.6808311 0.03733334 -0.7307675
v 0.738927 0 -0.8348925
v 0.738927 0.03733334 -0.8226425
v 0.808642 0 -0.7981425
v 0.7970229 0.03733334 -0.7920175
v 0.808642 0 -0.7246425
v 0.7970229 0.03733334 -0.7307675
v 0.7937568 0.3289322 -0.7160718
v 0.8080005 0.4369322 -0.7288691
v 0.798362 0.3304661 -0.7582558
v 0.7987901 0.4338644 -0.6970011
v 0.7887235 0.224 -0.7876425
v 0.7887235 0.224 -0.7351425
v 0.738927 0 -0.6878924
v 0.738927 0.03733334 -0.7001424
v 0.7127486 0.34971 -0.8135185
v 0.7113031 0.3075742 -0.7703891
v 0.7406016 0.3036237 -0.7847852
v 0.7607822 0.3335339 -0.7825764
v 0.7507613 0.2833112 -0.7969353
v 0.7666994 0.3631895 -0.7740979
v 0.7826374 0.4430679 -0.7512605
v 0.6568505 0.4127699 -0.8711243
v 0.633403 0.4127699 -0.8542782
v 0.6845005 0.4142226 -0.8610675
v 0.7486315 0.2840001 -0.8157571
v 0.7085396 0.344 -0.8438718
v 0.6376055 0.4142226 -0.8273755
v 0.6652555 0.4156753 -0.8173188
v 0.688703 0.4156753 -0.8341648
v 0.7496561 0.2853824 -0.7956352
v 0.7185972 0.3350679 -0.7647132
v 0.7265751 0.3651387 -0.7585052
v 0.7480639 0.4461358 -0.7417839
v 0.7139921 0.3335339 -0.7225292
v 0.7388535 0.4430679 -0.7099159
v 0.7515718 0.3304661 -0.6982085
v 0.738927 0.224 -0.7088925
v 0.7642166 0.4369322 -0.6875245

vn 0 1 0
vn -0.5211663 -0.4496517 0.7253958
vn -0.9877775 0 -0.15587
vn -0.3077151 -0.4420582 -0.8425533
vn -0.3695266 -0.773894 0.5143329
vn -0.2200214 -0.7672402 -0.6024393
vn -0.1198044 -0.9370376 -0.3280358
vn 0 -1 0
vn 0.3221138 -0.9453355 0.05082914
vn 0.6044579 -0.7909063 0.09538268
vn 0.8718865 -0.4699839 0.1375826
vn 0.9877775 0 0.15587
vn 0.3077151 0.4420582 0.8425533
vn -0.8718865 0.4699839 -0.1375826
vn 0.2200214 0.7672402 0.6024393
vn -0.1999902 0.9394251 0.2783602
vn -0.2200214 0.7672402 -0.6024393
vn 0.1198044 0.9370376 0.3280358
vn 0.3221138 0.9453355 0.05082914
vn 0.6044579 0.7909063 0.09538268
vn 0.8718865 0.4699839 0.1375826
vn 0.1999902 -0.9394251 -0.2783602
vn 0.3695266 -0.773894 -0.5143329
vn 0.5211663 -0.4496517 -0.7253958
vn 0.5834797 0 -0.8121278
vn -0.3430544 0 -0.9393156
vn -0.3077151 0.4420582 -0.8425533
vn 0.5211663 0.4496517 -0.7253958
vn 0.3695266 0.773894 -0.5143329
vn 0.1999902 0.9394251 -0.2783602
vn -0.1198044 0.9370376 -0.3280358
vn -0.3221138 0.9453355 -0.05082914
vn -0.6044579 0.7909063 -0.09538268
vn -0.3695266 0.773894 0.5143329
vn -0.5211663 0.4496517 0.7253958
vn -0.5834797 0 0.8121278
vn 0.3430544 0 0.9393156
vn 0.3077151 -0.4420582 0.8425533
vn 0.2200214 -0.7672402 0.6024393
vn 0.1198044 -0.9370376 0.3280358
vn -0.1999902 -0.9394251 0.2783602
vn -0.3221138 -0.9453355 -0.05082914
vn -0.6044579 -0.7909063 -0.09538268
vn -0.8718865 -0.4699839 -0.1375826
vn -0.3233773 0.8940843 0.3099039
vn -0.362913 0.9094961 -0.2027583
vn -0.3526003 0.6503098 -0.672882
vn -0.4501843 0.2434758 -0.8591005
vn -0.9846764 -0.1727464 -0.02389955
vn -0.4392203 0.1637012 0.8833388
vn 0.4424641 0.30212 0.8443631
vn 0.7340319 0.6730372 -0.09065458
vn 0.4084672 0.8995036 -0.1550739
vn 0.1523661 0.9709532 -0.1844839
vn -0.4424641 -0.30212 -0.8443631
vn 0.9846764 0.1727464 0.02389955
vn -0.3169469 -0.7305638 -0.6048316
vn 0.8981008 -0.4180641 0.1365187
vn 0.6155187 -0.7651367 0.1889509
vn 0.2215372 -0.9736917 -0.05334592
vn -0.4084672 -0.8995036 0.1550739
vn 0.1049838 -0.9740829 0.2003518
vn 0.362913 -0.9094961 0.2027583
vn 0.2370654 -0.8597263 0.4524055
vn 0.3526003 -0.6503098 0.672882
vn 0.4501843 -0.2434758 0.8591005
vn -0.7340319 -0.6730372 0.09065458
vn -0.3191223 -0.3876981 0.8647838
vn -0.15362 -0.7367976 0.6584302
vn -0.02174334 -0.8967627 0.4419771
vn -0.1523661 -0.9709532 0.1844839
vn -0.03055473 -0.9978314 -0.05829968
vn -0.161307 -0.9376717 -0.3078181
vn 0.3233773 -0.8940843 -0.3099039
vn 0.4218547 -0.6509395 -0.6311232
vn 0.4392203 -0.1637012 -0.8833388
vn 0.3191223 0.3876981 -0.8647838
vn 0.15362 0.7367976 -0.6584302
vn 0.02174334 0.8967627 -0.4419771
vn -0.2370654 0.8597263 -0.4524055
vn -0.1049838 0.9740829 -0.2003518
vn -0.2215372 0.9736917 0.05334592
vn 0.03055473 0.9978314 0.05829968
vn 0.161307 0.9376717 0.3078181
vn 0.3169469 0.7305638 0.6048316
vn -0.4218547 0.6509395 0.6311232
vn -0.8981008 0.4180641 -0.1365187
vn -0.6155187 0.7651367 -0.1889509
vn -0.3645787 0.3867279 0.8470678
vn -0.3649528 0.4110948 0.8353505
vn -0.4002752 0.391515 0.8285503
vn -0.4360484 0.354433 0.8271874
vn -0.4991507 -0.5178487 -0.6947528
vn -0.5139128 -0.4735399 -0.7152997
vn -0.4123966 -0.4668033 -0.7823195
vn -0.4054796 -0.4938832 -0.769198
vn -0.9548252 0.2971682 0
vn -0.447837 0.2787587 -0.8495503
vn 0.447837 0.2787587 -0.8495503
vn 0.9548252 0.2971682 0
vn 0.9921305 -0.06683274 0.1058799
vn 0.952564 -0.1580279 0.2600943
vn 0.9876043 -0.1179842 0.1035258
vn 0.9587591 -0.09469289 0.2679819
vn 0.9959271 -0.09016251 0
vn 0.9988515 -0.04791218 0
vn -0.447837 0.2787587 0.8495503
vn 0.447837 0.2787587 0.8495503
vn 0.4561935 0.6234668 0.6349618
vn 0.4426108 0.6515904 0.6160566
vn 0.4124768 0.6295747 0.6584061
vn 0.4068969 0.6242177 0.6669236
vn 0.401769 0.6469111 0.6481417
vn 0.5461981 0.127706 -0.8278639
vn 0.5030156 0.1433121 -0.8523127
vn 0.5448887 0.1769056 -0.8196346
vn 0.5753909 0.1166364 -0.8095192
vn 0.6740924 0.1392013 -0.725412
vn 0.6702855 0.0772744 -0.7380692
vn 0.4570931 0.1979578 -0.8671093
vn -0.5527333 -0.3203329 -0.7693326
vn 0.3448344 -0.1102193 -0.93217
vn 0.3448381 -0.1106765 -0.9321144
vn 0.3439389 -0.1109873 -0.9324096
vn 0.4201771 -0.1393978 -0.8966713
vn 0.3530251 -0.1930795 -0.9154745
vn 0.4653567 -0.06429189 -0.8827852
vn 0.4638712 -0.1023744 -0.8799676
vn 0.3438924 -0.1106155 -0.932471
vn -0.3438874 0.2108672 0.9150281
vn -0.3437327 0.2162931 0.913819
vn -0.3543615 0.2073518 0.9118295
vn -0.3547603 0.2117705 0.9106582
vn 0.5286973 0.4230402 0.7358779
vn 0.9422834 0.2924666 -0.1629879
vn 0.9449991 0.2836007 -0.1629334
vn 0.9429829 0.2779835 -0.1830536
vn 0.9406075 0.2852506 -0.1840913
vn 0.8456153 0.5278641 -0.0793362
vn 0.8577636 0.5084656 -0.07552577
vn 0.8598658 0.5044571 -0.07844698
vn 0.8786845 0.4657861 -0.1046748
vn 0.8887956 0.4119972 -0.20075
vn 0.8555019 0.4742541 -0.2078449
vn 0.8314618 0.5555819 0
vn -0.3591968 0.3220971 -0.8759173
vn -0.3656496 0.2802401 -0.8875617
vn -0.3875589 0.3113891 -0.8676605
vn -0.3998171 0.3235502 -0.8575906
vn -0.3296697 0.3197463 -0.8883018
vn -0.3365884 0.2752089 -0.9005378
vn -0.2257841 0.3091715 -0.9238152
vn -0.234377 0.2558025 -0.9378873
vn -0.4011533 0.324904 -0.8564539
vn -0.3890491 0.2841246 -0.876307
vn -0.9649975 0.255545 -0.05896333
vn -0.9572206 0.2734742 -0.09455475
vn -0.9680926 0.2309363 -0.09728845
vn -0.9518153 0.2788632 -0.1276046
vn -0.9251844 0.2947978 -0.2390146
vn -0.9382011 0.2414961 -0.2479079
vn -0.9751955 0.2213453 0
vn -0.9608177 0.2688403 -0.0674857
vn -0.5443384 -0.01950809 0.8386389
vn -0.4660617 -0.03336925 0.8841227
vn -0.5416264 0.0261818 0.8402116
vn -0.661374 0.0032821 0.7500491
vn -0.6522504 0.06104081 0.7555419
vn -0.465921 0.04143075 0.8838558
vn -0.4663177 0.003976116 0.8846083
vn 0.3820207 -0.1370858 0.9139298
vn 0.2445206 -0.1847274 0.9518852
vn 0.3776903 -0.1830763 0.9076526
vn 0.2518058 -0.1261949 0.9595149
vn 0.4586924 -0.1801447 0.8701432
vn 0.4615502 -0.1426814 0.8755646
vn 0.465921 0.04143075 0.8838558
vn 0.9990131 0.04441725 0
vn 0.465921 0.04143075 -0.8838558
vn -0.465921 0.04143075 -0.8838558
vn -0.9990131 0.04441725 0
vn -0.9514756 -0.2502905 0.1790217
vn -0.9685444 -0.1829139 0.1687139
vn -0.9463518 -0.3231381 0
vn -0.9709908 -0.1765965 0.1612157
vn -0.970479 -0.1793271 0.1612832
vn -0.9702554 -0.1748445 0.1674332
vn -0.9603946 -0.2786435 0

vt 0.0625 0.0625
vt 0.1875 0.0625
vt 0.3125 0.0625

usemtl grasspatch_2x2

f 3/1/1 2/1/1 1/1/1
f 3/1/1 4/1/1 2/1/1

usemtl grasspatch_2x2

f 7/2/2 6/2/2 5/2/2
f 8/2/2 7/2/2 5/2/2
f 5/2/3 10/2/3 9/2/3
f 11/2/3 5/2/3 9/2/3
f 13/2/4 11/2/4 12/2/4
f 14/2/4 13/2/4 12/2/4
f 15/2/5 7/2/5 8/2/5
f 16/2/5 15/2/5 8/2/5
f 13/2/6 18/2/6 17/2/6
f 13/2/6 14/2/6 18/2/6
f 17/2/7 20/2/7 19/2/7
f 17/2/7 18/2/7 20/2/7
f 20/2/8 22/2/8 21/2/8
f 24/2/8 23/2/8 21/2/8
f 23/2/8 25/2/8 21/2/8
f 25/2/8 19/2/8 21/2/8
f 19/2/8 20/2/8 21/2/8
f 22/2/8 24/2/8 21/2/8
f 26/2/9 24/2/9 22/2/9
f 27/2/9 26/2/9 22/2/9
f 26/2/10 29/2/10 28/2/10
f 26/2/10 27/2/10 29/2/10
f 28/2/11 31/2/11 30/2/11
f 28/2/11 29/2/11 31/2/11
f 31/2/12 33/2/12 32/2/12
f 30/2/12 31/2/12 32/2/12
f 35/2/13 34/2/13 32/2/13
f 35/2/13 36/2/13 34/2/13
f 37/2/14 9/2/14 10/2/14
f 38/2/14 37/2/14 10/2/14
f 39/2/15 36/2/15 35/2/15
f 39/2/15 40/2/15 36/2/15
f 43/2/16 42/2/16 41/2/16
f 43/2/16 40/2/16 42/2/16
f 45/2/17 44/2/17 37/2/17
f 46/2/17 45/2/17 37/2/17
f 48/2/1 41/2/1 47/2/1
f 42/2/1 49/2/1 47/2/1
f 49/2/1 50/2/1 47/2/1
f 50/2/1 51/2/1 47/2/1
f 51/2/1 48/2/1 47/2/1
f 41/2/1 42/2/1 47/2/1
f 40/2/18 49/2/18 42/2/18
f 40/2/18 39/2/18 49/2/18
f 52/2/19 50/2/19 49/2/19
f 39/2/19 52/2/19 49/2/19
f 52/2/20 35/2/20 53/2/20
f 52/2/20 39/2/20 35/2/20
f 53/2/21 32/2/21 33/2/21
f 53/2/21 35/2/21 32/2/21
f 27/2/22 22/2/22 20/2/22
f 18/2/22 27/2/22 20/2/22
f 27/2/23 14/2/23 29/2/23
f 27/2/23 18/2/23 14/2/23
f 29/2/24 12/2/24 31/2/24
f 29/2/24 14/2/24 12/2/24
f 31/2/25 54/2/25 33/2/25
f 31/2/25 12/2/25 54/2/25
f 12/2/26 9/2/26 54/2/26
f 12/2/26 11/2/26 9/2/26
f 44/2/27 54/2/27 9/2/27
f 37/2/27 44/2/27 9/2/27
f 44/2/28 33/2/28 54/2/28
f 44/2/28 53/2/28 33/2/28
f 44/2/29 45/2/29 52/2/29
f 53/2/29 44/2/29 52/2/29
f 45/2/30 51/2/30 50/2/30
f 52/2/30 45/2/30 50/2/30
f 46/2/31 48/2/31 51/2/31
f 45/2/31 46/2/31 51/2/31
f 46/2/32 41/2/32 48/2/32
f 46/2/32 43/2/32 41/2/32
f 46/2/33 37/2/33 38/2/33
f 43/2/33 46/2/33 38/2/33
f 38/2/34 40/2/34 43/2/34
f 38/2/34 36/2/34 40/2/34
f 38/2/35 10/2/35 34/2/35
f 36/2/35 38/2/35 34/2/35
f 6/2/36 34/2/36 10/2/36
f 5/2/36 6/2/36 10/2/36
f 30/2/37 32/2/37 34/2/37
f 6/2/37 30/2/37 34/2/37
f 7/2/38 30/2/38 6/2/38
f 7/2/38 28/2/38 30/2/38
f 15/2/39 28/2/39 7/2/39
f 15/2/39 26/2/39 28/2/39
f 15/2/40 23/2/40 24/2/40
f 26/2/40 15/2/40 24/2/40
f 15/2/41 25/2/41 23/2/41
f 15/2/41 16/2/41 25/2/41
f 16/2/42 19/2/42 25/2/42
f 16/2/42 17/2/42 19/2/42
f 16/2/43 8/2/43 13/2/43
f 17/2/43 16/2/43 13/2/43
f 8/2/44 5/2/44 11/2/44
f 13/2/44 8/2/44 11/2/44
f 57/2/45 56/2/45 55/2/45
f 58/2/45 57/2/45 55/2/45
f 61/2/46 60/2/46 59/2/46
f 61/2/46 57/2/46 60/2/46
f 61/2/47 63/2/47 62/2/47
f 61/2/47 64/2/47 63/2/47
f 62/2/48 66/2/48 65/2/48
f 62/2/48 63/2/48 66/2/48
f 68/2/49 67/2/49 65/2/49
f 69/2/49 68/2/49 65/2/49
f 71/2/50 70/2/50 67/2/50
f 68/2/50 71/2/50 67/2/50
f 73/2/51 72/2/51 70/2/51
f 71/2/51 73/2/51 70/2/51
f 75/2/52 72/2/52 74/2/52
f 75/2/52 76/2/52 72/2/52
f 76/2/53 78/2/53 77/2/53
f 76/2/53 75/2/53 78/2/53
f 77/2/54 80/2/54 79/2/54
f 77/2/54 78/2/54 80/2/54
f 81/2/55 65/2/55 66/2/55
f 81/2/55 69/2/55 65/2/55
f 73/2/56 74/2/56 72/2/56
f 73/2/56 82/2/56 74/2/56
f 83/2/57 69/2/57 81/2/57
f 84/2/57 83/2/57 81/2/57
f 85/2/58 82/2/58 73/2/58
f 85/2/58 86/2/58 82/2/58
f 87/2/59 86/2/59 85/2/59
f 88/2/59 87/2/59 85/2/59
f 91/2/60 90/2/60 89/2/60
f 91/2/60 87/2/60 90/2/60
f 93/2/61 92/2/61 83/2/61
f 94/2/61 93/2/61 83/2/61
f 89/2/62 96/2/62 95/2/62
f 95/2/62 98/2/62 97/2/62
f 95/2/62 97/2/62 89/2/62
f 89/2/62 90/2/62 96/2/62
f 88/2/63 96/2/63 90/2/63
f 87/2/63 88/2/63 90/2/63
f 99/2/64 95/2/64 96/2/64
f 88/2/64 99/2/64 96/2/64
f 88/2/65 85/2/65 100/2/65
f 99/2/65 88/2/65 100/2/65
f 85/2/66 73/2/66 71/2/66
f 100/2/66 85/2/66 71/2/66
f 92/2/67 68/2/67 69/2/67
f 83/2/67 92/2/67 69/2/67
f 100/2/68 71/2/68 68/2/68
f 92/2/68 100/2/68 68/2/68
f 93/2/69 100/2/69 92/2/69
f 93/2/69 99/2/69 100/2/69
f 99/2/70 98/2/70 95/2/70
f 99/2/70 93/2/70 98/2/70
f 94/2/71 97/2/71 98/2/71
f 93/2/71 94/2/71 98/2/71
f 91/2/72 89/2/72 97/2/72
f 94/2/72 91/2/72 97/2/72
f 94/2/73 83/2/73 84/2/73
f 91/2/73 94/2/73 84/2/73
f 84/2/74 87/2/74 91/2/74
f 84/2/74 86/2/74 87/2/74
f 86/2/75 81/2/75 82/2/75
f 86/2/75 84/2/75 81/2/75
f 82/2/76 66/2/76 74/2/76
f 82/2/76 81/2/76 66/2/76
f 63/2/77 74/2/77 66/2/77
f 63/2/77 75/2/77 74/2/77
f 78/2/78 75/2/78 63/2/78
f 64/2/78 78/2/78 63/2/78
f 64/2/79 101/2/79 80/2/79
f 78/2/79 64/2/79 80/2/79
f 64/2/80 59/2/80 101/2/80
f 64/2/80 61/2/80 59/2/80
f 101/2/81 59/2/81 102/2/81
f 79/2/81 80/2/81 101/2/81
f 102/2/81 79/2/81 101/2/81
f 59/2/81 60/2/81 102/2/81
f 58/2/82 102/2/82 60/2/82
f 57/2/82 58/2/82 60/2/82
f 58/2/83 79/2/83 102/2/83
f 58/2/83 77/2/83 79/2/83
f 77/2/84 55/2/84 76/2/84
f 77/2/84 58/2/84 55/2/84
f 76/2/85 70/2/85 72/2/85
f 76/2/85 55/2/85 70/2/85
f 56/2/86 67/2/86 70/2/86
f 55/2/86 56/2/86 70/2/86
f 62/2/87 65/2/87 67/2/87
f 56/2/87 62/2/87 67/2/87
f 62/2/88 57/2/88 61/2/88
f 62/2/88 56/2/88 57/2/88

usemtl grasspatch_2x2

f 105/3/91 104/3/90 103/3/89
f 106/3/92 105/3/91 103/3/89
f 109/3/95 108/3/94 107/3/93
f 110/3/96 109/3/95 107/3/93
f 113/3/97 112/3/97 111/3/97
f 113/3/97 114/3/97 112/3/97
f 111/3/98 116/3/98 115/3/98
f 111/3/98 112/3/98 116/3/98
f 116/3/99 118/3/99 117/3/99
f 115/3/99 116/3/99 117/3/99
f 118/3/100 120/3/100 119/3/100
f 117/3/100 118/3/100 119/3/100
f 123/3/103 122/3/102 121/3/101
f 122/3/102 124/3/104 121/3/101
f 126/3/106 125/3/105 123/3/103
f 121/3/101 126/3/106 123/3/103
f 127/3/107 114/3/107 113/3/107
f 127/3/107 128/3/107 114/3/107
f 120/3/108 128/3/108 127/3/108
f 119/3/108 120/3/108 127/3/108
f 130/3/111 129/3/110 104/3/109
f 104/3/109 105/3/112 130/3/111
f 130/3/111 131/3/113 129/3/110
f 123/3/116 133/3/115 132/3/114
f 123/3/116 132/3/114 134/3/117
f 134/3/117 135/3/119 122/3/118
f 134/3/117 122/3/118 123/3/116
f 123/3/116 125/3/120 133/3/115
f 108/3/121 137/3/121 136/3/121
f 107/3/121 108/3/121 136/3/121
f 107/3/124 136/3/123 138/3/122
f 107/3/124 140/3/126 139/3/125
f 139/3/125 125/3/128 110/3/127
f 110/3/127 107/3/124 139/3/125
f 140/3/129 107/3/124 138/3/122
f 103/3/132 142/3/131 141/3/130
f 103/3/132 104/3/133 142/3/131
f 104/3/134 143/3/134 142/3/134
f 104/3/134 129/3/134 143/3/134
f 140/3/137 138/3/136 143/3/135
f 129/3/138 140/3/137 143/3/135
f 144/3/141 133/3/140 139/3/139
f 131/3/142 144/3/141 139/3/139
f 140/3/144 129/3/143 131/3/142
f 139/3/139 140/3/144 131/3/142
f 133/3/140 125/3/145 139/3/139
f 131/3/148 145/3/147 132/3/146
f 144/3/149 131/3/148 132/3/146
f 146/3/151 134/3/150 132/3/146
f 146/3/151 147/3/153 135/3/152
f 146/3/151 135/3/152 134/3/150
f 132/3/146 133/3/154 144/3/149
f 145/3/147 146/3/151 132/3/146
f 131/3/148 130/3/155 145/3/147
f 148/3/158 145/3/157 105/3/156
f 146/3/159 145/3/157 148/3/158
f 149/3/161 147/3/160 146/3/159
f 148/3/158 149/3/161 146/3/159
f 105/3/156 106/3/162 148/3/158
f 145/3/157 130/3/163 105/3/156
f 148/3/166 151/3/165 150/3/164
f 150/3/164 152/3/167 148/3/166
f 152/3/167 149/3/168 148/3/166
f 114/3/169 128/3/169 151/3/169
f 106/3/170 114/3/169 151/3/169
f 148/3/166 106/3/170 151/3/165
f 121/3/173 124/3/172 150/3/171
f 124/3/172 152/3/174 150/3/171
f 151/3/176 126/3/175 121/3/173
f 150/3/171 151/3/176 121/3/173
f 151/3/177 120/3/177 126/3/177
f 151/3/177 128/3/177 120/3/177
f 126/3/178 118/3/178 125/3/178
f 126/3/178 120/3/178 118/3/178
f 125/3/179 116/3/179 110/3/179
f 125/3/179 118/3/179 116/3/179
f 116/3/180 112/3/180 109/3/180
f 110/3/180 116/3/180 109/3/180
f 112/3/181 114/3/181 106/3/181
f 109/3/181 112/3/181 106/3/181
f 109/3/184 103/3/183 108/3/182
f 108/3/187 141/3/186 137/3/185
f 108/3/187 103/3/183 141/3/186
f 109/3/184 106/3/188 103/3/183

