# Created by Kenney (www.kenney.nl)

mtllib path_short.mtl

g path_short

v 0.1 0 0.1
v 0.1 1.313589E-17 -0.1
v -0.1 5.639933E-18 0.1
v -0.1 1.877582E-17 -0.1
v 0.07 0.01 -0.1
v 0.07 0.01 0.1
v -0.07 0.01 -0.1
v -0.07 0.01 0.1

vn 0 -1 0
vn 0 1 0
vn 0 0 -1
vn 0 0 1
vn -0.3162278 0.9486833 0
vn 0.3162278 0.9486833 0

vt 3.937008 3.937008
vt 3.937008 -3.937008
vt -3.937008 3.937008
vt -3.937008 -3.937008
vt -2.755906 -3.937008
vt -2.755906 3.937008
vt 2.755906 -3.937008
vt 2.755906 3.937008
vt -3.937008 5.171609E-16
vt -2.755906 0.3937008
vt 3.937008 7.392055E-16
vt 2.755906 0.3937008
vt 3.937008 0
vt -3.937008 2.220446E-16
vt -3.937008 -2.489982
vt 3.937008 -2.489982
vt -3.937008 -3.734974
vt 3.937008 -3.734974

usemtl border

f 3/3/1 2/2/1 1/1/1
f 2/2/1 3/3/1 4/4/1
f 7/7/2 6/6/2 5/5/2
f 6/6/2 7/7/2 8/8/2
f 4/11/3 5/10/3 2/9/3
f 5/10/3 4/11/3 7/12/3
f 6/12/4 3/14/4 1/13/4
f 3/14/4 6/12/4 8/10/4

usemtl wood

f 4/17/5 8/16/5 7/15/5
f 8/16/5 4/17/5 3/18/5
f 5/16/6 1/17/6 2/18/6
f 1/17/6 5/16/6 6/15/6

