# Created by Kenney (www.kenney.nl)

mtllib road_sideExitBarrier.mtl

g road_sideExitBarrier

v -0.2024142 3.535674E-13 -0.6004944
v -0.1659991 3.634034E-13 -0.6182172
v -0.2024142 0.08 -0.6004944
v -0.1659991 0.08 -0.6182172
v -0.001773712 6.282885E-15 -0.605
v -0.01171159 1.638513E-13 -0.6042941
v -0.001773712 0.08 -0.625
v -0.01171159 0.08 -0.624294
v 0.5 0.08 -0.655
v 0.5 1.987343E-13 -0.655
v 0.5 0.08 -0.625
v 0.5 2.674044E-12 -0.605
v -0.1461697 9.999601E-14 -0.5725359
v -0.1461697 0.08 -0.5925359
v -0.1121937 1.140507E-13 -0.5855631
v -0.1121937 0.08 -0.6055632
v -5.505263E-05 1.580084E-13 -0.655
v -0.01545647 4.107676E-13 -0.6539059
v -0.04103079 1.492777E-13 -0.6019504
v -0.04744465 3.921671E-13 -0.6513491
v -0.07705965 1.304742E-13 -0.5954511
v -0.08824086 3.827822E-13 -0.6439898
v -0.127872 3.731718E-13 -0.632836
v -0.1788228 8.812959E-14 -0.556644
v -0.2100773 7.803411E-14 -0.5381539
v -0.2265822 3.471604E-13 -0.5861965
v -0.2399268 7.155947E-14 -0.5173023
v -0.2370279 3.434606E-13 -0.5800169
v -0.2698431 3.356775E-13 -0.5570934
v -0.2684114 2.851522E-12 -0.4942871
v -0.271124 2.726513E-12 -0.4917907
v -0.3009249 3.259092E-13 -0.53198
v -0.2955981 2.716925E-12 -0.4692667
v -0.3215647 2.713699E-12 -0.4423631
v -0.3048157 3.261912E-13 -0.5283992
v -0.3303735 3.161746E-13 -0.5048778
v -0.3463891 2.709209E-12 -0.4136707
v -0.3583035 3.087976E-13 -0.4759401
v -0.3660921 2.708059E-12 -0.3884478
v -0.3848297 2.99503E-13 -0.4452806
v -0.3811708 2.699706E-12 -0.3707203
v -0.3956982 2.692431E-12 -0.3552744
v -0.4046615 2.93739E-13 -0.4198928
v -0.4097769 2.684574E-12 -0.3418381
v -0.4182634 2.897346E-13 -0.4039016
v -0.4232876 2.67828E-12 -0.3303728
v -0.4310194 2.869372E-13 -0.3903391
v -0.4361152 2.476438E-13 -0.3208089
v -0.4430759 2.833615E-13 -0.3788328
v -0.4481587 7.388312E-15 -0.3130431
v -0.4542834 2.806995E-13 -0.3693219
v -0.4593443 5.639933E-16 -0.3069354
v -0.4644981 2.772027E-13 -0.3617063
v -0.4696409 4.004352E-16 -0.3023137
v -0.4735953 2.733563E-13 -0.3558402
v -0.4790759 0 -0.298983
v -0.4814864 2.676825E-13 -0.3515314
v -0.4877475 5.019541E-16 -0.2967441
v -0.4881401 1.056247E-13 -0.3485448
v -0.4958282 2.808687E-15 -0.295418
v -0.4936028 2.636443E-13 -0.3466164
v -0.4980154 2.597415E-13 -0.3454771
v -0.5 1.093019E-13 -0.2951241
v -0.5 2.278533E-13 -0.3451514
v -0.4735953 0.08 -0.3558402
v -0.4644981 0.08 -0.3617063
v -0.3583035 0.08 -0.4759401
v -0.3848297 0.08 -0.4452806
v -0.2399268 0.08 -0.5373023
v -0.2100773 0.08 -0.5581539
v -0.4542834 0.08 -0.3693219
v -0.4361152 0.08 -0.3408089
v -0.4232876 0.08 -0.3503728
v -0.4958282 0.08 -0.315418
v -0.5 0.08 -0.315124
v -0.3009249 0.08 -0.53198
v -0.2698431 0.08 -0.5570934
v -0.3811708 0.08 -0.3907202
v -0.3956982 0.08 -0.3752744
v -0.5 0.08 -0.3451514
v -0.3463891 0.08 -0.4336706
v -0.3660921 0.08 -0.4084477
v -0.4097769 0.08 -0.3618382
v -0.4481587 0.08 -0.3330431
v -0.4696409 0.08 -0.3223137
v -0.4593443 0.08 -0.3269354
v -0.3215647 0.08 -0.4623631
v -0.127872 0.08 -0.632836
v -0.2955981 0.08 -0.4892666
v -5.505264E-05 0.08 -0.655
v -0.08824086 0.08 -0.6439898
v -0.04744465 0.08 -0.6513491
v -0.01545647 0.08 -0.6539059
v -0.4046615 0.08 -0.4198928
v -0.3048157 0.08 -0.5283992
v -0.3303735 0.08 -0.5048778
v -0.07705965 0.08 -0.6154512
v -0.04103079 0.08 -0.6219505
v -0.1788228 0.08 -0.5766439
v -0.2265822 0.08 -0.5861965
v -0.2370279 0.08 -0.5800169
v -0.2684114 0.08 -0.5142872
v -0.271124 0.08 -0.5117906
v -0.4182634 0.08 -0.4039016
v -0.4310194 0.08 -0.3903391
v -0.4430759 0.08 -0.3788328
v -0.4790759 0.08 -0.318983
v -0.4814864 0.08 -0.3515314
v -0.4877475 0.08 -0.3167441
v -0.4881401 0.08 -0.3485448
v -0.4936028 0.08 -0.3466164
v -0.4980154 0.08 -0.3454771
v -0.5 7.291192E-13 0.605
v -0.5 0.08 0.625
v -0.5 7.291192E-13 0.655
v -0.5 0.08 0.655
v 0.5 7.291192E-13 0.655
v 0.5 7.291192E-13 0.605
v 0.5 0.08 0.655
v 0.5 0.08 0.625

vn -0.4737825 0 -0.8806419
vn -0.3981851 0 -0.9173051
vn 0.03458439 0.2423905 0.9695621
vn 0.07308401 0.241887 0.9675481
vn 0.03420803 0.2423937 0.9695747
vn 0.07298452 0.2418888 0.9675552
vn 1 0 0
vn 0.3905425 0.2232746 0.8930986
vn 0.3857195 0.2237673 0.8950691
vn 0.3083825 0.2307151 0.9228602
vn 0.3042351 0.2310387 0.9241548
vn 0 -1 0
vn -0.5109214 0 -0.8596274
vn -0.5701517 0 -0.8215395
vn -0.7381572 0 -0.6746288
vn -0.7723939 0 -0.6351438
vn 0.5919045 0.1954857 0.7819427
vn 0.5866982 0.1964067 0.7856269
vn 0.5323964 0.2053052 0.8212209
vn 0.5270962 0.2061081 0.8244325
vn -0.6226888 0 -0.7824696
vn 0.5560466 0.2015837 0.8063349
vn 0.560968 0.2007801 0.8031203
vn 0.608727 0.1924229 0.7696914
vn 0.6135073 0.1915277 0.766111
vn 0.1120283 0.2410088 0.9640354
vn 0.06821869 0.2419706 0.9678825
vn 0.1136261 0.2409649 0.9638595
vn -0.6531666 0 -0.7572142
vn -0.6009374 0 -0.799296
vn 0.7371339 0.1638927 0.6555707
vn 0.7332064 0.1649257 0.6597028
vn 0.701052 0.1729546 0.6918185
vn 0.6968021 0.173962 0.6958478
vn -1 0 0
vn 0.7608873 0.1573775 0.6295099
vn 0.7647943 0.1562595 0.625038
vn 0.7671903 0.1555671 0.6222684
vn 0.7639431 0.1565042 0.626017
vn 0.6554853 0.1831648 0.7326594
vn 0.6600291 0.1822025 0.7288099
vn 0.4970708 0.2104506 0.8418023
vn 0.5019937 0.2097621 0.8390483
vn 0.3597434 0.2262982 0.9051927
vn 0.3640659 0.2258912 0.9035647
vn 0.4316101 0.2187818 0.875127
vn 0.4363473 0.2182283 0.8729131
vn 0.72574 0.166857 0.6674282
vn 0.7300262 0.1657535 0.6630139
vn -0.3147939 0 -0.94916
vn 0.6854281 0.1765999 0.7063997
vn 0.6900797 0.1755311 0.7021245
vn -0.03545193 0 -0.9993715
vn 0 0 -1
vn -0.2244784 0 -0.974479
vn -0.1287584 0 -0.991676
vn -0.0752694 0 -0.9971632
vn -0.7750577 0 -0.6318905
vn -0.6771845 0 -0.7358133
vn -0.6986606 0 -0.7154533
vn 0.2196941 0.2366102 0.9464408
vn 0.2165379 0.2367813 0.9471251
vn 0.1259306 0.2406048 0.9624193
vn 0.1240401 0.2406626 0.9626503
vn 0 1 0
vn -0.20617 0 -0.9785162
vn -0.2917081 0 -0.9565074
vn -0.7453079 0 -0.6667204
vn -0.7096789 0 -0.7045254
vn -0.4447075 0 -0.8956758
vn -0.6690073 0 -0.7432558
vn 0 0.2425356 0.9701425
vn -0.371507 0 -0.9284302
vn -0.5413064 0 -0.8408254
vn 0.6442654 0.1854917 0.7419669
vn 0.6392933 0.1865009 0.7460037
vn 0.6660097 0.1809178 0.723671
vn 0.4653172 0.214679 0.8587158
vn 0.4601246 0.2153363 0.8613452
vn 0.1989128 0.2376891 0.9507564
vn 0.2016438 0.2375537 0.9502147
vn 0.2818997 0.2326993 0.9307972
vn 0.2855524 0.2324372 0.9297488
vn -0.1619343 0 -0.9868015
vn -0.5091712 0 -0.8606653
vn 0 0 1
vn 0 0.2425356 -0.9701425

vt -3.180299 1.227058E-10
vt -4.774742 1.23093E-10
vt -3.180299 3.149606
vt -4.774742 3.149606
vt 1.618135 5.749971
vt 1.225893 5.749971
vt 1.673929 8.996032
vt 1.281688 8.996032
vt 25.7874 3.149606
vt 25.7874 -1.289388E-11
vt 24.6063 3.149606
vt 23.8189 8.455928E-11
vt 2.696519 5.252643
vt 2.978416 8.486921
vt 4.129112 5.252643
vt 4.411009 8.486921
vt 19.68504 -25.7874
vt -0.002167427 -25.7874
vt 19.68504 -23.8189
vt -0.06983117 -23.8189
vt -0.6085226 -25.74433
vt -0.4610863 -23.7911
vt -1.615385 -23.69884
vt -1.8679 -25.64366
vt -3.033844 -23.44296
vt -3.47405 -25.35393
vt -4.417074 -23.05366
vt -5.03433 -24.9148
vt -5.754712 -22.54078
vt -6.535397 -24.33926
vt -7.040269 -21.91512
vt -7.969063 -23.64151
vt -8.270761 -21.18716
vt -8.920561 -23.0786
vt -9.445935 -20.36623
vt -9.331808 -22.83531
vt -10.62375 -21.93281
vt -10.56738 -19.46012
vt -10.67418 -19.36184
vt -11.84744 -20.94409
vt -11.63772 -18.47507
vt -12.66003 -17.41587
vt -12.00062 -20.80312
vt -13.00683 -19.87708
vt -13.63737 -16.28625
vt -14.10644 -18.7378
vt -14.41307 -15.29322
vt -15.15077 -17.53073
vt -15.00673 -14.59529
vt -15.57867 -13.98718
vt -15.93156 -16.53121
vt -16.13295 -13.4582
vt -16.46706 -15.90164
vt -16.66487 -13.0068
vt -16.96927 -15.36768
vt -17.16989 -12.63027
vt -17.44393 -14.91468
vt -17.64404 -12.32453
vt -17.88517 -14.54023
vt -18.08442 -12.08407
vt -18.28733 -14.2404
vt -18.4898 -11.90211
vt -18.64548 -14.00945
vt -18.86126 -11.77098
vt -18.95616 -13.83982
vt -19.20266 -11.68284
vt -19.21811 -13.72224
vt -19.52079 -11.63063
vt -19.43318 -13.64632
vt -19.6069 -13.60146
vt -19.68504 -11.61906
vt -19.68504 -13.58864
vt 8.078127 1.065232E-10
vt 7.651966 1.066747E-10
vt 8.078127 3.149606
vt 7.651966 3.149606
vt -4.940608 3.149606
vt -3.34447 3.149606
vt -4.940608 1.057375E-10
vt -3.34447 1.053715E-10
vt 3.919473 4.438167
vt 4.370394 7.653239
vt 5.352985 4.438167
vt 5.803906 7.653239
vt 6.149212 1.078585E-10
vt 5.647587 1.079962E-10
vt 6.149212 3.149606
vt 5.647587 3.149606
vt -6.215769 4.00671
vt -5.745122 7.218955
vt -5.585831 4.00671
vt -5.115184 7.218955
vt -18.65476 3.139404
vt -18.81941 3.139404
vt -18.5994 6.385472
vt -18.76405 6.385472
vt -3.947481 1.150604E-10
vt -5.52069 1.15445E-10
vt -3.947481 3.149606
vt -5.52069 3.149606
vt 0.9238954 6.729039
vt 0.350326 3.533568
vt 0.08908352 6.729039
vt -0.4844858 3.533568
vt -13.58864 3.149606
vt -12.40646 3.149606
vt -13.58864 2.959179E-11
vt -11.61906 2.492441E-11
vt 5.05993 6.346417
vt 4.439411 3.15973
vt 3.799841 6.346417
vt 3.179321 3.15973
vt -2.379261 3.714948
vt -1.835633 6.915649
vt -1.613067 3.714948
vt -1.069439 6.915649
vt -8.14959 4.095818
vt -7.722879 7.314193
vt -7.585408 4.095818
vt -7.158697 7.314193
vt -11.99449 4.098226
vt -11.67205 7.328714
vt -11.55015 4.098226
vt -11.22771 7.328714
vt 5.48275 6.576453
vt 4.887283 3.38499
vt 3.989014 6.576453
vt 3.393547 3.38499
vt -2.611449 1.238665E-10
vt -4.219073 1.242511E-10
vt -2.611449 3.149606
vt -4.219073 3.149606
vt -4.290387 3.875925
vt -3.780909 7.082239
vt -3.592753 3.875925
vt -3.083275 7.082239
vt 5.777812 6.823822
vt 5.211257 3.6271
vt 4.305739 6.823822
vt 3.739184 3.6271
vt 0.002167427 1.070057E-10
vt -19.68504 1.086091E-10
vt 0.002167427 3.149606
vt -19.68504 3.149606
vt -1.082091 1.225592E-10
vt -2.714164 1.229287E-10
vt -1.082091 3.149606
vt -2.714164 3.149606
vt -1.825115 1.101742E-10
vt -1.825115 3.149606
vt -1.217232 1.201254E-10
vt -1.217232 3.149606
vt -4.488488 3.149606
vt -3.220158 3.149606
vt -4.488488 1.025908E-10
vt -3.220158 1.023639E-10
vt -5.465513 1.122083E-10
vt -5.465513 3.149606
vt -5.257335 1.122194E-10
vt -5.257335 3.149606
vt -3.889851 3.149606
vt -3.889851 1.118251E-10
vt 1.176059 5.640347
vt 1.315843 8.883877
vt 2.617413 5.640347
vt 2.757196 8.883877
vt 1.993717 5.472159
vt 2.207036 8.711683
vt 3.430685 5.472159
vt 3.644004 8.711683
vt -19.68504 -24.6063
vt 0.06983117 -24.6063
vt -19.68504 -25.7874
vt 0.002167427 -25.7874
vt 0.6085226 -25.74433
vt 0.4610863 -24.5785
vt 1.615385 -24.48624
vt 1.8679 -25.64366
vt 3.033844 -24.23036
vt 3.47405 -25.35393
vt 4.417074 -23.84107
vt 5.03433 -24.9148
vt 5.754712 -23.32818
vt 6.535397 -24.33926
vt 7.040269 -22.70252
vt 7.969063 -23.64151
vt 8.270761 -21.97456
vt 8.920561 -23.0786
vt 9.445935 -21.15363
vt 9.331808 -22.83531
vt 10.62375 -21.93281
vt 10.56738 -20.24753
vt 10.67418 -20.14924
vt 11.84744 -20.94409
vt 11.63772 -19.26247
vt 12.66003 -18.20327
vt 12.00062 -20.80312
vt 13.00683 -19.87708
vt 13.63737 -17.07365
vt 14.10644 -18.7378
vt 14.41307 -16.08062
vt 15.15077 -17.53073
vt 15.00673 -15.38269
vt 15.57867 -14.77458
vt 15.93156 -16.53121
vt 16.13295 -14.2456
vt 16.46706 -15.90164
vt 16.66487 -13.7942
vt 16.96927 -15.36768
vt 17.16989 -13.41768
vt 17.44393 -14.91468
vt 17.64404 -13.11193
vt 17.88517 -14.54023
vt 18.08442 -12.87147
vt 18.28733 -14.2404
vt 18.4898 -12.68952
vt 18.64548 -14.00945
vt 18.86126 -12.55839
vt 18.95616 -13.83982
vt 19.20266 -12.47024
vt 19.21811 -13.72224
vt 19.52079 -12.41803
vt 19.43318 -13.64632
vt 19.6069 -13.60146
vt 19.68504 -12.40646
vt 19.68504 -13.58864
vt 15.58416 8.771671E-11
vt 15.40474 8.787036E-11
vt 15.58416 3.149606
vt 15.40474 3.149606
vt -0.3014164 3.149606
vt 0.4316066 3.149606
vt -0.3014164 1.063055E-10
vt 0.4316066 1.061954E-10
vt 10.00493 1.038776E-10
vt 9.650956 1.04101E-10
vt 10.00493 3.149606
vt 9.650956 3.149606
vt 4.228631 1.081239E-10
vt 3.649926 1.082287E-10
vt 4.228631 3.149606
vt 3.649926 3.149606
vt -0.1812758 1.197356E-10
vt -1.44467 1.204679E-10
vt -0.1812758 3.149606
vt -1.44467 3.149606
vt 0.2780276 5.743512
vt 0.3407662 8.989446
vt 1.436008 5.743512
vt 1.498747 8.989446
vt -0.06983117 5.776931
vt -0.06983117 9.023471
vt 19.68504 5.776931
vt 19.68504 9.023471
vt 11.9136 9.368548E-11
vt 11.62647 1.000657E-10
vt 11.9136 3.149606
vt 11.62647 3.149606
vt -3.851056 1.180939E-10
vt -5.427 1.184003E-10
vt -3.851056 3.149606
vt -5.427 3.149606
vt 5.452273 4.157038
vt 4.010517 4.157038
vt 5.947134 7.365642
vt 4.505378 7.365642
vt 5.257335 3.885224
vt 5.790551 7.087677
vt 5.402477 3.885224
vt 5.935693 7.087677
vt 4.481052 7.087677
vt 3.947836 3.885224
vt -10.08124 4.130585
vt -9.703888 7.35512
vt -9.579493 4.130585
vt -9.202138 7.35512
vt -2.269934 3.149606
vt -1.443421 3.149606
vt -2.269934 1.04493E-10
vt -1.443421 1.043353E-10
vt 3.669535 4.721623
vt 4.070457 7.943313
vt 5.099234 4.721623
vt 5.500156 7.943313
vt -17.05736 3.506135
vt -17.37975 3.506135
vt -16.92985 6.75017
vt -17.25224 6.75017
vt -15.31978 3.790711
vt -15.67238 3.790711
vt -15.12294 7.031279
vt -15.47554 7.031279
vt 2.91055 6.530394
vt 2.310771 3.339738
vt 1.994289 6.530394
vt 1.394511 3.339738
vt 17.22476 7.839777E-11
vt 17.14558 7.965321E-11
vt 17.22476 3.149606
vt 17.14558 3.149606
vt -3.595521 1.206616E-10
vt -4.073346 1.208073E-10
vt -3.595521 3.149606
vt -4.073346 3.149606
vt -5.178883 1.210595E-10
vt -5.178883 3.149606
vt 2.322087 1.074879E-10
vt 1.665946 1.076287E-10
vt 2.322087 3.149606
vt 1.665946 3.149606
vt 3.259948 4.997426
vt 3.604524 8.225628
vt 4.689672 4.997426
vt 5.034248 8.225628
vt 13.55423 8.839769E-11
vt 13.55423 3.149606
vt 13.7823 9.461893E-11
vt 13.7823 3.149606
vt -5.269241 3.149606
vt -3.68586 3.149606
vt -5.269241 1.089091E-10
vt -3.68586 1.086186E-10
vt -1.903756 1.23892E-10
vt -3.524653 1.242703E-10
vt -1.903756 3.149606
vt -3.524653 3.149606
vt 23.8189 2.868458E-11
vt 25.7874 2.868458E-11
vt 19.68504 25.7874
vt 19.68504 23.8189
vt -19.68504 25.7874
vt -19.68504 23.8189
vt 19.68504 2.870548E-11
vt -19.68504 2.870548E-11
vt 19.68504 3.149606
vt -13.86726 3.987477
vt -13.60515 7.223418
vt -13.47334 3.987477
vt -13.21122 7.223418
vt -19.68504 5.776931
vt -19.68504 9.023471
vt -19.68504 24.6063
vt 19.68504 24.6063
vt -23.8189 2.892491E-11
vt -25.7874 2.892491E-11
vt -24.6063 3.149606
vt -25.7874 3.149606

usemtl pavement

f 3/3/1 2/2/2 1/1/1
f 2/2/2 3/3/1 4/4/2
f 7/7/5 6/6/4 5/5/3
f 6/6/4 7/7/5 8/8/6
f 11/11/7 10/10/7 9/9/7
f 10/10/7 11/11/7 12/12/7
f 15/15/10 14/14/9 13/13/8
f 14/14/9 15/15/10 16/16/11
f 12/19/12 17/18/12 10/17/12
f 17/18/12 12/19/12 5/20/12
f 17/18/12 5/20/12 18/21/12
f 18/21/12 5/20/12 6/22/12
f 18/21/12 6/22/12 19/23/12
f 18/21/12 19/23/12 20/24/12
f 20/24/12 19/23/12 21/25/12
f 20/24/12 21/25/12 22/26/12
f 22/26/12 21/25/12 15/27/12
f 22/26/12 15/27/12 23/28/12
f 23/28/12 15/27/12 13/29/12
f 23/28/12 13/29/12 2/30/12
f 2/30/12 13/29/12 24/31/12
f 2/30/12 24/31/12 1/32/12
f 1/32/12 24/31/12 25/33/12
f 1/32/12 25/33/12 26/34/12
f 26/34/12 25/33/12 27/35/12
f 26/34/12 27/35/12 28/36/12
f 28/36/12 27/35/12 29/37/12
f 29/37/12 27/35/12 30/38/12
f 29/37/12 30/38/12 31/39/12
f 29/37/12 31/39/12 32/40/12
f 32/40/12 31/39/12 33/41/12
f 32/40/12 33/41/12 34/42/12
f 32/40/12 34/42/12 35/43/12
f 35/43/12 34/42/12 36/44/12
f 36/44/12 34/42/12 37/45/12
f 36/44/12 37/45/12 38/46/12
f 38/46/12 37/45/12 39/47/12
f 38/46/12 39/47/12 40/48/12
f 40/48/12 39/47/12 41/49/12
f 40/48/12 41/49/12 42/50/12
f 40/48/12 42/50/12 43/51/12
f 43/51/12 42/50/12 44/52/12
f 43/51/12 44/52/12 45/53/12
f 45/53/12 44/52/12 46/54/12
f 45/53/12 46/54/12 47/55/12
f 47/55/12 46/54/12 48/56/12
f 47/55/12 48/56/12 49/57/12
f 49/57/12 48/56/12 50/58/12
f 49/57/12 50/58/12 51/59/12
f 51/59/12 50/58/12 52/60/12
f 51/59/12 52/60/12 53/61/12
f 53/61/12 52/60/12 54/62/12
f 53/61/12 54/62/12 55/63/12
f 55/63/12 54/62/12 56/64/12
f 55/63/12 56/64/12 57/65/12
f 57/65/12 56/64/12 58/66/12
f 57/65/12 58/66/12 59/67/12
f 59/67/12 58/66/12 60/68/12
f 59/67/12 60/68/12 61/69/12
f 61/69/12 60/68/12 62/70/12
f 62/70/12 60/68/12 63/71/12
f 62/70/12 63/71/12 64/72/12
f 65/75/13 53/74/14 55/73/13
f 53/74/14 65/75/13 66/76/14
f 38/79/15 68/78/16 67/77/15
f 68/78/16 38/79/15 40/80/16
f 25/83/19 69/82/18 27/81/17
f 69/82/18 25/83/19 70/84/20
f 66/87/14 51/86/21 53/85/14
f 51/86/21 66/87/14 71/88/21
f 46/91/24 72/90/23 48/89/22
f 72/90/23 46/91/24 73/92/25
f 74/95/28 63/94/27 60/93/26
f 63/94/27 74/95/28 75/96/27
f 76/99/29 29/98/30 32/97/29
f 29/98/30 76/99/29 77/100/30
f 79/103/33 41/102/32 78/101/31
f 41/102/32 79/103/33 42/104/34
f 64/107/35 75/106/35 80/105/35
f 75/106/35 64/107/35 63/108/35
f 82/111/38 37/110/37 81/109/36
f 37/110/37 82/111/38 39/112/39
f 42/115/34 83/114/41 44/113/40
f 83/114/41 42/115/34 79/116/33
f 48/119/22 84/118/43 50/117/42
f 84/118/43 48/119/22 72/120/23
f 52/123/46 85/122/45 54/121/44
f 85/122/45 52/123/46 86/124/47
f 81/127/36 34/126/49 87/125/48
f 34/126/49 81/127/36 37/128/37
f 4/131/2 23/130/50 2/129/2
f 23/130/50 4/131/2 88/132/50
f 44/135/40 73/134/25 46/133/24
f 73/134/25 44/135/40 83/136/41
f 87/139/48 33/138/52 89/137/51
f 33/138/52 87/139/48 34/140/49
f 90/143/53 10/142/54 17/141/53
f 10/142/54 90/143/53 9/144/54
f 91/147/55 20/146/56 22/145/55
f 20/146/56 91/147/55 92/148/56
f 18/151/57 90/150/53 17/149/53
f 90/150/53 18/151/57 93/152/57
f 40/155/16 94/154/58 68/153/16
f 94/154/58 40/155/16 43/156/58
f 35/159/59 76/158/29 32/157/29
f 76/158/29 35/159/59 95/160/59
f 35/159/59 96/161/60 95/160/59
f 96/161/60 35/159/59 36/162/60
f 19/165/63 97/164/62 21/163/61
f 97/164/62 19/165/63 98/166/64
f 21/169/61 16/168/11 15/167/10
f 16/168/11 21/169/61 97/170/62
f 9/173/65 7/172/65 11/171/65
f 7/172/65 9/173/65 90/174/65
f 7/172/65 90/174/65 93/175/65
f 7/172/65 93/175/65 8/176/65
f 8/176/65 93/175/65 98/177/65
f 98/177/65 93/175/65 92/178/65
f 98/177/65 92/178/65 97/179/65
f 97/179/65 92/178/65 91/180/65
f 97/179/65 91/180/65 16/181/65
f 16/181/65 91/180/65 88/182/65
f 16/181/65 88/182/65 14/183/65
f 14/183/65 88/182/65 4/184/65
f 14/183/65 4/184/65 99/185/65
f 99/185/65 4/184/65 3/186/65
f 99/185/65 3/186/65 70/187/65
f 70/187/65 3/186/65 100/188/65
f 70/187/65 100/188/65 69/189/65
f 69/189/65 100/188/65 101/190/65
f 69/189/65 101/190/65 77/191/65
f 69/189/65 77/191/65 102/192/65
f 102/192/65 77/191/65 103/193/65
f 103/193/65 77/191/65 76/194/65
f 103/193/65 76/194/65 89/195/65
f 89/195/65 76/194/65 87/196/65
f 87/196/65 76/194/65 95/197/65
f 87/196/65 95/197/65 96/198/65
f 87/196/65 96/198/65 81/199/65
f 81/199/65 96/198/65 67/200/65
f 81/199/65 67/200/65 82/201/65
f 82/201/65 67/200/65 68/202/65
f 82/201/65 68/202/65 78/203/65
f 78/203/65 68/202/65 79/204/65
f 79/204/65 68/202/65 94/205/65
f 79/204/65 94/205/65 83/206/65
f 83/206/65 94/205/65 104/207/65
f 83/206/65 104/207/65 73/208/65
f 73/208/65 104/207/65 105/209/65
f 73/208/65 105/209/65 72/210/65
f 72/210/65 105/209/65 106/211/65
f 72/210/65 106/211/65 84/212/65
f 84/212/65 106/211/65 71/213/65
f 84/212/65 71/213/65 86/214/65
f 86/214/65 71/213/65 66/215/65
f 86/214/65 66/215/65 85/216/65
f 85/216/65 66/215/65 65/217/65
f 85/216/65 65/217/65 107/218/65
f 107/218/65 65/217/65 108/219/65
f 107/218/65 108/219/65 109/220/65
f 109/220/65 108/219/65 110/221/65
f 109/220/65 110/221/65 74/222/65
f 74/222/65 110/221/65 111/223/65
f 74/222/65 111/223/65 112/224/65
f 74/222/65 112/224/65 75/225/65
f 75/225/65 112/224/65 80/226/65
f 112/229/66 61/228/67 62/227/66
f 61/228/67 112/229/66 111/230/67
f 45/233/68 105/232/69 104/231/68
f 105/232/69 45/233/68 47/234/69
f 108/237/70 55/236/13 57/235/70
f 55/236/13 108/237/70 65/238/13
f 71/241/21 49/240/71 51/239/21
f 49/240/71 71/241/21 106/242/71
f 92/245/56 18/244/57 20/243/56
f 18/244/57 92/245/56 93/246/57
f 6/249/4 98/248/64 19/247/63
f 98/248/64 6/249/4 8/250/6
f 12/253/72 7/252/5 5/251/3
f 7/252/5 12/253/72 11/254/72
f 110/257/73 57/256/70 59/255/73
f 57/256/70 110/257/73 108/258/70
f 77/261/30 28/260/74 29/259/30
f 28/260/74 77/261/30 101/262/74
f 69/265/18 30/264/75 27/263/17
f 30/264/75 69/265/18 102/266/76
f 30/269/75 103/268/77 31/267/77
f 103/268/77 30/269/75 102/270/76
f 89/271/51 31/267/77 103/268/77
f 31/267/77 89/271/51 33/272/52
f 50/275/42 86/274/47 52/273/46
f 86/274/47 50/275/42 84/276/43
f 43/279/58 104/278/68 94/277/58
f 104/278/68 43/279/58 45/280/68
f 24/283/78 70/282/20 25/281/19
f 70/282/20 24/283/78 99/284/79
f 109/287/81 60/286/26 58/285/80
f 60/286/26 109/287/81 74/288/28
f 107/291/83 58/290/80 56/289/82
f 58/290/80 107/291/83 109/292/81
f 78/295/31 39/294/39 82/293/38
f 39/294/39 78/295/31 41/296/32
f 80/299/84 62/298/66 64/297/84
f 62/298/66 80/299/84 112/300/66
f 101/303/74 26/302/85 28/301/74
f 26/302/85 101/303/74 100/304/85
f 100/304/85 1/305/1 26/302/85
f 1/305/1 100/304/85 3/306/1
f 106/309/71 47/308/69 49/307/71
f 47/308/69 106/309/71 105/310/69
f 13/313/8 99/312/79 24/311/78
f 99/312/79 13/313/8 14/314/9
f 61/317/67 110/316/73 59/315/73
f 110/316/73 61/317/67 111/318/67
f 36/321/60 67/320/15 96/319/60
f 67/320/15 36/321/60 38/322/15
f 88/325/50 22/324/55 23/323/50
f 22/324/55 88/325/50 91/326/55
f 115/328/35 114/11/35 113/327/35
f 114/11/35 115/328/35 116/9/35
f 115/331/12 118/330/12 117/329/12
f 118/330/12 115/331/12 113/332/12
f 119/335/86 115/334/86 117/333/86
f 115/334/86 119/335/86 116/144/86
f 54/338/44 107/337/83 56/336/82
f 107/337/83 54/338/44 85/339/45
f 114/254/87 118/340/87 113/253/87
f 118/340/87 114/254/87 120/341/87
f 120/342/65 116/329/65 119/331/65
f 116/329/65 120/342/65 114/343/65
f 120/346/7 117/345/7 118/344/7
f 117/345/7 120/346/7 119/347/7

