# Created by Kenney (www.kenney.nl)

mtllib Untitled-1.mtl

g gear_full

v -0.4 0.5 -0.5
v -0.4 0 -0.5
v -0.4 0.5 -0.4
v -0.4 0.075 -0.475
v -0.4 0.075 -0.425
v -0.4 0.025 -0.425
v -0.4 0.025 -0.475
v -0.4 0 -0.4
v -0.5 0 -0.4
v -0.425 0.425 -0.4
v -0.425 0.475 -0.4
v -0.475 0.475 -0.4
v -0.475 0.425 -0.4
v -0.5 0.5 -0.4
v 0.4 0 -0.5
v 0.5 0 -0.5
v 0.4 0.5 -0.5
v 0.5 0.5 -0.5
v -0.4 0.5 0.4
v -0.4 0.5 0.5
v -0.5 0.5 0.4
v -0.5 0.5 0.5
v -0.4 0 0.5
v -0.5 0 0.5
v 0.5 0.5 -0.4
v 0.5 0 -0.4
v 0.4 0 -0.4
v 0.475 0.425 -0.4
v 0.475 0.475 -0.4
v 0.425 0.475 -0.4
v 0.425 0.425 -0.4
v 0.4 0.5 -0.4
v -0.5 0 -0.5
v -0.5 0.5 -0.5
v 0.4 0.425 -0.475
v 0.4 0.425 -0.425
v 0.4 0.475 -0.425
v 0.4 0.475 -0.475
v -0.4 0 0.4
v -0.4 0.075 0.425
v -0.4 0.075 0.475
v -0.4 0.025 0.475
v -0.4 0.025 0.425
v -0.5 0 0.4
v 0.5 0.5 0.4
v 0.5 0 0.4
v 0.5 0.5 0.5
v 0.5 0 0.5
v 0.425 0.025 0.4
v 0.4 0 0.4
v 0.4 0.5 0.4
v 0.425 0.075 0.4
v 0.475 0.075 0.4
v 0.475 0.025 0.4
v 0.4 0 0.5
v 0.4 0.5 0.5
v -0.475 0.025 0.4
v -0.475 0.075 0.4
v -0.425 0.075 0.4
v -0.425 0.025 0.4
v 0.4 0.425 0.425
v 0.4 0.425 0.475
v 0.4 0.475 0.475
v 0.4 0.475 0.425

vn 1 0 0
vn 0 0 1
vn 0 0 -1
vn 0 1 0
vn 0 -1 0
vn -1 0 0
vn 0 0.8944272 0.4472136
vn 0 -0.8944272 -0.4472136
vn -0.4472136 0.8944272 0
vn 0.4472136 -0.8944272 0

vt 0.5 0.5
vt 0.5 0
vt 0.4 0.5
vt 0.475 0.075
vt 0.425 0.075
vt 0.425 0.025
vt 0.475 0.025
vt 0.4 0
vt -0.4 0
vt -0.5 0
vt -0.4 0.5
vt -0.425 0.425
vt -0.425 0.475
vt -0.475 0.475
vt -0.475 0.425
vt -0.5 0.5
vt 0.4 0.4
vt 0.5 0.4
vt 0.475 0.425
vt 0.475 0.475
vt 0.425 0.475
vt 0.425 0.425
vt -0.5 0.4
vt -0.4 0.4
vt 0.4 -0.5
vt 0.4 -0.4
vt 0.5 -0.5
vt 0.5 -0.4
vt -0.425 0.075
vt -0.475 0.075
vt -0.475 0.025
vt -0.425 0.025
vt -0.5 -0.5
vt -0.5 -0.4
vt -0.4 -0.5
vt -0.4 -0.4
vt -0.4 0.425
vt -0.4 0.475
vt 0.4 0.025
vt 0.4 0.075
vt 0.425 -0.4
vt 0.425 0.4
vt 0.475 -0.4
vt 0.475 0.4
vt 0.4 0.475
vt 0.4 0.425
vt -0.4 0.075
vt -0.4 0.025
vt -0.4 -0.425
vt 0.4 -0.425
vt -0.4 -0.475
vt 0.4 -0.475
vt -0.475 -0.4
vt -0.475 0.4
vt -0.425 -0.4
vt -0.425 0.4

usemtl _defaultMat(Clone)

f 3/3/1 2/2/1 1/1/1
f 2/2/1 3/3/1 4/4/1
f 4/4/1 3/3/1 5/5/1
f 5/5/1 3/3/1 6/6/1
f 7/7/1 2/2/1 4/4/1
f 2/2/1 7/7/1 8/8/1
f 8/8/1 7/7/1 6/6/1
f 8/8/1 6/6/1 3/3/1
f 3/11/2 9/10/2 8/9/2
f 9/10/2 3/11/2 10/12/2
f 10/12/2 3/11/2 11/13/2
f 11/13/2 3/11/2 12/14/2
f 13/15/2 9/10/2 10/12/2
f 9/10/2 13/15/2 14/16/2
f 14/16/2 13/15/2 12/14/2
f 14/16/2 12/14/2 3/11/2
f 17/11/3 16/10/3 15/9/3
f 16/10/3 17/11/3 18/16/3
f 21/18/4 20/3/4 19/17/4
f 20/3/4 21/18/4 22/1/4
f 20/11/2 24/10/2 23/9/2
f 24/10/2 20/11/2 22/16/2
f 25/3/1 16/2/1 18/1/1
f 16/2/1 25/3/1 26/8/1
f 25/1/2 27/8/2 26/2/2
f 27/8/2 25/1/2 28/19/2
f 28/19/2 25/1/2 29/20/2
f 29/20/2 25/1/2 30/21/2
f 31/22/2 27/8/2 28/19/2
f 27/8/2 31/22/2 32/3/2
f 32/3/2 31/22/2 30/21/2
f 32/3/2 30/21/2 25/1/2
f 27/24/5 16/16/5 26/23/5
f 16/16/5 27/24/5 15/11/5
f 9/9/6 34/16/6 33/10/6
f 34/16/6 9/9/6 14/11/6
f 34/1/3 2/8/3 33/2/3
f 2/8/3 34/1/3 1/3/3
f 9/18/5 2/3/5 8/17/5
f 2/3/5 9/18/5 33/1/5
f 27/9/6 17/16/6 15/10/6
f 17/16/6 27/9/6 35/15/6
f 35/15/6 27/9/6 36/12/6
f 36/12/6 27/9/6 37/13/6
f 38/14/6 17/16/6 35/15/6
f 17/16/6 38/14/6 32/11/6
f 32/11/6 38/14/6 37/13/6
f 32/11/6 37/13/6 27/9/6
f 34/27/4 3/26/4 1/25/4
f 3/26/4 34/27/4 14/28/4
f 20/16/1 39/9/1 19/11/1
f 39/9/1 20/16/1 40/29/1
f 40/29/1 20/16/1 41/30/1
f 41/30/1 20/16/1 42/31/1
f 43/32/1 39/9/1 40/29/1
f 39/9/1 43/32/1 23/10/1
f 23/10/1 43/32/1 42/31/1
f 23/10/1 42/31/1 20/16/1
f 24/2/6 21/3/6 44/8/6
f 21/3/6 24/2/6 22/1/6
f 47/16/1 46/9/1 45/11/1
f 46/9/1 47/16/1 48/10/1
f 50/9/3 49/32/3 46/10/3
f 49/32/3 50/9/3 51/11/3
f 49/32/3 51/11/3 52/29/3
f 52/29/3 51/11/3 53/30/3
f 54/31/3 46/10/3 49/32/3
f 46/10/3 54/31/3 45/16/3
f 45/16/3 54/31/3 53/30/3
f 45/16/3 53/30/3 51/11/3
f 47/1/2 55/8/2 48/2/2
f 55/8/2 47/1/2 56/3/2
f 24/27/5 39/26/5 23/25/5
f 39/26/5 24/27/5 44/28/5
f 44/2/3 57/7/3 39/8/3
f 57/7/3 44/2/3 21/1/3
f 57/7/3 21/1/3 58/4/3
f 58/4/3 21/1/3 59/5/3
f 60/6/3 39/8/3 57/7/3
f 39/8/3 60/6/3 19/3/3
f 19/3/3 60/6/3 59/5/3
f 19/3/3 59/5/3 21/1/3
f 55/2/6 51/3/6 50/8/6
f 51/3/6 55/2/6 61/22/6
f 61/22/6 55/2/6 62/19/6
f 62/19/6 55/2/6 63/20/6
f 64/21/6 51/3/6 61/22/6
f 51/3/6 64/21/6 56/1/6
f 56/1/6 64/21/6 63/20/6
f 56/1/6 63/20/6 55/2/6
f 55/35/5 46/34/5 48/33/5
f 46/34/5 55/35/5 50/36/5
f 57/39/6 12/38/6 13/37/6
f 12/38/6 57/39/6 58/40/6
f 12/43/7 59/42/7 11/41/7
f 59/42/7 12/43/7 58/44/7
f 59/47/1 10/46/1 11/45/1
f 10/46/1 59/47/1 60/48/1
f 60/41/8 13/44/8 10/42/8
f 13/44/8 60/41/8 57/43/8
f 4/40/3 35/37/3 7/39/3
f 35/37/3 4/40/3 38/38/3
f 38/51/9 5/50/9 37/49/9
f 5/50/9 38/51/9 4/52/9
f 36/46/2 5/47/2 6/48/2
f 5/47/2 36/46/2 37/45/2
f 6/46/10 35/38/10 36/37/10
f 35/38/10 6/46/10 7/45/10
f 17/35/4 25/34/4 18/33/4
f 25/34/4 17/35/4 32/36/4
f 49/39/6 30/38/6 31/37/6
f 30/38/6 49/39/6 52/40/6
f 30/55/7 53/54/7 29/53/7
f 53/54/7 30/55/7 52/56/7
f 53/47/1 28/46/1 29/45/1
f 28/46/1 53/47/1 54/48/1
f 54/53/8 31/56/8 28/54/8
f 31/56/8 54/53/8 49/55/8
f 51/24/4 47/16/4 45/23/4
f 47/16/4 51/24/4 56/11/4
f 40/40/3 61/37/3 43/39/3
f 61/37/3 40/40/3 64/38/3
f 42/52/10 61/49/10 62/51/10
f 61/49/10 42/52/10 43/50/10
f 64/37/9 41/45/9 63/38/9
f 41/45/9 64/37/9 40/46/9
f 62/46/2 41/47/2 42/48/2
f 41/47/2 62/46/2 63/45/2

