# Created by Kenney (www.kenney.nl)

mtllib fence_large.mtl

g fence_large

v 0.57 0.25 0.57
v 0.585 0.25 0.57
v 0.57 0.265 0.57
v 0.6 0.265 0.57
v 0.6 1.621481E-17 0.57
v 0.585 1.621481E-17 0.57
v -0.57 0.25 0.57
v 0.57 5.639933E-18 0.57
v -0.57 5.639933E-18 0.57
v -0.6 0.265 0.57
v -0.585 0.25 0.57
v -0.585 1.621481E-17 0.57
v -0.6 1.621481E-17 0.57
v -0.57 0.265 0.57
v 0.57 1.621481E-17 0.585
v -0.57 1.621481E-17 0.585
v 0.57 0 -0.6
v 0.57 1.621481E-17 0.6
v 0.585 0 -0.6
v 0.6 5.639933E-18 0.6
v -0.6 5.639933E-18 0.6
v -0.57 1.621481E-17 0.6
v -0.57 0 -0.6
v -0.585 0 -0.6
v -0.6 0.265 0.6
v 0.57 0.25 -0.6
v 0.585 0.25 -0.6
v 0.6 0.265 0.6
v 0.57 0.265 0.6
v 0.57 0.25 0.585
v -0.57 0.25 0.585
v -0.57 0.25 -0.6
v -0.585 0.25 -0.6
v -0.57 0.265 0.6

vn 0 0 -1
vn 0 -1 0
vn -1 0 0
vn 0 1 0
vn 0 0 1
vn 1 0 0

vt -22.44094 9.84252
vt -23.0315 9.84252
vt -22.44094 10.43307
vt -23.62205 10.43307
vt -23.62205 2.148199E-15
vt -23.0315 2.148199E-15
vt 22.44094 9.84252
vt -22.44094 2.220446E-16
vt 22.44094 2.220446E-16
vt 23.62205 10.43307
vt 23.0315 9.84252
vt 23.0315 5.815989E-15
vt 23.62205 5.815989E-15
vt 22.44094 10.43307
vt 22.44094 23.0315
vt 22.44094 22.44094
vt -22.44094 23.0315
vt -22.44094 22.44094
vt 22.44094 -23.62205
vt 22.44094 23.62205
vt 23.0315 -23.62205
vt 23.0315 22.44094
vt 23.62205 22.44094
vt 23.62205 23.62205
vt -23.62205 23.62205
vt -22.44094 23.62205
vt -23.0315 22.44094
vt -22.44094 -23.62205
vt -23.62205 22.44094
vt -23.0315 -23.62205
vt 22.44094 6.383782E-16
vt 23.62205 2.220446E-16
vt -22.44094 0
vt -23.0315 0
vt 22.44094 2.220446E-16
vt -23.62205 9.84252
vt -23.62205 1.459485E-23
vt -23.62205 2.220446E-16
vt -22.44094 6.383782E-16
vt 23.62205 9.84252
vt 23.62205 -1.573447E-23
vt -23.62205 -1.814011E-23
vt 23.62205 8.100895E-24
vt -22.44094 2.220446E-16
vt 23.0315 0
vt 22.44094 0

usemtl wood

f 3/3/1 2/2/1 1/1/1
f 4/4/1 2/2/1 3/3/1
f 5/5/1 2/2/1 4/4/1
f 2/2/1 5/5/1 6/6/1
f 8/8/1 7/7/1 1/1/1
f 7/7/1 8/8/1 9/9/1
f 11/11/1 10/10/1 7/7/1
f 12/12/1 10/10/1 11/11/1
f 10/10/1 12/12/1 13/13/1
f 7/7/1 10/10/1 14/14/1
f 16/17/2 8/16/2 15/15/2
f 8/16/2 16/17/2 9/18/2
f 17/19/2 15/15/2 8/16/2
f 17/19/2 18/20/2 15/15/2
f 19/21/2 18/20/2 17/19/2
f 6/22/2 18/20/2 19/21/2
f 5/23/2 18/20/2 6/22/2
f 18/20/2 5/23/2 20/24/2
f 16/17/2 21/25/2 9/18/2
f 21/25/2 16/17/2 22/26/2
f 9/18/2 21/25/2 12/27/2
f 9/18/2 12/27/2 23/28/2
f 12/27/2 21/25/2 13/29/2
f 24/30/2 23/28/2 12/27/2
f 21/32/3 10/14/3 13/31/3
f 10/14/3 21/32/3 25/10/3
f 26/1/1 19/34/1 17/33/1
f 19/34/1 26/1/1 27/2/1
f 4/29/4 29/26/4 28/25/4
f 29/26/4 4/29/4 3/18/4
f 18/13/3 30/11/3 15/12/3
f 29/10/3 30/11/3 18/13/3
f 3/14/3 30/11/3 29/10/3
f 30/11/3 3/14/3 1/7/3
f 26/36/3 8/35/3 1/7/3
f 8/35/3 26/36/3 17/37/3
f 27/30/4 1/18/4 2/27/4
f 1/18/4 27/30/4 26/28/4
f 1/18/4 31/15/4 30/17/4
f 31/15/4 1/18/4 7/16/4
f 32/19/4 11/22/4 7/16/4
f 11/22/4 32/19/4 33/21/4
f 22/39/5 25/4/5 21/38/5
f 25/4/5 22/39/5 34/3/5
f 10/23/4 34/20/4 14/16/4
f 34/20/4 10/23/4 25/24/4
f 28/10/5 18/31/5 20/32/5
f 18/31/5 28/10/5 29/14/5
f 28/4/6 5/39/6 4/3/6
f 5/39/6 28/4/6 20/38/6
f 2/1/6 19/41/6 27/40/6
f 19/41/6 2/1/6 6/39/6
f 12/31/3 33/36/3 24/42/3
f 33/36/3 12/31/3 11/7/3
f 7/1/6 23/43/6 32/40/6
f 23/43/6 7/1/6 9/44/6
f 34/4/6 7/1/6 14/3/6
f 7/1/6 34/4/6 31/2/6
f 31/2/6 34/4/6 16/6/6
f 16/6/6 34/4/6 22/5/6
f 30/7/5 16/39/5 15/31/5
f 16/39/5 30/7/5 31/1/5
f 33/11/1 23/46/1 24/45/1
f 23/46/1 33/11/1 32/7/1

