# Created by Kenney (www.kenney.nl)

mtllib house_type20.mtl

g house_type20

v 0.5 0.3 -0.405
v 0.5 3.158362E-16 -0.405
v 0.5 0.3 -0.395
v 0.5 3.158362E-16 -0.395
v 0.5 0.05 -0.395
v 0.3 3.045564E-16 -0.405
v 0.3 0.3 -0.405
v 0.3 3.045564E-16 -0.395
v 0.3 0.3 -0.395
v 0.3 0.05 -0.395
v 0.47 3.158362E-16 -0.405
v 0.47 0.27 -0.405
v 0.47 3.158362E-16 -0.375
v 0.47 0.27 -0.375
v 0.33 0.27 -0.405
v 0.33 3.158362E-16 -0.405
v 0.33 0.27 -0.375
v 0.33 3.158362E-16 -0.375
v 0.6 1.353584E-16 -0.395
v 0.6 0.05 -0.395
v 0.55 0.56 -0.395
v 0.28 0.59 -0.395
v 0.25 0.56 -0.395
v 0.25 0.7 -0.395
v 0.28 0.67 -0.395
v 0.52 0.67 -0.395
v 0.52 0.59 -0.395
v 0.55 0.7 -0.395
v 0.52 0.67 -0.375
v 0.28 0.67 -0.375
v 0.28 0.59 -0.375
v 0.52 0.59 -0.375
v 0.3 0.61 -0.375
v 0.3 0.65 -0.375
v 0.5 0.65 -0.375
v 0.5 0.61 -0.375
v 0.12 0.13 -0.395
v 0.12 0.13 -0.375
v -0.12 0.13 -0.395
v -0.12 0.13 -0.375
v 0.6 7.530439E-14 0.405
v -0.2 1.353584E-16 0.405
v -0.2 1.353584E-16 -0.395
v 0.15 0.1 -0.395
v -0.15 0.1 -0.395
v -0.15 0.3 -0.395
v -0.12 0.27 -0.395
v 0.12 0.27 -0.395
v 0.15 0.3 -0.395
v -0.12 0.27 -0.375
v 0.12 0.27 -0.375
v -0.1 0.15 -0.375
v -0.1 0.25 -0.375
v -0.01 0.25 -0.375
v 0.009999997 0.25 -0.375
v 0.1 0.25 -0.375
v 0.1 0.15 -0.375
v -0.01 0.15 -0.375
v 0.009999997 0.15 -0.375
v -0.2 0.05 -0.395
v 0.6 0.05 0.405
v 0.6 0.27 0.085
v 0.58 0.27 0.085
v 0.6 0.27 0.325
v 0.58 0.27 0.325
v 0.6 0.13 0.085
v 0.6 0.13 0.325
v 0.58 0.13 0.085
v 0.58 0.13 0.325
v 0.58 0.25 0.105
v 0.58 0.25 0.195
v 0.58 0.25 0.215
v 0.58 0.15 0.195
v 0.58 0.25 0.305
v 0.58 0.15 0.305
v 0.58 0.15 0.105
v 0.58 0.15 0.215
v 0.6 0.1 0.055
v 0.6 0.3 0.055
v 0.6 0.3 0.355
v 0.6 0.1 0.355
v 0.12 0.59 -0.375
v -0.1 0.61 -0.375
v -0.12 0.59 -0.375
v -0.12 0.67 -0.375
v -0.1 0.65 -0.375
v 0.1 0.65 -0.375
v 0.1 0.61 -0.375
v 0.12 0.67 -0.375
v -0.12 0.67 -0.395
v -0.12 0.59 -0.395
v 0.12 0.59 -0.395
v 0.12 0.67 -0.395
v 0.15 0.56 -0.395
v -0.15 0.56 -0.395
v -0.15 0.7 -0.395
v 0.15 0.7 -0.395
v 0.6 0.45 -0.395
v 0.6 0.4 -0.395
v 0.6 0.45 0.405
v 0.6 0.4 0.405
v 0.28 0.59 0.385
v 0.5 0.61 0.385
v 0.52 0.59 0.385
v 0.52 0.67 0.385
v 0.5 0.65 0.385
v 0.3 0.65 0.385
v 0.3 0.61 0.385
v 0.28 0.67 0.385
v 0.25 0.56 0.405
v 0.52 0.59 0.405
v 0.55 0.56 0.405
v 0.55 0.7 0.405
v 0.52 0.67 0.405
v 0.28 0.67 0.405
v 0.28 0.59 0.405
v 0.25 0.7 0.405
v -0.2 0.05 0.405
v 0.12 0.27 0.385
v -0.12 0.27 0.385
v 0.12 0.27 0.405
v -0.12 0.27 0.405
v 0.12 0.13 0.385
v 0.12 0.13 0.405
v -0.12 0.13 0.385
v -0.12 0.13 0.405
v 0.09999999 0.15 0.385
v 0.09999999 0.25 0.385
v 0.009999995 0.25 0.385
v -0.01000001 0.25 0.385
v -0.1 0.25 0.385
v -0.1 0.15 0.385
v 0.009999995 0.15 0.385
v -0.01000001 0.15 0.385
v -0.15 0.1 0.405
v 0.15 0.1 0.405
v 0.15 0.3 0.405
v -0.15 0.3 0.405
v -0.12 0.59 0.385
v 0.1 0.61 0.385
v 0.12 0.59 0.385
v 0.12 0.67 0.385
v 0.1 0.65 0.385
v -0.1 0.65 0.385
v -0.1 0.61 0.385
v -0.12 0.67 0.385
v -0.15 0.56 0.405
v 0.12 0.59 0.405
v 0.15 0.56 0.405
v 0.15 0.7 0.405
v 0.12 0.67 0.405
v -0.12 0.67 0.405
v -0.12 0.59 0.405
v -0.15 0.7 0.405
v -0.6 0.4 -0.395
v -0.2 0.4 -0.395
v -0.6 0.45 -0.395
v -0.58 0.72 -0.315
v -0.58 0.47 -0.295
v -0.58 0.45 -0.315
v -0.58 0.45 -0.075
v -0.58 0.47 -0.095
v -0.58 0.7 -0.095
v -0.58 0.7 -0.295
v -0.58 0.72 -0.075
v -0.6 0.45 -0.315
v -0.6 0.72 -0.315
v -0.6 0.72 -0.075
v -0.6 0.45 -0.075
v 0.6 0.8 -0.395
v 0.6 0.8 0.405
v 0.6 0.85 -0.395
v 0.6 0.85 0.405
v 0.57 0.8 -0.365
v 0.57 0.85 -0.365
v 0.57 0.8 0.375
v 0.57 0.85 0.375
v -0.6 0.4 0.405
v -0.6 0.45 0.405
v -0.2 0.4 0.405
v -0.2 0.4 0.385
v -0.58 0.4 0.385
v -0.58 0.4 -0.375
v -0.2 0.4 -0.375
v -0.6 0.45 -0.345
v -0.6 0.75 -0.345
v -0.6 0.45 -0.045
v -0.6 0.45 0.055
v -0.6 0.45 0.085
v -0.6 0.75 0.055
v -0.6 0.45 0.325
v -0.6 0.45 0.355
v -0.6 0.72 0.325
v -0.6 0.72 0.085
v -0.6 0.75 0.355
v -0.6 0.75 -0.045
v -0.58 0.72 0.085
v -0.58 0.47 0.105
v -0.58 0.45 0.085
v -0.58 0.45 0.325
v -0.58 0.47 0.305
v -0.58 0.7 0.305
v -0.58 0.7 0.105
v -0.58 0.72 0.325
v -0.57 0.8 -0.365
v -0.57 0.8 0.375
v -0.57 0.85 -0.365
v -0.6 0.8 -0.395
v -0.6 0.85 -0.395
v -0.6 0.8 0.405
v -0.6 0.85 0.405
v -0.57 0.85 0.375
v 0.38 0.05 -0.375
v 0.42 0.05 -0.375
v 0.38 0.22 -0.375
v 0.42 0.22 -0.375
v -0.2 0.35 -0.375
v -0.2 0.35 0.385
v -0.58 0 -0.375
v -0.55 0 -0.375
v -0.55 0.35 -0.375
v -0.58 0 0.355
v -0.58 0.35 0.355
v -0.58 0 0.385
v -0.58 0 -0.345
v -0.58 0.35 -0.345
v -0.55 0 0.385
v -0.55 0.35 0.385
v -0.55 0 -0.345
v -0.55 0.35 -0.345
v -0.55 0.35 0.355
v -0.55 0 0.355

vn 1 0 0
vn -1 0 0
vn 0 1 0
vn 0 -1 0
vn 0 0 -1
vn 0 0 1

vt 15.94488 11.81102
vt 15.94488 1.24345E-14
vt 15.55118 11.81102
vt 15.55118 1.24345E-14
vt 15.55118 1.968504
vt -15.94488 1.199041E-14
vt -15.94488 11.81102
vt -15.55118 1.199041E-14
vt -15.55118 11.81102
vt -15.55118 1.968504
vt -15.94488 1.24345E-14
vt -15.94488 10.62992
vt -14.76378 1.24345E-14
vt -14.76378 10.62992
vt 15.94488 10.62992
vt 14.76378 10.62992
vt 14.76378 1.24345E-14
vt -19.68504 -15.94488
vt -19.68504 -15.55118
vt -11.81102 -15.94488
vt -11.81102 -15.55118
vt 18.50394 -14.76378
vt 18.50394 -15.94488
vt 12.99213 -14.76378
vt 12.99213 -15.94488
vt -23.62205 8.179568E-15
vt -23.62205 1.968504
vt -19.68504 1.5285E-14
vt -19.68504 1.968504
vt -11.81102 1.199041E-14
vt -12.99213 1.24345E-14
vt -11.81102 11.81102
vt -12.99213 10.62992
vt -18.50394 10.62992
vt -19.68504 11.81102
vt -19.68504 1.24345E-14
vt -18.50394 1.24345E-14
vt -21.65354 22.04725
vt -11.02362 23.22835
vt -9.84252 22.04725
vt -9.84252 27.55906
vt -11.02362 26.37795
vt -20.47244 26.37795
vt -20.47244 23.22835
vt -21.65354 27.55906
vt 20.47244 -14.76378
vt 20.47244 -15.55118
vt 11.02362 -14.76378
vt 11.02362 -15.55118
vt 15.55118 26.37795
vt 15.55118 23.22835
vt 14.76378 26.37795
vt 14.76378 23.22835
vt -15.55118 23.22835
vt -15.55118 26.37795
vt -14.76378 23.22835
vt -14.76378 26.37795
vt -20.47244 -15.55118
vt -20.47244 -14.76378
vt -11.02362 -15.55118
vt -11.02362 -14.76378
vt -11.81102 24.01575
vt -11.81102 25.59055
vt -19.68504 25.59055
vt -19.68504 24.01575
vt -4.72441 -15.55118
vt -4.72441 -14.76378
vt 4.72441 -15.55118
vt 4.72441 -14.76378
vt 23.62205 -15.55118
vt 19.68504 -15.55118
vt 23.62205 15.94488
vt -7.874016 15.94488
vt 19.68504 -15.94488
vt 11.81102 -15.55118
vt -7.874016 -15.55118
vt 11.81102 -15.94488
vt -5.905512 3.937008
vt 4.72441 5.11811
vt 5.905512 3.937008
vt 5.905512 11.81102
vt 4.72441 10.62992
vt -4.72441 10.62992
vt -4.72441 5.11811
vt -5.905512 11.81102
vt 15.55118 10.62992
vt 15.55118 5.11811
vt 14.76378 5.11811
vt -15.55118 5.11811
vt -15.55118 10.62992
vt -14.76378 5.11811
vt 3.937008 5.905512
vt 3.937008 9.84252
vt 0.3937009 9.84252
vt -0.3937007 9.84252
vt -3.937008 9.84252
vt -3.937008 5.905512
vt 0.3937009 5.905512
vt -0.3937007 5.905512
vt 7.874016 5.329071E-15
vt 7.874016 1.968504
vt -11.81102 1.968504
vt 15.55118 5.328795E-15
vt -15.94488 1.968504
vt -15.94488 2.964739E-12
vt 23.62205 3.346457
vt 22.83465 3.346457
vt 23.62205 12.79528
vt 22.83465 12.79528
vt -23.62205 3.346457
vt -23.62205 12.79528
vt -22.83465 3.346457
vt -22.83465 12.79528
vt -3.346456 5.11811
vt -4.133858 9.84252
vt -3.346456 10.62992
vt -12.79527 10.62992
vt -7.677165 9.84252
vt -8.464566 9.84252
vt -7.677165 5.905512
vt -12.00787 9.84252
vt -12.00787 5.905512
vt -4.133858 5.905512
vt -12.79527 5.11811
vt -8.464566 5.905512
vt -22.83465 5.11811
vt -23.62205 5.11811
vt -22.83465 10.62992
vt -23.62205 10.62992
vt -2.165354 3.937008
vt -2.165354 11.81102
vt -13.97638 11.81102
vt -13.97638 3.937008
vt 23.62205 5.11811
vt 22.83465 5.11811
vt 23.62205 10.62992
vt 22.83465 10.62992
vt -4.72441 23.22835
vt 3.937008 24.01575
vt 4.72441 23.22835
vt 4.72441 26.37795
vt 3.937008 25.59055
vt -3.937008 25.59055
vt -3.937008 24.01575
vt -4.72441 26.37795
vt -5.905512 22.04725
vt 5.905512 22.04725
vt 5.905512 27.55906
vt -5.905512 27.55906
vt 15.55118 17.71654
vt 15.55118 15.74803
vt -15.94488 17.71654
vt -15.94488 15.74803
vt 11.02362 23.22835
vt 19.68504 24.01575
vt 20.47244 23.22835
vt 20.47244 26.37795
vt 19.68504 25.59055
vt 11.81102 25.59055
vt 11.81102 24.01575
vt 11.02362 26.37795
vt 9.84252 22.04725
vt 21.65354 22.04725
vt 21.65354 27.55906
vt 9.84252 27.55906
vt 20.47244 15.94488
vt 20.47244 15.15748
vt 11.02362 15.94488
vt 11.02362 15.15748
vt -15.15748 26.37795
vt -15.15748 23.22835
vt -15.94488 26.37795
vt -15.94488 23.22835
vt -20.47244 15.94488
vt -11.02362 15.94488
vt -20.47244 15.15748
vt -11.02362 15.15748
vt 15.15748 23.22835
vt 15.15748 26.37795
vt 15.94488 23.22835
vt 15.94488 26.37795
vt -7.874016 5.327034E-15
vt -7.874016 1.968504
vt 23.62205 2.964738E-12
vt 23.62205 1.968504
vt 4.724409 15.15748
vt -4.72441 15.15748
vt 4.724409 15.94488
vt -4.72441 15.94488
vt -4.724409 15.15748
vt -4.724409 15.94488
vt 4.72441 15.15748
vt 4.72441 15.94488
vt 0.3937008 9.84252
vt -0.3937007 9.84252
vt 0.3937008 5.905512
vt -0.3937007 5.905512
vt -15.15748 10.62992
vt -15.15748 5.11811
vt -15.94488 10.62992
vt -15.94488 5.11811
vt 15.15748 5.11811
vt 15.15748 10.62992
vt 15.94488 5.11811
vt 15.94488 10.62992
vt -15.55118 5.329071E-15
vt 15.94488 5.329071E-15
vt 15.94488 1.968504
vt 23.62205 15.74803
vt 7.874016 15.74803
vt 23.62205 17.71654
vt -23.62205 15.74803
vt -23.62205 17.71654
vt -12.40158 28.34646
vt -11.61417 18.50394
vt -12.40158 17.71654
vt -2.952756 17.71654
vt -3.740158 18.50394
vt -3.740158 27.55906
vt -11.61417 27.55906
vt -2.952756 28.34646
vt -23.62205 28.34646
vt -22.83465 17.71654
vt -22.83465 28.34646
vt -22.83465 -12.40158
vt -23.62205 -12.40158
vt -22.83465 -2.952756
vt -23.62205 -2.952756
vt 22.83465 17.71654
vt 23.62205 28.34646
vt 22.83465 28.34646
vt 22.83465 -12.40158
vt 22.83465 -2.952756
vt 23.62205 -12.40158
vt 23.62205 -2.952756
vt 15.55118 31.49606
vt -15.94488 31.49606
vt 15.55118 33.46457
vt -15.94488 33.46457
vt -14.37008 31.49606
vt -14.37008 33.46457
vt 14.76378 31.49606
vt 14.76378 33.46457
vt -7.874016 15.74803
vt -7.874016 15.15748
vt -22.83465 15.15748
vt -23.62205 15.94488
vt -23.62205 -15.55118
vt -22.83465 -14.76378
vt -7.874016 -14.76378
vt -15.55118 15.74803
vt -15.55118 17.71654
vt 15.94488 15.74803
vt -13.58268 17.71654
vt -13.58268 29.52756
vt -1.771654 17.71654
vt 2.165354 17.71654
vt 3.346457 17.71654
vt 2.165354 29.52756
vt 12.79528 17.71654
vt 13.97638 17.71654
vt 12.79528 28.34646
vt 15.94488 17.71654
vt 3.346457 28.34646
vt 13.97638 29.52756
vt -1.771654 29.52756
vt 4.133858 18.50394
vt 12.00787 18.50394
vt 12.00787 27.55906
vt 4.133858 27.55906
vt -22.44094 -14.37008
vt -22.44094 14.76378
vt 22.44094 -14.37008
vt 22.44094 14.76378
vt 22.44094 31.49606
vt -22.44094 31.49606
vt 22.44094 33.46457
vt -22.44094 33.46457
vt 23.62205 31.49606
vt -23.62205 31.49606
vt 23.62205 33.46457
vt -23.62205 33.46457
vt -15.55118 31.49606
vt -15.55118 33.46457
vt 15.94488 31.49606
vt 15.94488 33.46457
vt 14.37008 33.46457
vt 14.37008 31.49606
vt -14.76378 33.46457
vt -14.76378 31.49606
vt -14.96063 1.968504
vt -16.53543 1.968504
vt -14.96063 8.661417
vt -16.53543 8.661417

usemtl border

f 3/3/1 2/2/1 1/1/1
f 2/2/1 3/3/1 4/4/1
f 4/4/1 3/3/1 5/5/1
f 8/8/2 7/7/2 6/6/2
f 7/7/2 8/8/2 9/9/2
f 9/9/2 8/8/2 10/10/2
f 13/13/2 12/12/2 11/11/2
f 12/12/2 13/13/2 14/14/2
f 17/16/1 16/2/1 15/15/1
f 16/2/1 17/16/1 18/17/1
f 7/20/3 3/19/3 1/18/3
f 3/19/3 7/20/3 9/21/3
f 17/24/4 12/23/4 14/22/4
f 12/23/4 17/24/4 15/25/4
f 4/28/5 20/27/5 19/26/5
f 20/27/5 4/28/5 5/29/5
f 7/32/5 16/31/5 6/30/5
f 16/31/5 7/32/5 15/33/5
f 15/33/5 7/32/5 12/34/5
f 1/35/5 12/34/5 7/32/5
f 2/36/5 12/34/5 1/35/5
f 12/34/5 2/36/5 11/37/5
f 23/40/5 22/39/5 21/38/5
f 22/39/5 23/40/5 24/41/5
f 22/39/5 24/41/5 25/42/5
f 25/42/5 24/41/5 26/43/5
f 27/44/5 21/38/5 22/39/5
f 21/38/5 27/44/5 28/45/5
f 28/45/5 27/44/5 26/43/5
f 28/45/5 26/43/5 24/41/5
f 30/48/4 26/47/4 29/46/4
f 26/47/4 30/48/4 25/49/4
f 30/52/1 22/51/1 25/50/1
f 22/51/1 30/52/1 31/53/1
f 32/56/2 26/55/2 27/54/2
f 26/55/2 32/56/2 29/57/2
f 22/60/3 32/59/3 27/58/3
f 32/59/3 22/60/3 31/61/3
f 31/39/5 33/62/5 32/44/5
f 33/62/5 31/39/5 30/42/5
f 33/62/5 30/42/5 34/63/5
f 34/63/5 30/42/5 35/64/5
f 36/65/5 32/44/5 33/62/5
f 32/44/5 36/65/5 29/43/5
f 29/43/5 36/65/5 35/64/5
f 29/43/5 35/64/5 30/42/5
f 39/68/3 38/67/3 37/66/3
f 38/67/3 39/68/3 40/69/3
f 41/72/4 4/71/4 19/70/4
f 4/71/4 41/72/4 42/73/4
f 4/71/4 42/73/4 2/74/4
f 2/74/4 42/73/4 13/22/4
f 13/22/4 42/73/4 18/24/4
f 18/24/4 42/73/4 16/25/4
f 16/25/4 42/73/4 8/75/4
f 8/75/4 42/73/4 43/76/4
f 6/77/4 16/25/4 8/75/4
f 11/23/4 2/74/4 13/22/4
f 45/80/5 39/79/5 44/78/5
f 39/79/5 45/80/5 46/81/5
f 39/79/5 46/81/5 47/82/5
f 47/82/5 46/81/5 48/83/5
f 37/84/5 44/78/5 39/79/5
f 44/78/5 37/84/5 49/85/5
f 49/85/5 37/84/5 48/83/5
f 49/85/5 48/83/5 46/81/5
f 50/16/1 39/87/1 47/86/1
f 39/87/1 50/16/1 40/88/1
f 38/91/2 48/90/2 37/89/2
f 48/90/2 38/91/2 51/14/2
f 50/67/4 48/68/4 51/69/4
f 48/68/4 50/67/4 47/66/4
f 40/79/5 52/92/5 38/84/5
f 52/92/5 40/79/5 50/82/5
f 52/92/5 50/82/5 53/93/5
f 53/93/5 50/82/5 54/94/5
f 54/94/5 50/82/5 55/95/5
f 55/95/5 50/82/5 56/96/5
f 57/97/5 38/84/5 52/92/5
f 38/84/5 57/97/5 51/83/5
f 51/83/5 57/97/5 56/96/5
f 51/83/5 56/96/5 50/82/5
f 57/97/5 52/92/5 58/98/5
f 57/97/5 58/98/5 59/99/5
f 54/94/5 59/99/5 58/98/5
f 59/99/5 54/94/5 55/95/5
f 60/101/5 8/30/5 43/100/5
f 8/30/5 60/101/5 10/102/5
f 61/104/1 19/103/1 20/5/1
f 19/103/1 61/104/1 41/105/1
f 64/108/4 63/107/4 62/106/4
f 63/107/4 64/108/4 65/109/4
f 68/112/3 67/111/3 66/110/3
f 67/111/3 68/112/3 69/113/3
f 63/116/1 70/115/1 68/114/1
f 70/115/1 63/116/1 65/117/1
f 70/115/1 65/117/1 71/118/1
f 71/118/1 65/117/1 72/119/1
f 71/118/1 72/119/1 73/120/1
f 72/119/1 65/117/1 74/121/1
f 74/121/1 65/117/1 75/122/1
f 76/123/1 68/114/1 70/115/1
f 68/114/1 76/123/1 69/124/1
f 69/124/1 76/123/1 73/120/1
f 69/124/1 75/122/1 65/117/1
f 69/124/1 73/120/1 77/125/1
f 77/125/1 73/120/1 72/119/1
f 69/124/1 77/125/1 75/122/1
f 65/128/5 67/127/5 69/126/5
f 67/127/5 65/128/5 64/129/5
f 79/131/1 62/116/1 78/130/1
f 62/116/1 79/131/1 80/132/1
f 62/116/1 80/132/1 64/117/1
f 64/117/1 80/132/1 67/124/1
f 66/114/1 78/130/1 62/116/1
f 78/130/1 66/114/1 81/133/1
f 81/133/1 66/114/1 67/124/1
f 81/133/1 67/124/1 80/132/1
f 62/136/6 68/135/6 66/134/6
f 68/135/6 62/136/6 63/137/6
f 84/140/5 83/139/5 82/138/5
f 83/139/5 84/140/5 85/141/5
f 83/139/5 85/141/5 86/142/5
f 86/142/5 85/141/5 87/143/5
f 88/144/5 82/138/5 83/139/5
f 82/138/5 88/144/5 89/145/5
f 89/145/5 88/144/5 87/143/5
f 89/145/5 87/143/5 85/141/5
f 85/52/1 91/51/1 90/50/1
f 91/51/1 85/52/1 84/53/1
f 82/56/2 93/55/2 92/54/2
f 93/55/2 82/56/2 89/57/2
f 85/67/4 93/68/4 89/69/4
f 93/68/4 85/67/4 90/66/4
f 95/147/5 91/140/5 94/146/5
f 91/140/5 95/147/5 96/148/5
f 91/140/5 96/148/5 90/141/5
f 90/141/5 96/148/5 93/145/5
f 92/138/5 94/146/5 91/140/5
f 94/146/5 92/138/5 97/149/5
f 97/149/5 92/138/5 93/145/5
f 97/149/5 93/145/5 96/148/5
f 91/68/3 82/67/3 92/66/3
f 82/67/3 91/68/3 84/69/3
f 100/152/1 99/151/1 98/150/1
f 99/151/1 100/152/1 101/153/1
f 104/156/6 103/155/6 102/154/6
f 103/155/6 104/156/6 105/157/6
f 103/155/6 105/157/6 106/158/6
f 106/158/6 105/157/6 107/159/6
f 108/160/6 102/154/6 103/155/6
f 102/154/6 108/160/6 109/161/6
f 109/161/6 108/160/6 107/159/6
f 109/161/6 107/159/6 105/157/6
f 112/163/6 111/156/6 110/162/6
f 111/156/6 112/163/6 113/164/6
f 111/156/6 113/164/6 114/157/6
f 114/157/6 113/164/6 115/161/6
f 116/154/6 110/162/6 111/156/6
f 110/162/6 116/154/6 117/165/6
f 117/165/6 116/154/6 115/161/6
f 117/165/6 115/161/6 113/164/6
f 115/168/4 105/167/4 114/166/4
f 105/167/4 115/168/4 109/169/4
f 115/172/1 102/171/1 109/170/1
f 102/171/1 115/172/1 116/173/1
f 104/176/3 116/175/3 111/174/3
f 116/175/3 104/176/3 102/177/3
f 111/180/2 105/179/2 104/178/2
f 105/179/2 111/180/2 114/181/2
f 41/184/6 118/183/6 42/182/6
f 118/183/6 41/184/6 61/185/6
f 121/188/4 120/187/4 119/186/4
f 120/187/4 121/188/4 122/189/4
f 125/192/3 124/191/3 123/190/3
f 124/191/3 125/192/3 126/193/3
f 123/79/6 127/92/6 125/84/6
f 127/92/6 123/79/6 119/82/6
f 127/92/6 119/82/6 128/93/6
f 128/93/6 119/82/6 129/194/6
f 129/194/6 119/82/6 130/195/6
f 130/195/6 119/82/6 131/96/6
f 132/97/6 125/84/6 127/92/6
f 125/84/6 132/97/6 120/83/6
f 120/83/6 132/97/6 131/96/6
f 120/83/6 131/96/6 119/82/6
f 132/97/6 127/92/6 133/196/6
f 132/97/6 133/196/6 134/197/6
f 129/194/6 134/197/6 133/196/6
f 134/197/6 129/194/6 130/195/6
f 122/200/1 125/199/1 120/198/1
f 125/199/1 122/200/1 126/201/1
f 136/80/6 124/79/6 135/78/6
f 124/79/6 136/80/6 137/81/6
f 124/79/6 137/81/6 121/82/6
f 121/82/6 137/81/6 122/83/6
f 126/84/6 135/78/6 124/79/6
f 135/78/6 126/84/6 138/85/6
f 138/85/6 126/84/6 122/83/6
f 138/85/6 122/83/6 137/81/6
f 124/204/2 119/203/2 123/202/2
f 119/203/2 124/204/2 121/205/2
f 42/207/2 60/10/2 43/206/2
f 60/10/2 42/207/2 118/208/2
f 141/140/6 140/139/6 139/138/6
f 140/139/6 141/140/6 142/141/6
f 140/139/6 142/141/6 143/142/6
f 143/142/6 142/141/6 144/143/6
f 145/144/6 139/138/6 140/139/6
f 139/138/6 145/144/6 146/145/6
f 146/145/6 145/144/6 144/143/6
f 146/145/6 144/143/6 142/141/6
f 149/147/6 148/140/6 147/146/6
f 148/140/6 149/147/6 150/148/6
f 148/140/6 150/148/6 151/141/6
f 151/141/6 150/148/6 152/145/6
f 153/138/6 147/146/6 148/140/6
f 147/146/6 153/138/6 154/149/6
f 154/149/6 153/138/6 152/145/6
f 154/149/6 152/145/6 150/148/6
f 152/172/1 139/171/1 146/170/1
f 139/171/1 152/172/1 153/173/1
f 152/189/4 142/192/4 151/193/4
f 142/192/4 152/189/4 146/187/4
f 148/180/2 142/179/2 141/178/2
f 142/179/2 148/180/2 151/181/2
f 141/187/3 153/193/3 148/189/3
f 153/193/3 141/187/3 139/192/3
f 157/211/5 156/210/5 155/209/5
f 156/210/5 157/211/5 99/212/5
f 99/212/5 157/211/5 98/213/5
f 160/216/2 159/215/2 158/214/2
f 159/215/2 160/216/2 161/217/2
f 159/215/2 161/217/2 162/218/2
f 162/218/2 161/217/2 163/219/2
f 164/220/2 158/214/2 159/215/2
f 158/214/2 164/220/2 165/221/2
f 165/221/2 164/220/2 163/219/2
f 165/221/2 163/219/2 161/217/2
f 160/223/6 167/222/6 166/213/6
f 167/222/6 160/223/6 158/224/6
f 165/227/4 167/226/4 158/225/4
f 167/226/4 165/227/4 168/228/4
f 168/230/5 161/229/5 169/211/5
f 161/229/5 168/230/5 165/231/5
f 166/234/3 161/233/3 160/232/3
f 161/233/3 166/234/3 169/235/3
f 172/238/1 171/237/1 170/236/1
f 171/237/1 172/238/1 173/239/1
f 176/242/2 175/241/2 174/240/2
f 175/241/2 176/242/2 177/243/2
f 180/244/6 179/213/6 178/212/6
f 179/213/6 180/244/6 101/209/6
f 179/213/6 101/209/6 100/211/6
f 180/73/4 182/246/4 181/245/4
f 182/246/4 180/73/4 178/247/4
f 182/246/4 178/247/4 155/248/4
f 155/248/4 183/249/4 182/246/4
f 156/76/4 183/249/4 155/248/4
f 183/249/4 156/76/4 184/250/4
f 178/253/2 157/252/2 155/251/2
f 157/252/2 178/253/2 185/254/2
f 185/254/2 178/253/2 166/216/2
f 185/254/2 166/216/2 186/255/2
f 166/216/2 178/253/2 169/217/2
f 169/217/2 178/253/2 187/256/2
f 169/217/2 187/256/2 168/221/2
f 187/256/2 178/253/2 188/257/2
f 188/257/2 178/253/2 189/258/2
f 188/257/2 189/258/2 190/259/2
f 189/258/2 178/253/2 191/260/2
f 191/260/2 178/253/2 192/261/2
f 191/260/2 192/261/2 193/262/2
f 192/261/2 178/253/2 179/263/2
f 194/264/2 190/259/2 189/258/2
f 190/259/2 194/264/2 195/265/2
f 195/265/2 194/264/2 193/262/2
f 195/265/2 193/262/2 192/261/2
f 167/214/2 186/255/2 166/216/2
f 186/255/2 167/214/2 196/266/2
f 196/266/2 167/214/2 168/221/2
f 196/266/2 168/221/2 187/256/2
f 199/258/2 198/267/2 197/264/2
f 198/267/2 199/258/2 200/260/2
f 198/267/2 200/260/2 201/268/2
f 201/268/2 200/260/2 202/269/2
f 203/270/2 197/264/2 198/267/2
f 197/264/2 203/270/2 204/262/2
f 204/262/2 203/270/2 202/269/2
f 204/262/2 202/269/2 200/260/2
f 197/224/6 189/213/6 199/223/6
f 189/213/6 197/224/6 194/222/6
f 204/113/4 194/110/4 197/112/4
f 194/110/4 204/113/4 193/111/4
f 193/230/5 200/229/5 191/211/5
f 200/229/5 193/230/5 204/231/5
f 189/106/3 200/109/3 199/107/3
f 200/109/3 189/106/3 191/108/3
f 205/273/3 176/272/3 174/271/3
f 176/272/3 205/273/3 206/274/3
f 175/277/6 205/276/6 174/275/6
f 205/276/6 175/277/6 207/278/6
f 209/281/5 170/280/5 208/279/5
f 170/280/5 209/281/5 172/282/5
f 173/281/6 210/280/6 171/279/6
f 210/280/6 173/281/6 211/282/6
f 172/248/3 175/271/3 173/247/3
f 175/271/3 172/248/3 209/70/3
f 175/271/3 209/70/3 207/273/3
f 207/273/3 209/70/3 212/274/3
f 177/272/3 173/247/3 175/271/3
f 173/247/3 177/272/3 211/72/3
f 211/72/3 177/272/3 212/274/3
f 211/72/3 212/274/3 209/70/3
f 210/285/2 209/284/2 208/283/2
f 209/284/2 210/285/2 211/286/2
f 212/277/5 176/276/5 206/275/5
f 176/276/5 212/277/5 177/278/5
f 212/289/1 205/288/1 207/287/1
f 205/288/1 212/289/1 206/290/1

usemtl window

f 215/293/5 214/292/5 213/291/5
f 214/292/5 215/293/5 216/294/5
f 34/63/5 36/65/5 33/62/5
f 36/65/5 34/63/5 35/64/5
f 55/95/5 57/97/5 59/99/5
f 57/97/5 55/95/5 56/96/5
f 53/93/5 58/98/5 52/92/5
f 58/98/5 53/93/5 54/94/5
f 74/121/1 77/125/1 72/119/1
f 77/125/1 74/121/1 75/122/1
f 71/118/1 76/123/1 70/115/1
f 76/123/1 71/118/1 73/120/1
f 86/142/5 88/144/5 83/139/5
f 88/144/5 86/142/5 87/143/5
f 106/158/6 108/160/6 103/155/6
f 108/160/6 106/158/6 107/159/6
f 130/195/6 132/97/6 134/197/6
f 132/97/6 130/195/6 131/96/6
f 128/93/6 133/196/6 127/92/6
f 133/196/6 128/93/6 129/194/6
f 143/142/6 145/144/6 140/139/6
f 145/144/6 143/142/6 144/143/6
f 162/218/2 164/220/2 159/215/2
f 164/220/2 162/218/2 163/219/2
f 201/268/2 203/270/2 198/267/2
f 203/270/2 201/268/2 202/269/2

usemtl door

f 18/31/5 213/291/5 13/37/5
f 213/291/5 18/31/5 17/33/5
f 213/291/5 17/33/5 215/293/5
f 215/293/5 17/33/5 216/294/5
f 214/292/5 13/37/5 213/291/5
f 13/37/5 214/292/5 14/34/5
f 14/34/5 214/292/5 216/294/5
f 14/34/5 216/294/5 17/33/5
f 171/237/1 98/150/1 170/236/1
f 98/150/1 171/237/1 100/152/1
f 157/211/5 95/147/5 98/213/5
f 95/147/5 157/211/5 208/279/5
f 95/147/5 208/279/5 96/148/5
f 96/148/5 208/279/5 97/149/5
f 97/149/5 208/279/5 24/41/5
f 24/41/5 208/279/5 28/45/5
f 21/38/5 98/213/5 95/147/5
f 98/213/5 21/38/5 170/280/5
f 170/280/5 21/38/5 28/45/5
f 170/280/5 28/45/5 208/279/5
f 21/38/5 95/147/5 94/146/5
f 21/38/5 94/146/5 23/40/5
f 97/149/5 23/40/5 94/146/5
f 23/40/5 97/149/5 24/41/5
f 171/279/6 112/163/6 100/211/6
f 112/163/6 171/279/6 113/164/6
f 113/164/6 171/279/6 117/165/6
f 117/165/6 171/279/6 150/148/6
f 150/148/6 171/279/6 154/149/6
f 147/146/6 100/211/6 112/163/6
f 147/146/6 179/213/6 100/211/6
f 179/213/6 147/146/6 210/280/6
f 210/280/6 147/146/6 154/149/6
f 210/280/6 154/149/6 171/279/6
f 147/146/6 112/163/6 110/162/6
f 147/146/6 110/162/6 149/147/6
f 117/165/6 149/147/6 110/162/6
f 149/147/6 117/165/6 150/148/6
f 188/257/2 196/266/2 187/256/2
f 190/259/2 196/266/2 188/257/2
f 210/285/2 196/266/2 190/259/2
f 210/285/2 186/255/2 196/266/2
f 208/283/2 186/255/2 210/285/2
f 208/283/2 185/254/2 186/255/2
f 185/254/2 208/283/2 157/252/2
f 210/285/2 190/259/2 195/265/2
f 210/285/2 195/265/2 179/263/2
f 179/263/2 195/265/2 192/261/2

usemtl _defaultMat

f 60/85/5 45/83/5 10/81/5
f 45/85/5 60/83/5 156/81/5
f 45/85/5 156/83/5 46/81/5
f 46/85/5 156/83/5 49/81/5
f 49/85/5 156/83/5 9/81/5
f 9/85/5 156/83/5 3/81/5
f 3/85/5 20/83/5 5/81/5
f 20/85/5 3/83/5 99/81/5
f 99/85/5 3/83/5 156/81/5
f 10/85/5 44/83/5 9/81/5
f 44/85/5 10/83/5 45/81/5
f 9/85/5 44/83/5 49/81/5
f 99/133/1 79/124/1 20/132/1
f 79/133/1 99/124/1 101/132/1
f 79/133/1 101/124/1 80/132/1
f 80/133/1 101/124/1 81/132/1
f 20/133/1 78/124/1 61/132/1
f 78/133/1 20/124/1 79/132/1
f 61/133/1 78/124/1 81/132/1
f 61/133/1 81/124/1 101/132/1
f 101/97/6 136/195/6 61/96/6
f 136/97/6 101/195/6 137/96/6
f 137/97/6 101/195/6 138/96/6
f 138/97/6 101/195/6 180/96/6
f 118/97/6 135/195/6 180/96/6
f 135/97/6 118/195/6 61/96/6
f 135/97/6 61/195/6 136/96/6
f 180/97/6 135/195/6 138/96/6
f 60/144/2 217/142/2 156/143/2
f 217/144/2 60/142/2 118/143/2
f 217/144/2 118/142/2 218/143/2
f 218/144/2 118/142/2 181/143/2
f 181/144/2 118/142/2 180/143/2
f 184/144/2 156/142/2 217/143/2
f 183/144/5 220/142/5 219/143/5
f 220/144/5 183/142/5 221/143/5
f 221/144/5 183/142/5 217/143/5
f 217/144/5 183/142/5 184/143/5
f 224/241/2 223/242/2 222/243/2
f 225/241/2 183/242/2 219/243/2
f 183/241/2 225/242/2 226/243/2
f 183/241/2 226/242/2 182/243/2
f 182/241/2 226/242/2 223/243/2
f 182/241/2 223/242/2 224/243/2
f 228/241/6 224/242/6 227/243/6
f 224/241/6 228/242/6 182/243/6
f 182/241/6 228/242/6 218/243/6
f 182/241/6 218/242/6 181/243/6
f 225/280/4 220/281/4 229/282/4
f 220/280/4 225/281/4 219/282/4
f 230/280/6 225/281/6 229/282/6
f 225/280/6 230/281/6 226/282/6
f 221/280/1 229/281/1 220/282/1
f 229/280/1 221/281/1 230/282/1
f 228/288/4 230/289/4 218/290/4
f 230/288/4 228/289/4 231/290/4
f 230/288/4 231/289/4 226/290/4
f 226/288/4 231/289/4 223/290/4
f 218/288/4 221/289/4 217/290/4
f 221/288/4 218/289/4 230/290/4
f 228/288/1 232/289/1 231/290/1
f 232/288/1 228/289/1 227/290/1
f 223/288/5 232/289/5 222/290/5
f 232/288/5 223/289/5 231/290/5
f 224/288/4 232/289/4 227/290/4
f 232/288/4 224/289/4 222/290/4

