# Created by Kenney (www.kenney.nl)

mtllib house_type19.mtl

g house_type19

v 0.47 0 -0.375
v 0.35 0.02 -0.375
v 0.33 0 -0.375
v 0.33 0.27 -0.375
v 0.35 0.25 -0.375
v 0.45 0.25 -0.375
v 0.45 0.02 -0.375
v 0.47 0.27 -0.375
v 0.47 0 -0.395
v 0.47 0.27 -0.395
v 0.33 0.27 -0.395
v 0.33 0 -0.395
v 0.1 0.3 -0.405
v 0.1 0.3 -0.395
v -0.1 0.3 -0.405
v -0.1 0.3 -0.395
v -0.1 1.69198E-16 -0.405
v -0.06999999 1.804779E-16 -0.405
v -0.06999999 0.27 -0.405
v 0.07 0.27 -0.405
v 0.1 1.804779E-16 -0.405
v 0.07 1.804779E-16 -0.405
v -0.1 1.69198E-16 -0.395
v -0.1 0.05 -0.395
v 0.07 1.804779E-16 -0.375
v 0.07 0.27 -0.375
v -0.06999999 0.27 -0.375
v -0.06999999 1.804779E-16 -0.375
v 0.1 1.804779E-16 -0.395
v 0.1 0.05 -0.395
v -0.2 0 -0.395
v -0.2 0.05 -0.395
v 0.3 0.05 -0.395
v 0.3 0.3 -0.395
v 0.5 0.3 -0.395
v 0.5 0.05 -0.395
v 0.6 0 -0.395
v 0.6 0.05 -0.395
v 0.52 0.53 -0.395
v 0.52 0.53 -0.375
v 0.28 0.53 -0.395
v 0.28 0.53 -0.375
v 0.52 0.67 -0.395
v 0.52 0.67 -0.375
v 0.28 0.67 -0.375
v 0.28 0.67 -0.395
v 0.3 0.55 -0.375
v 0.3 0.65 -0.375
v 0.39 0.65 -0.375
v 0.41 0.65 -0.375
v 0.5 0.65 -0.375
v 0.5 0.55 -0.375
v 0.39 0.55 -0.375
v 0.41 0.55 -0.375
v 0.55 0.5 -0.395
v 0.25 0.5 -0.395
v 0.25 0.7 -0.395
v 0.55 0.7 -0.395
v 0.6 0.05 0.405
v 0.6 0 0.405
v 0.33 0.27 0.385
v 0.33 1.804779E-16 0.385
v 0.33 0.27 0.405
v 0.33 1.804779E-16 0.405
v 0.47 1.804779E-16 0.385
v 0.47 0.27 0.385
v 0.47 1.804779E-16 0.405
v 0.47 0.27 0.405
v -0.6 0.4 -0.395
v -0.2 0.4 -0.395
v -0.6 0.45 -0.395
v 0.6 0.4 -0.395
v 0.6 0.45 -0.395
v 0.2 0.45 -0.395
v 0.2 0.4 -0.365
v -0.17 0.4 -0.365
v 0.2 0.45 -0.365
v -0.17 0.45 -0.365
v -0.17 0.45 0.005
v -0.17 0.4 0.005
v 0.6 0.45 0.405
v 0.6 0.4 0.405
v 0.52 0.67 0.405
v 0.52 0.67 0.385
v 0.28 0.67 0.405
v 0.28 0.67 0.385
v 0.52 0.53 0.405
v 0.28 0.53 0.405
v 0.52 0.53 0.385
v 0.28 0.53 0.385
v 0.25 0.5 0.405
v 0.55 0.5 0.405
v 0.55 0.7 0.405
v 0.25 0.7 0.405
v 0.5 0.55 0.385
v 0.5 0.65 0.385
v 0.41 0.65 0.385
v 0.39 0.65 0.385
v 0.3 0.65 0.385
v 0.3 0.55 0.385
v 0.41 0.55 0.385
v 0.39 0.55 0.385
v -0.2 0 0.405
v -0.18 0 0.275
v -0.18 0 0.135
v -0.2 0 0.135
v -0.2 0 0.275
v -0.18 0.27 0.135
v -0.2 0.27 0.135
v -0.18 0.27 0.275
v -0.2 0.27 0.275
v 0.5 0.05 0.405
v 0.5 0.3 0.405
v 0.3 0.3 0.405
v 0.3 0.05 0.405
v -0.2 0.05 0.405
v -0.2 0.05 0.305
v -0.2 0.3 0.305
v -0.2 0.3 0.105
v -0.2 0.05 0.105
v -0.18 0.02 0.155
v -0.18 0.02 0.255
v -0.18 0.25 0.255
v -0.18 0.25 0.155
v 0.2 0.4 0.005
v 0.2 0.45 0.005
v -0.12 0.53 0.385
v 0.1 0.55 0.385
v 0.12 0.53 0.385
v 0.12 0.67 0.385
v 0.1 0.65 0.385
v 0.009999999 0.65 0.385
v -0.01 0.65 0.385
v -0.1 0.65 0.385
v -0.1 0.55 0.385
v -0.12 0.67 0.385
v 0.009999999 0.55 0.385
v -0.01 0.55 0.385
v 0.12 0.53 0.405
v -0.12 0.53 0.405
v 0.12 0.67 0.405
v -0.12 0.67 0.405
v -0.15 0.5 0.405
v 0.15 0.5 0.405
v 0.15 0.7 0.405
v -0.15 0.7 0.405
v 0.2 0.8 -0.395
v 0.6 0.8 -0.395
v 0.2 0.85 -0.395
v 0.6 0.85 -0.395
v 0.23 0.8 -0.365
v 0.23 0.8 0.035
v 0.23 0.85 -0.365
v 0.23 0.85 0.035
v 0.57 0.8 -0.365
v 0.57 0.85 -0.365
v -0.2 0.45 0.005
v -0.2 0.45 0.2908841
v -0.2 0.45 0.405
v -0.6 0.45 0.405
v 0.6 0.85 0.405
v 0.6 0.8 0.405
v -0.17 0.8 0.375
v 0.57 0.8 0.375
v -0.17 0.85 0.375
v 0.57 0.85 0.375
v -0.17 0.8 0.035
v -0.17 0.85 0.035
v 0.2 0.85 0.005
v -0.2 0.85 0.005
v -0.2 0.85 0.405
v -0.2 0.8 0.405
v -0.2 0.4 0.405
v -0.6 0.4 0.405
v -0.2 0.4 0.385
v -0.58 0.4 0.385
v -0.58 0.4 -0.375
v -0.2 0.4 -0.375
v 0.2 0.8 0.005
v 0.2 0.8406432 0.005
v -0.2 0.8 0.005
v -0.02 0.05 -0.375
v 0.02 0.05 -0.375
v -0.02 0.22 -0.375
v 0.02 0.22 -0.375
v -0.58 0 -0.375
v -0.55 0 -0.375
v -0.55 0.35 -0.375
v -0.2 0.35 -0.375
v -0.2 0.35 0.385
v -0.55 0 0.385
v -0.58 0 0.385
v -0.55 0.35 0.385
v -0.55 0.35 -0.345
v -0.55 0.35 0.355
v -0.58 0.35 -0.345
v -0.58 0.35 0.355
v -0.55 0 -0.345
v -0.58 0 -0.345
v -0.55 0 0.355
v -0.58 0 0.355

vn 0 0 -1
vn -1 0 0
vn 0 -1 0
vn 1 0 0
vn 0 1 0
vn 0 0 1

vt -18.50394 0
vt -13.77953 0.7874016
vt -12.99213 0
vt -12.99213 10.62992
vt -13.77953 9.84252
vt -17.71654 9.84252
vt -17.71654 0.7874016
vt -18.50394 10.62992
vt -15.55118 0
vt -15.55118 10.62992
vt -14.76378 0
vt -14.76378 10.62992
vt 18.50394 -14.76378
vt 18.50394 -15.55118
vt 12.99213 -14.76378
vt 12.99213 -15.55118
vt 15.55118 10.62992
vt 15.55118 0
vt 14.76378 10.62992
vt 14.76378 0
vt -3.937008 -15.94488
vt -3.937008 -15.55118
vt 3.937008 -15.94488
vt 3.937008 -15.55118
vt 3.937008 6.661338E-15
vt 2.755905 7.105427E-15
vt 3.937008 11.81102
vt 2.755905 10.62992
vt -2.755906 10.62992
vt -3.937008 11.81102
vt -3.937008 7.105427E-15
vt -2.755906 7.105427E-15
vt -15.94488 6.661338E-15
vt -15.94488 11.81102
vt -15.55118 6.661338E-15
vt -15.55118 11.81102
vt -15.55118 1.968504
vt -15.94488 7.105427E-15
vt -15.94488 10.62992
vt -14.76378 7.105427E-15
vt 15.94488 10.62992
vt 15.94488 7.105427E-15
vt 14.76378 7.105427E-15
vt 2.755906 -14.76378
vt 2.755906 -15.94488
vt -2.755905 -14.76378
vt -2.755905 -15.94488
vt 15.94488 11.81102
vt 15.55118 11.81102
vt 15.55118 7.105427E-15
vt 15.55118 1.968504
vt 7.874016 -3.895001E-31
vt 7.874016 1.968504
vt 3.937008 1.968504
vt -11.81102 1.968504
vt -12.99213 1.004887E-14
vt -3.937008 1.71543E-14
vt -3.937008 1.968504
vt -11.81102 11.81102
vt -19.68504 11.81102
vt -19.68504 1.968504
vt -18.50394 1.004887E-14
vt -23.62205 1.004887E-14
vt -23.62205 1.968504
vt -20.47244 -15.55118
vt -20.47244 -14.76378
vt -11.02362 -15.55118
vt -11.02362 -14.76378
vt -15.55118 20.86614
vt -15.55118 26.37795
vt -14.76378 20.86614
vt -14.76378 26.37795
vt 20.47244 -14.76378
vt 20.47244 -15.55118
vt 11.02362 -14.76378
vt 11.02362 -15.55118
vt -20.47244 20.86614
vt -11.81102 21.65354
vt -11.02362 20.86614
vt -11.02362 26.37795
vt -11.81102 25.59055
vt -15.35433 25.59055
vt -16.14173 25.59055
vt -19.68504 25.59055
vt -19.68504 21.65354
vt -20.47244 26.37795
vt -15.35433 21.65354
vt -16.14173 21.65354
vt 15.55118 26.37795
vt 15.55118 20.86614
vt 14.76378 26.37795
vt 14.76378 20.86614
vt -21.65354 19.68504
vt -9.84252 19.68504
vt -9.84252 27.55906
vt -21.65354 27.55906
vt -15.94488 1.968504
vt -15.94488 0
vt -15.15748 10.62992
vt -15.15748 7.105427E-15
vt 15.15748 7.105427E-15
vt 15.15748 10.62992
vt 18.50394 15.94488
vt 18.50394 15.15748
vt 12.99213 15.94488
vt 12.99213 15.15748
vt 23.62205 15.74803
vt 7.874016 15.74803
vt 23.62205 17.71654
vt -23.62205 15.74803
vt -23.62205 17.71654
vt -7.874016 17.71654
vt -6.692914 15.74803
vt 7.874016 17.71654
vt -6.692914 17.71654
vt 14.37008 17.71654
vt 14.37008 15.74803
vt -0.1968504 17.71654
vt -0.1968504 15.74803
vt 15.55118 17.71654
vt 15.55118 15.74803
vt -15.94488 17.71654
vt -15.94488 15.74803
vt 20.47244 15.94488
vt 20.47244 15.15748
vt 11.02362 15.94488
vt 11.02362 15.15748
vt -20.47244 15.94488
vt -11.02362 15.94488
vt -20.47244 15.15748
vt -11.02362 15.15748
vt 9.84252 19.68504
vt 20.47244 20.86614
vt 21.65354 19.68504
vt 21.65354 27.55906
vt 20.47244 26.37795
vt 11.02362 26.37795
vt 11.02362 20.86614
vt 9.84252 27.55906
vt 19.68504 21.65354
vt 19.68504 25.59055
vt 16.14173 25.59055
vt 15.35433 25.59055
vt 11.81102 25.59055
vt 11.81102 21.65354
vt 16.14173 21.65354
vt 15.35433 21.65354
vt 15.15748 20.86614
vt 15.15748 26.37795
vt 15.94488 20.86614
vt 15.94488 26.37795
vt -15.15748 26.37795
vt -15.15748 20.86614
vt -15.94488 26.37795
vt -15.94488 20.86614
vt 23.62205 15.94488
vt 23.62205 -15.55118
vt -7.874016 15.94488
vt -7.086614 10.82677
vt -7.086614 5.31496
vt -7.874016 -15.55118
vt -7.874016 5.31496
vt -7.874016 10.82677
vt -7.086614 0
vt -7.874016 0
vt -7.086614 10.62992
vt -7.874016 10.62992
vt 23.62205 2.769881E-14
vt 18.50394 3.480423E-14
vt 23.62205 1.968504
vt 19.68504 1.968504
vt 18.50394 10.62992
vt 19.68504 11.81102
vt 12.99213 10.62992
vt 11.81102 11.81102
vt 11.81102 1.968504
vt 12.99213 3.480423E-14
vt -7.874016 1.968504
vt -7.874016 2.769881E-14
vt 7.874016 0
vt 7.086614 0
vt 7.874016 10.62992
vt 7.086614 10.62992
vt 10.82677 10.62992
vt 12.00787 1.968504
vt 10.82677 -2.234145E-13
vt 15.94488 -2.234145E-13
vt 15.94488 1.968504
vt 12.00787 11.81102
vt 5.31496 10.62992
vt 4.133858 11.81102
vt 5.31496 -2.234145E-13
vt 4.133858 1.968504
vt -15.55118 -2.234145E-13
vt 6.102362 0.7874016
vt 5.31496 0
vt 10.82677 0
vt 10.03937 0.7874016
vt 10.03937 9.84252
vt 6.102362 9.84252
vt -7.874016 -14.37008
vt -7.874016 0.1968504
vt 6.692914 -14.37008
vt 6.692914 0.1968504
vt -14.37008 15.74803
vt -14.37008 17.71654
vt 0.1968503 15.74803
vt 0.1968504 17.71654
vt -4.72441 20.86614
vt 3.937008 21.65354
vt 4.72441 20.86614
vt 4.72441 26.37795
vt 3.937008 25.59055
vt 0.3937007 25.59055
vt -0.3937008 25.59055
vt -3.937008 25.59055
vt -3.937008 21.65354
vt -4.72441 26.37795
vt 0.3937007 21.65354
vt -0.3937008 21.65354
vt -4.72441 15.94488
vt 4.72441 15.94488
vt -4.72441 15.15748
vt 4.72441 15.15748
vt -5.905512 19.68504
vt 5.905512 19.68504
vt 5.905512 27.55906
vt -5.905512 27.55906
vt 6.692914 15.74803
vt -7.874016 15.74803
vt 6.692914 17.71654
vt -7.874016 31.49606
vt -23.62205 31.49606
vt -7.874016 33.46457
vt -23.62205 33.46457
vt 14.37008 31.49606
vt -1.377953 31.49606
vt 14.37008 33.46457
vt -1.377953 33.46457
vt 22.44094 31.49606
vt 9.055118 31.49606
vt 22.44094 33.46457
vt 9.055118 33.46457
vt 7.874016 0.1968504
vt 7.874016 11.45213
vt 7.874016 15.94488
vt 15.55118 33.46457
vt 15.55118 31.49606
vt -15.94488 33.46457
vt -15.94488 31.49606
vt 6.692914 31.49606
vt -22.44094 31.49606
vt 6.692914 33.46457
vt -22.44094 33.46457
vt 9.055119 31.49606
vt -6.692914 31.49606
vt 9.055119 33.46457
vt -6.692914 33.46457
vt -14.37008 31.49606
vt -14.37008 33.46457
vt 14.76378 31.49606
vt 14.76378 33.46457
vt -22.44094 14.76378
vt -22.44094 -14.37008
vt -23.62205 -15.55118
vt -9.055118 -14.37008
vt -9.055119 1.377953
vt 6.692914 1.377953
vt 6.692914 14.76378
vt -23.62205 15.94488
vt 23.62205 31.49606
vt 23.62205 33.46457
vt -15.55118 15.74803
vt -15.55118 17.71654
vt 15.94488 15.74803
vt 15.94488 17.71654
vt -7.874016 15.15748
vt -22.83465 15.15748
vt -22.83465 -14.76378
vt -7.874016 -14.76378
vt -15.55118 31.49606
vt -15.55118 33.46457
vt 0.1968504 31.49606
vt 0.1968504 33.46457
vt 0.1968504 33.09619
vt 15.94488 33.46457
vt 0.1968504 31.49606
vt 15.94488 31.49606
vt -1.377953 33.46457
vt -1.377953 31.49606
vt -14.76378 33.46457
vt -14.76378 31.49606
vt 7.874016 31.49606
vt 7.874016 33.46457
vt -7.874016 33.09619
vt 0.7874015 1.968504
vt -0.7874017 1.968504
vt 0.7874015 8.661417
vt -0.7874017 8.661417
vt 18.50394 7.105427E-15
vt 12.99213 7.105427E-15
vt 0.1968504 17.71654
vt 11.45213 17.71654
vt 15.94488 17.71654

usemtl border

f 3/3/1 2/2/1 1/1/1
f 2/2/1 3/3/1 4/4/1
f 2/2/1 4/4/1 5/5/1
f 5/5/1 4/4/1 6/6/1
f 7/7/1 1/1/1 2/2/1
f 1/1/1 7/7/1 8/8/1
f 8/8/1 7/7/1 6/6/1
f 8/8/1 6/6/1 4/4/1
f 1/11/2 10/10/2 9/9/2
f 10/10/2 1/11/2 8/12/2
f 4/15/3 10/14/3 8/13/3
f 10/14/3 4/15/3 11/16/3
f 4/19/4 12/18/4 11/17/4
f 12/18/4 4/19/4 3/20/4
f 15/23/5 14/22/5 13/21/5
f 14/22/5 15/23/5 16/24/5
f 15/27/1 18/26/1 17/25/1
f 18/26/1 15/27/1 19/28/1
f 19/28/1 15/27/1 20/29/1
f 13/30/1 20/29/1 15/27/1
f 21/31/1 20/29/1 13/30/1
f 20/29/1 21/31/1 22/32/1
f 23/35/2 15/34/2 17/33/2
f 15/34/2 23/35/2 16/36/2
f 16/36/2 23/35/2 24/37/2
f 25/40/2 20/39/2 22/38/2
f 20/39/2 25/40/2 26/12/2
f 27/19/4 18/42/4 19/41/4
f 18/42/4 27/19/4 28/43/4
f 27/46/3 20/45/3 26/44/3
f 20/45/3 27/46/3 19/47/3
f 14/49/4 21/42/4 13/48/4
f 21/42/4 14/49/4 29/50/4
f 29/50/4 14/49/4 30/51/4
f 32/53/1 23/25/1 31/52/1
f 23/25/1 32/53/1 24/54/1
f 12/56/1 33/55/1 11/4/1
f 33/55/1 12/56/1 29/57/1
f 33/55/1 29/57/1 30/58/1
f 11/4/1 33/55/1 34/59/1
f 11/4/1 34/59/1 10/8/1
f 35/60/1 10/8/1 34/59/1
f 36/61/1 10/8/1 35/60/1
f 36/61/1 9/62/1 10/8/1
f 9/62/1 36/61/1 37/63/1
f 37/63/1 36/61/1 38/64/1
f 41/67/5 40/66/5 39/65/5
f 40/66/5 41/67/5 42/68/5
f 40/71/2 43/70/2 39/69/2
f 43/70/2 40/71/2 44/72/2
f 45/75/3 43/74/3 44/73/3
f 43/74/3 45/75/3 46/76/3
f 42/79/1 47/78/1 40/77/1
f 47/78/1 42/79/1 45/80/1
f 47/78/1 45/80/1 48/81/1
f 48/81/1 45/80/1 49/82/1
f 49/82/1 45/80/1 50/83/1
f 50/83/1 45/80/1 51/84/1
f 52/85/1 40/77/1 47/78/1
f 40/77/1 52/85/1 44/86/1
f 44/86/1 52/85/1 51/84/1
f 44/86/1 51/84/1 45/80/1
f 52/85/1 47/78/1 53/87/1
f 52/85/1 53/87/1 54/88/1
f 49/82/1 54/88/1 53/87/1
f 54/88/1 49/82/1 50/83/1
f 45/91/4 41/90/4 46/89/4
f 41/90/4 45/91/4 42/92/4
f 56/94/1 41/79/1 55/93/1
f 41/79/1 56/94/1 57/95/1
f 41/79/1 57/95/1 46/80/1
f 46/80/1 57/95/1 43/86/1
f 39/77/1 55/93/1 41/79/1
f 55/93/1 39/77/1 58/96/1
f 58/96/1 39/77/1 43/86/1
f 58/96/1 43/86/1 57/95/1
f 59/97/4 37/18/4 38/51/4
f 37/18/4 59/97/4 60/98/4
f 63/39/4 62/100/4 61/99/4
f 62/100/4 63/39/4 64/38/4
f 67/42/2 66/102/2 65/101/2
f 66/102/2 67/42/2 68/41/2
f 63/105/3 66/104/3 68/103/3
f 66/104/3 63/105/3 61/106/3
f 71/109/1 70/108/1 69/107/1
f 70/108/1 71/109/1 72/110/1
f 72/110/1 71/109/1 73/111/1
f 73/111/1 71/109/1 74/112/1
f 77/114/6 76/113/6 75/108/6
f 76/113/6 77/114/6 78/115/6
f 79/118/4 76/117/4 78/116/4
f 76/117/4 79/118/4 80/119/4
f 81/122/4 72/121/4 73/120/4
f 72/121/4 81/122/4 82/123/4
f 85/126/3 84/125/3 83/124/3
f 84/125/3 85/126/3 86/127/3
f 89/130/5 88/129/5 87/128/5
f 88/129/5 89/130/5 90/131/5
f 92/134/6 87/133/6 91/132/6
f 87/133/6 92/134/6 93/135/6
f 87/133/6 93/135/6 83/136/6
f 83/136/6 93/135/6 85/137/6
f 88/138/6 91/132/6 87/133/6
f 91/132/6 88/138/6 94/139/6
f 94/139/6 88/138/6 85/137/6
f 94/139/6 85/137/6 93/135/6
f 89/133/6 95/140/6 90/138/6
f 95/140/6 89/133/6 84/136/6
f 95/140/6 84/136/6 96/141/6
f 96/141/6 84/136/6 97/142/6
f 97/142/6 84/136/6 98/143/6
f 98/143/6 84/136/6 99/144/6
f 100/145/6 90/138/6 95/140/6
f 90/138/6 100/145/6 86/137/6
f 86/137/6 100/145/6 99/144/6
f 86/137/6 99/144/6 84/136/6
f 100/145/6 95/140/6 101/146/6
f 100/145/6 101/146/6 102/147/6
f 97/142/6 102/147/6 101/146/6
f 102/147/6 97/142/6 98/143/6
f 87/150/2 84/149/2 89/148/2
f 84/149/2 87/150/2 83/151/2
f 85/154/4 90/153/4 86/152/4
f 90/153/4 85/154/4 88/155/4
f 67/103/3 1/13/3 60/156/3
f 1/13/3 67/103/3 65/104/3
f 1/13/3 65/104/3 3/15/3
f 3/15/3 65/104/3 62/106/3
f 3/15/3 62/106/3 12/16/3
f 12/16/3 62/106/3 29/24/3
f 9/14/3 60/156/3 1/13/3
f 60/156/3 9/14/3 37/157/3
f 62/106/3 103/158/3 29/24/3
f 103/158/3 62/106/3 64/105/3
f 29/24/3 103/158/3 21/23/3
f 21/23/3 103/158/3 25/44/3
f 25/44/3 103/158/3 28/46/3
f 28/46/3 103/158/3 18/47/3
f 18/47/3 103/158/3 104/159/3
f 18/47/3 104/159/3 23/22/3
f 23/22/3 104/159/3 105/160/3
f 105/160/3 31/161/3 23/22/3
f 31/161/3 105/160/3 106/162/3
f 104/159/3 103/158/3 107/163/3
f 17/21/3 18/47/3 23/22/3
f 22/45/3 21/23/3 25/44/3
f 110/159/3 109/162/3 108/160/3
f 109/162/3 110/159/3 111/163/3
f 108/166/6 106/165/6 105/164/6
f 106/165/6 108/166/6 109/167/6
f 59/170/6 67/169/6 60/168/6
f 67/169/6 59/170/6 112/171/6
f 67/169/6 112/171/6 68/172/6
f 68/172/6 112/171/6 113/173/6
f 68/172/6 113/173/6 63/174/6
f 114/175/6 63/174/6 113/173/6
f 115/176/6 63/174/6 114/175/6
f 63/174/6 115/176/6 64/177/6
f 116/178/6 64/177/6 115/176/6
f 64/177/6 116/178/6 103/179/6
f 111/182/1 104/181/1 107/180/1
f 104/181/1 111/182/1 110/183/1
f 107/186/2 117/185/2 111/184/2
f 117/185/2 107/186/2 103/187/2
f 117/185/2 103/187/2 116/188/2
f 118/189/2 111/184/2 117/185/2
f 118/189/2 109/190/2 111/184/2
f 119/191/2 109/190/2 118/189/2
f 119/191/2 106/192/2 109/190/2
f 120/193/2 106/192/2 119/191/2
f 32/37/2 106/192/2 120/193/2
f 106/192/2 32/37/2 31/194/2
f 105/196/2 121/195/2 108/190/2
f 121/195/2 105/196/2 104/197/2
f 121/195/2 104/197/2 122/198/2
f 122/198/2 104/197/2 123/199/2
f 124/200/2 108/190/2 121/195/2
f 108/190/2 124/200/2 110/184/2
f 110/184/2 124/200/2 123/199/2
f 110/184/2 123/199/2 104/197/2
f 76/203/5 125/202/5 75/201/5
f 125/202/5 76/203/5 80/204/5
f 125/207/2 77/206/2 75/205/2
f 77/206/2 125/207/2 126/208/2
f 129/211/6 128/210/6 127/209/6
f 128/210/6 129/211/6 130/212/6
f 128/210/6 130/212/6 131/213/6
f 131/213/6 130/212/6 132/214/6
f 132/214/6 130/212/6 133/215/6
f 133/215/6 130/212/6 134/216/6
f 135/217/6 127/209/6 128/210/6
f 127/209/6 135/217/6 136/218/6
f 136/218/6 135/217/6 134/216/6
f 136/218/6 134/216/6 130/212/6
f 135/217/6 128/210/6 137/219/6
f 135/217/6 137/219/6 138/220/6
f 132/214/6 138/220/6 137/219/6
f 138/220/6 132/214/6 133/215/6
f 129/223/5 140/222/5 139/221/5
f 140/222/5 129/223/5 127/224/5
f 142/221/3 130/224/3 141/222/3
f 130/224/3 142/221/3 136/223/3
f 144/226/6 139/211/6 143/225/6
f 139/211/6 144/226/6 145/227/6
f 139/211/6 145/227/6 141/212/6
f 141/212/6 145/227/6 142/218/6
f 140/209/6 143/225/6 139/211/6
f 143/225/6 140/209/6 146/228/6
f 146/228/6 140/209/6 142/218/6
f 146/228/6 142/218/6 145/227/6
f 142/154/4 127/153/4 136/152/4
f 127/153/4 142/154/4 140/155/4
f 79/231/1 125/230/1 80/229/1
f 125/230/1 79/231/1 126/112/1
f 139/150/2 130/149/2 129/148/2
f 130/149/2 139/150/2 141/151/2
f 149/234/1 148/233/1 147/232/1
f 148/233/1 149/234/1 150/235/1
f 153/238/4 152/237/4 151/236/4
f 152/237/4 153/238/4 154/239/4
f 156/242/6 151/241/6 155/240/6
f 151/241/6 156/242/6 153/243/6
f 71/157/5 77/201/5 74/161/5
f 77/201/5 71/157/5 78/203/5
f 78/203/5 71/157/5 79/204/5
f 79/204/5 71/157/5 157/244/5
f 157/244/5 71/157/5 158/245/5
f 158/245/5 71/157/5 159/246/5
f 159/246/5 71/157/5 160/156/5
f 161/249/4 148/248/4 150/247/4
f 148/248/4 161/249/4 162/250/4
f 165/253/1 164/252/1 163/251/1
f 164/252/1 165/253/1 166/254/1
f 154/257/6 167/256/6 152/255/6
f 167/256/6 154/257/6 168/258/6
f 164/261/2 156/260/2 155/259/2
f 156/260/2 164/261/2 166/262/2
f 150/265/5 156/264/5 166/263/5
f 156/264/5 150/265/5 149/161/5
f 156/264/5 149/161/5 153/266/5
f 169/202/5 153/266/5 149/161/5
f 169/202/5 154/267/5 153/266/5
f 154/267/5 169/202/5 168/268/5
f 168/268/5 169/202/5 170/244/5
f 168/268/5 170/244/5 165/269/5
f 166/263/5 161/270/5 150/265/5
f 161/270/5 166/263/5 171/246/5
f 171/246/5 166/263/5 165/269/5
f 171/246/5 165/269/5 170/244/5
f 161/272/6 172/232/6 162/271/6
f 172/232/6 161/272/6 171/234/6
f 81/109/6 173/230/6 82/107/6
f 173/230/6 81/109/6 160/111/6
f 160/111/6 81/109/6 159/112/6
f 160/111/6 174/110/6 173/230/6
f 174/275/2 71/274/2 69/273/2
f 71/274/2 174/275/2 160/276/2
f 174/270/3 175/277/3 173/158/3
f 175/277/3 174/270/3 176/278/3
f 176/278/3 174/270/3 69/265/3
f 69/265/3 177/279/3 176/278/3
f 70/161/3 177/279/3 69/265/3
f 177/279/3 70/161/3 178/280/3
f 151/266/5 152/267/5 155/264/5
f 152/267/5 164/263/5 155/264/5
f 164/263/5 152/267/5 163/269/5
f 163/269/5 152/267/5 167/268/5
f 179/283/2 149/282/2 147/281/2
f 149/282/2 179/283/2 169/284/2
f 169/284/2 179/283/2 180/285/2
f 181/287/2 171/286/2 170/284/2
f 171/286/2 181/287/2 172/288/2
f 165/291/4 167/290/4 168/289/4
f 167/290/4 165/291/4 163/292/4
f 170/294/1 179/232/1 181/293/1
f 179/232/1 170/294/1 180/295/1
f 180/295/1 170/294/1 169/234/1

usemtl window

f 5/5/1 7/7/1 2/2/1
f 7/7/1 5/5/1 6/6/1
f 184/298/1 183/297/1 182/296/1
f 183/297/1 184/298/1 185/299/1
f 48/81/1 53/87/1 47/78/1
f 53/87/1 48/81/1 49/82/1
f 50/83/1 52/85/1 54/88/1
f 52/85/1 50/83/1 51/84/1
f 96/141/6 101/146/6 95/140/6
f 101/146/6 96/141/6 97/142/6
f 98/143/6 100/145/6 102/147/6
f 100/145/6 98/143/6 99/144/6
f 122/198/2 124/200/2 121/195/2
f 124/200/2 122/198/2 123/199/2
f 131/213/6 137/219/6 128/210/6
f 137/219/6 131/213/6 132/214/6
f 133/215/6 135/217/6 138/220/6
f 135/217/6 133/215/6 134/216/6

usemtl door

f 28/26/1 182/296/1 25/32/1
f 182/296/1 28/26/1 27/28/1
f 182/296/1 27/28/1 184/298/1
f 184/298/1 27/28/1 185/299/1
f 183/297/1 25/32/1 182/296/1
f 25/32/1 183/297/1 26/29/1
f 26/29/1 183/297/1 185/299/1
f 26/29/1 185/299/1 27/28/1
f 74/112/1 56/94/1 73/111/1
f 56/94/1 74/112/1 147/232/1
f 56/94/1 147/232/1 57/95/1
f 57/95/1 147/232/1 58/96/1
f 55/93/1 73/111/1 56/94/1
f 73/111/1 55/93/1 148/233/1
f 148/233/1 55/93/1 58/96/1
f 148/233/1 58/96/1 147/232/1
f 66/172/6 62/301/6 65/300/6
f 62/301/6 66/172/6 61/174/6
f 162/250/4 73/120/4 148/248/4
f 73/120/4 162/250/4 81/122/4
f 77/206/2 147/281/2 74/274/2
f 147/281/2 77/206/2 179/283/2
f 179/283/2 77/206/2 126/208/2
f 81/109/6 92/134/6 159/112/6
f 92/134/6 81/109/6 162/271/6
f 92/134/6 162/271/6 93/135/6
f 93/135/6 162/271/6 94/139/6
f 94/139/6 162/271/6 145/227/6
f 145/227/6 162/271/6 146/228/6
f 143/225/6 159/112/6 92/134/6
f 159/112/6 143/225/6 172/232/6
f 172/232/6 143/225/6 146/228/6
f 172/232/6 146/228/6 162/271/6
f 143/225/6 92/134/6 91/132/6
f 143/225/6 91/132/6 144/226/6
f 94/139/6 144/226/6 91/132/6
f 144/226/6 94/139/6 145/227/6
f 158/303/2 181/287/2 157/302/2
f 181/287/2 158/303/2 172/288/2
f 172/288/2 158/303/2 159/304/2
f 181/293/1 79/231/1 157/114/1
f 79/231/1 181/293/1 126/112/1
f 126/112/1 181/293/1 179/232/1

usemtl _defaultMat

f 70/60/1 24/8/1 32/59/1
f 24/60/1 70/8/1 16/59/1
f 16/60/1 70/8/1 14/59/1
f 14/60/1 70/8/1 34/59/1
f 34/60/1 70/8/1 35/59/1
f 36/60/1 72/8/1 38/59/1
f 72/60/1 36/8/1 35/59/1
f 72/60/1 35/8/1 70/59/1
f 14/60/1 33/8/1 30/59/1
f 33/60/1 14/8/1 34/59/1
f 82/18/4 38/97/4 72/98/4
f 38/18/4 82/97/4 59/98/4
f 82/162/6 112/159/6 59/163/6
f 112/162/6 82/159/6 113/163/6
f 113/162/6 82/159/6 114/163/6
f 114/162/6 116/159/6 115/163/6
f 116/162/6 114/159/6 173/163/6
f 173/162/6 114/159/6 82/163/6
f 177/246/1 187/157/1 186/156/1
f 187/246/1 177/157/1 188/156/1
f 189/246/1 177/157/1 178/156/1
f 188/246/1 177/157/1 189/156/1
f 116/232/2 118/272/2 117/234/2
f 118/232/2 116/272/2 190/234/2
f 190/232/2 116/272/2 175/234/2
f 175/232/2 116/272/2 173/234/2
f 32/232/2 189/272/2 70/234/2
f 189/232/2 32/272/2 120/234/2
f 189/232/2 120/272/2 119/234/2
f 189/232/2 119/272/2 190/234/2
f 190/232/2 119/272/2 118/234/2
f 178/232/2 70/272/2 189/234/2
f 193/265/6 192/279/6 191/278/6
f 192/265/6 193/279/6 176/278/6
f 176/265/6 193/279/6 190/278/6
f 176/265/6 190/279/6 175/278/6
f 193/295/3 194/294/3 190/234/3
f 194/295/3 193/294/3 195/234/3
f 194/295/3 195/294/3 196/234/3
f 196/295/3 195/294/3 197/234/3
f 190/295/3 188/294/3 189/234/3
f 188/295/3 190/294/3 194/234/3
f 199/295/3 187/294/3 198/234/3
f 187/295/3 199/294/3 186/234/3
f 194/295/6 199/294/6 198/234/6
f 199/295/6 194/294/6 196/234/6
f 188/295/4 198/294/4 187/234/4
f 198/295/4 188/294/4 194/234/4
f 193/295/4 200/294/4 195/234/4
f 200/295/4 193/294/4 191/234/4
f 192/295/3 200/294/3 191/234/3
f 200/295/3 192/294/3 201/234/3
f 197/295/1 200/294/1 201/234/1
f 200/295/1 197/294/1 195/234/1
f 192/295/2 197/294/2 201/234/2
f 177/295/2 196/294/2 176/234/2
f 196/295/2 177/294/2 186/234/2
f 196/295/2 186/294/2 199/234/2
f 176/295/2 196/294/2 197/234/2
f 176/295/2 197/294/2 192/234/2

