# Created by Kenney (www.kenney.nl)

mtllib path_tilesShort.mtl

g path_tilesShort

v 0.07 0 -0.1
v 0.07 0.005 -0.1
v -0.07 2.819966E-18 -0.1
v -0.07 0.005 -0.1
v -0.07 0.005 -0.095
v 0.07 0.005 -0.095
v -0.07 0.01 -0.095
v 0.07 0.01 -0.095
v -0.07 2.819966E-18 0.1
v -0.07 0.005 -0.005
v -0.07 0.005 0.005
v -0.07 0.01 0.005
v -0.07 0.005 0.095
v -0.07 0.005 0.1
v -0.07 0.01 0.095
v -0.07 0.01 -0.005
v 0.07 0.01 -0.005
v 0.07 0.005 -0.005
v 0.07 0 0.1
v 0.07 0.005 0.005
v 0.07 0.005 0.095
v 0.07 0.01 0.095
v 0.07 0.01 0.005
v 0.07 0.005 0.1

vn 0 0 -1
vn -1 0 0
vn 1 0 0
vn 0 0 1
vn 0 1 0
vn 0 -1 0

vt -2.755906 0
vt -2.755906 0.1968504
vt 2.755906 1.110223E-16
vt 2.755906 0.1968504
vt 2.755906 0.3937008
vt -2.755906 0.3937008
vt -3.937008 1.110223E-16
vt -3.937008 0.1968504
vt 3.937008 1.110223E-16
vt -3.740157 0.1968504
vt -0.1968504 0.1968504
vt -3.740157 0.3937008
vt 0.1968504 0.1968504
vt 0.1968504 0.3937008
vt 3.740157 0.1968504
vt 3.937008 0.1968504
vt 3.740157 0.3937008
vt -0.1968504 0.3937008
vt -3.937008 0
vt 3.937008 0
vt -2.755906 3.740157
vt 2.755906 3.740157
vt -2.755906 -3.937008
vt -2.755906 -3.740157
vt 2.755906 -3.937008
vt 2.755906 -3.740157
vt -2.755906 -0.1968504
vt 2.755906 -0.1968504
vt 2.755906 -5.684342E-13
vt -2.755906 -5.683232E-13
vt -2.755906 3.937008
vt 2.755906 3.937008

usemtl pavement

f 3/3/1 2/2/1 1/1/1
f 2/2/1 3/3/1 4/4/1
f 7/5/1 6/2/1 5/4/1
f 6/2/1 7/5/1 8/6/1
f 9/9/2 4/8/2 3/7/2
f 4/8/2 9/9/2 5/10/2
f 5/10/2 9/9/2 10/11/2
f 5/10/2 10/11/2 7/12/2
f 10/11/2 9/9/2 11/13/2
f 11/13/2 9/9/2 12/14/2
f 12/14/2 9/9/2 13/15/2
f 13/15/2 9/9/2 14/16/2
f 15/17/2 12/14/2 13/15/2
f 16/18/2 7/12/2 10/11/2
f 17/14/3 6/15/3 8/17/3
f 18/13/3 6/15/3 17/14/3
f 19/19/3 6/15/3 18/13/3
f 1/20/3 6/15/3 19/19/3
f 6/15/3 1/20/3 2/16/3
f 19/19/3 18/13/3 20/11/3
f 19/19/3 20/11/3 21/10/3
f 21/10/3 20/11/3 22/12/3
f 22/12/3 20/11/3 23/18/3
f 19/19/3 21/10/3 24/8/3
f 17/5/4 10/2/4 18/4/4
f 10/2/4 17/5/4 16/6/4
f 12/4/5 22/21/5 23/2/5
f 22/21/5 12/4/5 15/22/5
f 4/25/5 6/24/5 2/23/5
f 6/24/5 4/25/5 5/26/5
f 22/5/4 13/2/4 21/4/4
f 13/2/4 22/5/4 15/6/4
f 7/26/5 17/27/5 8/24/5
f 17/27/5 7/26/5 16/28/5
f 10/28/5 20/2/5 18/27/5
f 20/2/5 10/28/5 11/4/5
f 24/4/4 9/30/4 19/29/4
f 9/30/4 24/4/4 14/2/4
f 13/22/5 24/31/5 21/21/5
f 24/31/5 13/22/5 14/32/5
f 12/5/1 20/2/1 11/4/1
f 20/2/1 12/5/1 23/6/1

usemtl _defaultMat

f 9/2/6 1/5/6 19/6/6
f 1/2/6 9/5/6 3/6/6

