# Created by Kenney (www.kenney.nl)

mtllib road_sideBarrier.mtl

g road_sideBarrier

v 0.5 0 -0.605
v 0.5 0 -0.655
v -0.5 0 -0.605
v -0.5 0 -0.655
v 0.5 0.08 -0.625
v -0.5 0.08 -0.625
v 0.5 0.08 0.625
v 0.5 0.08 0.655
v -0.5 0.08 0.625
v -0.5 0.08 0.655
v 0.5 0.08 -0.655
v 0.5 1.353584E-16 0.655
v -0.5 1.353584E-16 0.655
v -0.5 0.08 -0.655
v 0.5 1.353584E-16 0.605
v -0.5 1.353584E-16 0.605

vn 0 -1 0
vn 0 0.2425356 0.9701425
vn 0 1 0
vn 1 0 0
vn 0 0 1
vn 0 0 -1
vn -1 0 0
vn 0 0.2425356 -0.9701425

vt 19.68504 -23.8189
vt 19.68504 -25.7874
vt -19.68504 -23.8189
vt -19.68504 -25.7874
vt 19.68504 5.776931
vt -19.68504 5.776931
vt 19.68504 9.023471
vt -19.68504 9.023471
vt -19.68504 24.6063
vt -19.68504 25.7874
vt 19.68504 24.6063
vt 19.68504 25.7874
vt 25.7874 3.149606
vt 25.7874 1.776357E-13
vt 24.6063 3.149606
vt 23.8189 1.776357E-13
vt 19.68504 5.329071E-15
vt -19.68504 5.329071E-15
vt 19.68504 3.149606
vt -19.68504 3.149606
vt 19.68504 0
vt -19.68504 0
vt -25.7874 0
vt -25.7874 3.149606
vt -23.8189 0
vt -24.6063 3.149606
vt 19.68504 23.8189
vt -19.68504 23.8189
vt 23.8189 4.023971E-13
vt 25.7874 4.023971E-13
vt -19.68504 -24.6063
vt 19.68504 -24.6063
vt -23.8189 4.71257E-14
vt -25.7874 4.71257E-14

usemtl pavement

f 3/3/1 2/2/1 1/1/1
f 2/2/1 3/3/1 4/4/1
f 5/7/2 3/6/2 1/5/2
f 3/6/2 5/7/2 6/8/2
f 9/11/3 8/10/3 7/9/3
f 8/10/3 9/11/3 10/12/3
f 5/15/4 2/14/4 11/13/4
f 2/14/4 5/15/4 1/16/4
f 8/19/5 13/18/5 12/17/5
f 13/18/5 8/19/5 10/20/5
f 14/19/6 2/22/6 4/21/6
f 2/22/6 14/19/6 11/20/6
f 3/25/7 14/24/7 4/23/7
f 14/24/7 3/25/7 6/26/7
f 12/12/1 16/28/1 15/27/1
f 16/28/1 12/12/1 13/10/1
f 13/30/7 9/15/7 16/29/7
f 9/15/7 13/30/7 10/13/7
f 9/7/8 15/6/8 16/5/8
f 15/6/8 9/7/8 7/8/8
f 11/4/3 6/32/3 5/31/3
f 6/32/3 11/4/3 14/2/3
f 7/26/4 12/34/4 15/33/4
f 12/34/4 7/26/4 8/24/4

